<svg xmlns="http://www.w3.org/2000/svg" width="2178.769" height="816.159" viewBox="0 0 2178.769 816.159">
  <g id="Group_21673" data-name="Group 21673" transform="translate(476.557 -3947.188)">
    <g id="Group_21669" data-name="Group 21669">
      <rect id="Rectangle_3454" data-name="Rectangle 3454" width="635" height="440" transform="translate(310 4076)" fill="#00d267"/>
      <path id="Path_35196" data-name="Path 35196" d="M1465.089,519.347a17.546,17.546,0,0,0-17.468-26.544l-9.608-9.811,1.327-1.3-2.794-6.631c-.043-.1-4.392-10.417-9.14-21.061-10.29-23.067-12.4-25.217-13.917-26.771-.059-.059-.367-.359-.535-.522a37.795,37.795,0,0,0-54,52.871c.155.166.449.482.5.536a15.424,15.424,0,0,0,2.961,2.39H1239.869V534.94a20.227,20.227,0,0,0-.241,3.152v16.254a17.209,17.209,0,0,0,9.574,15.9c4.627,2.422,10.737,3.5,19.812,3.5a71.186,71.186,0,0,0,10.425-.657l73.366,0a65.42,65.42,0,0,0,9.853.659,71.805,71.805,0,0,0,10.522-.659h35.2V562.348a32.309,32.309,0,0,0,11.283-2.72v13.463h36.406V556.078l18.015-36.731Z" transform="translate(-585.5 3725.094)"/>
      <path id="Path_35197" data-name="Path 35197" d="M1287.338,493.084v32.589h-15.25v-13H1265.7v13h-15.25V493.084h15.25v11.634h6.391V493.084Z" transform="translate(-585.5 3725.094)" fill="#fff"/>
      <path id="Path_35198" data-name="Path 35198" d="M1326.508,501.25V517.5c0,5.649-4.135,8.826-18.807,8.826s-18.807-3.177-18.807-8.826V501.25c0-5.647,4.133-8.826,18.807-8.826s18.807,3.179,18.807,8.826m-18.807-.626c-2.666,0-3.557.2-3.557,1.5v14.5c0,1.3.891,1.5,3.557,1.5s3.557-.205,3.557-1.5v-14.5c0-1.3-.891-1.5-3.557-1.5" transform="translate(-585.5 3725.094)" fill="#fff"/>
      <path id="Path_35199" data-name="Path 35199" d="M1363.245,501.042h-10.412v24.63h-15.249v-24.63h-10.413v-7.959h36.074Z" transform="translate(-585.5 3725.094)" fill="#fff"/>
      <path id="Path_35200" data-name="Path 35200" d="M1391.4,525.671l-2.567-2.75a22.9,22.9,0,0,1-5.492,2.647,20.013,20.013,0,0,1-6.118.89,17.278,17.278,0,0,1-4.7-.6,9.3,9.3,0,0,1-2.834-1.271,10.157,10.157,0,0,1-2.093-1.9,8.047,8.047,0,0,1-1.363-2.406,9.623,9.623,0,0,1-.485-3.262,10.933,10.933,0,0,1,.728-4.1,8.5,8.5,0,0,1,1.9-2.96,11.854,11.854,0,0,1,2.6-1.932,18.75,18.75,0,0,1,3.008-1.156,11.193,11.193,0,0,1-2.741-3.782,10.011,10.011,0,0,1-.845-3.92,7.449,7.449,0,0,1,.613-3.065,6.417,6.417,0,0,1,1.619-2.254,9.446,9.446,0,0,1,2.256-1.458,11.274,11.274,0,0,1,2.128-.671,23.33,23.33,0,0,1,5.042-.509q5.688,0,8.569,1.886a6.094,6.094,0,0,1,2.88,5.423,6.684,6.684,0,0,1-.533,2.684,12.7,12.7,0,0,1-2.5,3.514,23.8,23.8,0,0,1-3.609,3.03l3.609,3.771a8.5,8.5,0,0,0,.681-1.435,16.326,16.326,0,0,0,.752-2.382H1402.2a16.862,16.862,0,0,1-1.711,3.91,40.107,40.107,0,0,1-3.933,5.9l8.234,8.163Zm-7.285-7.724-5.759-6.2a6.064,6.064,0,0,0-1.92,3.908,3.515,3.515,0,0,0,1.1,2.647,3.985,3.985,0,0,0,2.88,1.054,4.914,4.914,0,0,0,1.619-.256,13.507,13.507,0,0,0,2.082-1.156m-1.8-14.871a15.616,15.616,0,0,0,2.313-2.695,3.338,3.338,0,0,0,.508-1.63,1.8,1.8,0,0,0-.647-1.388,2.611,2.611,0,0,0-3.319.035,2.063,2.063,0,0,0-.659,1.584,4.342,4.342,0,0,0,.439,1.758,10.554,10.554,0,0,0,1.365,2.336" transform="translate(-585.5 3725.094)" fill="#fff"/>
      <path id="Path_35201" data-name="Path 35201" d="M1250.206,554.346V538.092c0-5.647,4.133-8.826,18.807-8.826s18.807,3.179,18.807,8.826v3.948h-15.25v-3.07c0-1.3-.891-1.5-3.557-1.5s-3.557.2-3.557,1.5v14.5c0,1.3.893,1.506,3.557,1.506s3.557-.205,3.557-1.506V550.4h15.25v3.95c0,5.649-4.133,8.826-18.807,8.826s-18.807-3.179-18.807-8.826" transform="translate(-585.5 3725.094)" fill="#fff"/>
      <path id="Path_35202" data-name="Path 35202" d="M1309.994,562.515l-4.109-10.458h-1.25v10.458h-15.25V529.926h18.566c13.949,0,17.841,2.7,17.841,8.344v5.444c0,3.2-1.247,5.447-4.863,6.8l5.04,12Zm-5.359-18.416h3.316c1.7,0,2.591-.205,2.591-1.263v-3.688c0-1.059-.891-1.263-2.591-1.263h-3.316Z" transform="translate(-585.5 3725.094)" fill="#fff"/>
      <rect id="Rectangle_3545" data-name="Rectangle 3545" width="15.25" height="32.589" transform="translate(742.027 4255.018)" fill="#fff"/>
      <path id="Path_35203" data-name="Path 35203" d="M1365.731,541.03v-2.719c0-.818-.89-1.022-3.074-1.022s-3.075.2-3.075,1.022v2.3c0,3.826,21.4-.1,21.4,10.863v3.049c0,5.568-3.385,8.649-18.324,8.649s-18.325-3.806-18.325-9.132v-2.63h15.25v2.718c0,.817.891,1.021,3.075,1.021s3.073-.2,3.073-1.021v-2.3c0-3.825-21.157.1-21.157-10.863v-3.048c0-5.544,4.352-8.65,18.083-8.65s18.083,3.83,18.083,9.132v2.632Z" transform="translate(-585.5 3725.094)" fill="#fff"/>
      <path id="Path_35204" data-name="Path 35204" d="M1418.958,538.269v5.444c0,5.647-3.894,8.342-17.841,8.342H1397.8v10.459h-15.25V529.925h18.566c13.947,0,17.841,2.7,17.841,8.344m-15.25.878c0-1.058-.891-1.263-2.591-1.263H1397.8V544.1h3.316c1.7,0,2.591-.2,2.591-1.262Z" transform="translate(-585.5 3725.094)" fill="#fff"/>
      <path id="Path_35205" data-name="Path 35205" d="M1445.489,553.624v8.889h-15.25v-8.894l-12.106-23.694h16.094l3.757,10.963,3.846-10.963h15.282Z" transform="translate(-585.5 3725.094)" fill="#fff"/>
      <path id="Path_35206" data-name="Path 35206" d="M1423.055,482.837l22.065,22.532c.063-.059.109-.123.173-.185a6.956,6.956,0,1,1,3.072,11.683,6.954,6.954,0,1,1-11.622-3.313c.059-.056.13-.107.184-.161l-22.066-22.532" transform="translate(-585.5 3725.094)" fill="#fff"/>
      <path id="Path_35207" data-name="Path 35207" d="M1405.544,434.258a27.216,27.216,0,0,0-38.882,38.079s.3.332.348.377c3.42,3.493,43.377,22.529,43.377,22.529l16.412-16.074s-17.18-40.771-20.884-44.555c-.048-.048-.371-.356-.371-.356" transform="translate(-585.5 3725.094)" fill="#ff3200"/>
      <line id="Line_58" data-name="Line 58" x1="29.92" y1="15.496" transform="translate(790.633 4193.293)" fill="#fff"/>
      <path id="Path_35208" data-name="Path 35208" d="M1406.053,485.132a1.434,1.434,0,0,1-.659-.161l-29.921-15.5a1.437,1.437,0,0,1,1.322-2.551l29.919,15.5a1.436,1.436,0,0,1-.661,2.712" transform="translate(-585.5 3725.094)" fill="#fff"/>
      <g id="Group_21671" data-name="Group 21671">
        <path id="Path_35224" data-name="Path 35224" d="M0,0H1409.212V619.813H0Z" transform="translate(-378.105 3947.188)" fill="none"/>
        <path id="Path_35224-2" data-name="Path 35224" d="M0,0H1409.212V619.813H0Z" transform="translate(293 4143.533)" fill="none"/>
        <g id="Group_21667" data-name="Group 21667" transform="translate(-48 -8)">
          <path id="Path_35147" data-name="Path 35147" d="M1225.522,468.371c-.462,5.044-3.146,7.261-5.32,8.232-12.5,5.583-28.318,9.094-47,10.424-5.631.4-11.556.6-17.607.6-4.612,0-9.37-.113-14.143-.348-.115-.006-.192-.006-.27-.006-.133,0-.264.006-.4.013a5.5,5.5,0,0,0-3.679,1.8l-24.016,26.287a7.218,7.218,0,0,1-4.839,2.343c-.174.011-.348.017-.516.017a6.834,6.834,0,0,1-1.156-.1,7.242,7.242,0,0,1-5.47-4.2l-6.062-13.575L965.912,524.12V509.868l-2.917.545V490.949l2.8-.527.222-2.575a17.177,17.177,0,0,1,.719-3.835l.041-.126,1.774-5.444-3,.562V464.753l-2.846.534v-19.47l2.713-.509.235-2.558a17.723,17.723,0,0,1,.862-4.2,13.209,13.209,0,0,1,3.354-5.324,15.994,15.994,0,0,1,5.638-3.338,41.917,41.917,0,0,1,6.481-1.725c2.763-.522,5.829-.946,9.118-1.275l5.559-.557v6.41l13.755-2.584.456-.239a14.132,14.132,0,0,1,3.99-1.36,21.689,21.689,0,0,1,2.677-.34l9.645-.605.629-.325c.647-.335,1.347-.652,2.079-.957a50.028,50.028,0,0,1,16.768-3.289c.653,0,1.293.024,1.9.065a15.9,15.9,0,0,1,5.908,1.528c.089.042.174.09.263.137l2.516,1.324,1.767-2.025a16.336,16.336,0,0,1,3.642-3.079c2.266-1.42,5.555-2.5,10.352-3.4a109.1,109.1,0,0,1,12.683-1.576l3.163-.222v-7.584l23.261-4.373v6.613l3.977-.681a23.526,23.526,0,0,1,4.081-.379,12.251,12.251,0,0,1,7.164,2c1.719,1.21,4.6,4.109,4.6,9.962v26.766l5.907-6.452c17.056-18.642,33.692-31.667,49.459-38.711a8.442,8.442,0,0,1,2.851-.713c.216-.011.432-.024.647-.024,5.6,0,9.932,5.313,13.778,11.046a146.523,146.523,0,0,1,11.334,21.087,143.5,143.5,0,0,1,8.345,23.322c1.114,4.576,1.517,7.974,1.265,10.705" transform="translate(-553.324 3775.906)" fill="#fff"/>
          <path id="Path_35148" data-name="Path 35148" d="M1225.522,468.371c-.462,5.044-3.146,7.261-5.32,8.232-12.5,5.583-28.318,9.094-47,10.424-5.631.4-11.556.6-17.607.6-4.612,0-9.37-.113-14.143-.348-.115-.006-.192-.006-.27-.006-.133,0-.264.006-.4.013a5.5,5.5,0,0,0-3.679,1.8l-24.016,26.287a7.218,7.218,0,0,1-4.839,2.343c-.174.011-.348.017-.516.017a6.834,6.834,0,0,1-1.156-.1,7.242,7.242,0,0,1-5.47-4.2l-6.062-13.575L965.912,524.12V509.868l-2.917.545V490.949l2.8-.527.222-2.575a17.177,17.177,0,0,1,.719-3.835l.041-.126,1.774-5.444-3,.562V464.753l-2.846.534v-19.47l2.713-.509.235-2.558a17.723,17.723,0,0,1,.862-4.2,13.209,13.209,0,0,1,3.354-5.324,15.994,15.994,0,0,1,5.638-3.338,41.917,41.917,0,0,1,6.481-1.725c2.763-.522,5.829-.946,9.118-1.275l5.559-.557v6.41l13.755-2.584.456-.239a14.132,14.132,0,0,1,3.99-1.36,21.689,21.689,0,0,1,2.677-.34l9.645-.605.629-.325c.647-.335,1.347-.652,2.079-.957a50.028,50.028,0,0,1,16.768-3.289c.653,0,1.293.024,1.9.065a15.9,15.9,0,0,1,5.908,1.528c.089.042.174.09.263.137l2.516,1.324,1.767-2.025a16.336,16.336,0,0,1,3.642-3.079c2.266-1.42,5.555-2.5,10.352-3.4a109.1,109.1,0,0,1,12.683-1.576l3.163-.222v-7.584l23.261-4.373v6.613l3.977-.681a23.526,23.526,0,0,1,4.081-.379,12.251,12.251,0,0,1,7.164,2c1.719,1.21,4.6,4.109,4.6,9.962v26.766l5.907-6.452c17.056-18.642,33.692-31.667,49.459-38.711a8.442,8.442,0,0,1,2.851-.713c.216-.011.432-.024.647-.024,5.6,0,9.932,5.313,13.778,11.046a146.523,146.523,0,0,1,11.334,21.087,143.5,143.5,0,0,1,8.345,23.322c1.114,4.576,1.517,7.974,1.265,10.705" transform="translate(-553.324 3775.906)" fill="#fff"/>
          <path id="Path_35149" data-name="Path 35149" d="M967.758,459.188v-9.175l2.845-.535V445.16a15.373,15.373,0,0,1,.689-4.962,8.19,8.19,0,0,1,2.072-3.321,11.007,11.007,0,0,1,3.876-2.237,36.13,36.13,0,0,1,5.679-1.509q3.951-.743,8.685-1.214v8.317a14.026,14.026,0,0,0-2.747.27,11.35,11.35,0,0,0-3.141,1.008,3.108,3.108,0,0,0-1.349,1.309,5.6,5.6,0,0,0-.393,2.4v1.742l7.63-1.434v9.176l-7.63,1.433v14.253L970.6,472.907V458.654Z" transform="translate(-553.324 3775.906)"/>
          <path id="Path_35150" data-name="Path 35150" d="M996.29,468.082V437.955l12.218-2.3v7.729q1.078-5.158,2.282-6.857a7.459,7.459,0,0,1,5-3,16.969,16.969,0,0,1,2.062-.263V447.4l-.81.152a16.7,16.7,0,0,0-4.342,1.282,5.327,5.327,0,0,0-1.84,1.622,6.445,6.445,0,0,0-.932,2.064,9.686,9.686,0,0,0-.393,2.722v10.354Z" transform="translate(-553.324 3775.906)"/>
          <path id="Path_35151" data-name="Path 35151" d="M1056.642,445.335l-21.982,4.13a3.45,3.45,0,0,0,.908,2.234,3.977,3.977,0,0,0,2.465.96,18.184,18.184,0,0,0,4.846-.42,44.285,44.285,0,0,0,7.506-2.073,34.223,34.223,0,0,0,5.374-2.457l-1.277,7.87a63.932,63.932,0,0,1-6.894,3.233,43.721,43.721,0,0,1-6.8,1.792,37.572,37.572,0,0,1-9,.772,10.33,10.33,0,0,1-5.85-1.931,9.64,9.64,0,0,1-3.166-4.741,21.717,21.717,0,0,1-.993-6.77,26.873,26.873,0,0,1,1.129-7.939,12.461,12.461,0,0,1,1.9-3.755,15.191,15.191,0,0,1,3.4-3.275,16.427,16.427,0,0,1,3.607-1.954,39.318,39.318,0,0,1,7.483-2.117,35.812,35.812,0,0,1,8.905-.741,10.791,10.791,0,0,1,4.034,1.021,7.383,7.383,0,0,1,2.638,1.994,7.964,7.964,0,0,1,1.349,2.886,21.467,21.467,0,0,1,.639,5.572q0,1.056-.05,2.364Zm-22.276-2.66,12.315-2.313q-.146-2.477-1.631-3.25t-4.576-.2a8.512,8.512,0,0,0-4.576,2.037,5.554,5.554,0,0,0-1.532,3.723" transform="translate(-553.324 3775.906)"/>
          <path id="Path_35152" data-name="Path 35152" d="M1088.265,420.92v9q-6.9.707-8.636,1.035-4,.752-5.1,1.62a1.627,1.627,0,0,0-.613,1.391,1.411,1.411,0,0,0,.317,1.044,1.661,1.661,0,0,0,1.179.294,34.762,34.762,0,0,0,3.8-.517q3.238-.534,4-.629a10.868,10.868,0,0,1,2.858.04,3.891,3.891,0,0,1,1.852.841,4.139,4.139,0,0,1,1.178,1.914,12.258,12.258,0,0,1,.637,4.025,14.158,14.158,0,0,1-.81,4.813,8.9,8.9,0,0,1-1.595,2.852,11.638,11.638,0,0,1-2.648,2.264,14.348,14.348,0,0,1-2.92,1.358,43.429,43.429,0,0,1-6.8,1.792q-3.972.747-6.721,1.042-2.011.207-6.551.348v-7.679l4.785-.506q2.429-.333,4.93-.805a13.581,13.581,0,0,0,3.864-1.13,1.8,1.8,0,0,0,1.018-1.6,1.237,1.237,0,0,0-.539-1.2,6.412,6.412,0,0,0-2.992.145,50.592,50.592,0,0,1-5.275.721,9.642,9.642,0,0,1-3.227-.253,4.846,4.846,0,0,1-3.153-3.138,14.433,14.433,0,0,1-.686-4.554,13.693,13.693,0,0,1,1.2-6.324,10.2,10.2,0,0,1,3.717-3.851q2.514-1.576,8.6-2.719a108.161,108.161,0,0,1,14.327-1.637" transform="translate(-553.324 3775.906)"/>
          <path id="Path_35153" data-name="Path 35153" d="M1093.908,449.742V412.4l13.149-2.47v12.633a9.64,9.64,0,0,1,3.043-4.888,13.065,13.065,0,0,1,6.427-2.852q5.446-1.021,7.9.7t2.454,5.819v22.2l-13.151,2.47V428.7a2.292,2.292,0,0,0-.712-1.938,2.772,2.772,0,0,0-2.206-.26,4.843,4.843,0,0,0-2.81,1.361,3.758,3.758,0,0,0-.9,2.6v16.8Z" transform="translate(-553.324 3775.906)"/>
          <path id="Path_35154" data-name="Path 35154" d="M968.052,504.318v-9.175l2.92-.548v-4.319a15.949,15.949,0,0,1,.589-4.759,8.465,8.465,0,0,1,1.828-3.19,10.178,10.178,0,0,1,3.594-2.342,31.5,31.5,0,0,1,6.281-1.732q3.972-.747,8.683-1.215v8.316a14.111,14.111,0,0,0-2.747.271,10.84,10.84,0,0,0-3.139,1.032,2.9,2.9,0,0,0-1.338,1.282,5.75,5.75,0,0,0-.38,2.4v1.742l7.6-1.429v9.177l-7.6,1.427v14.254l-13.371,2.513V503.77Zm40.529,6.64-13.15,2.47V483.646a5.4,5.4,0,0,0,1.571.072,50.145,50.145,0,0,0,5.176-.752q2.4-.45,4.563-1.078a7.935,7.935,0,0,0,1.84-.714Zm-1.864-31.739-9.126,1.714a2.746,2.746,0,0,1-1.325.028,1.036,1.036,0,0,1-.589-.625,6.649,6.649,0,0,1-.123-1.644,11.27,11.27,0,0,1,.148-2.483,2,2,0,0,1,.747-.974,5.718,5.718,0,0,1,2.025-.649l7.384-1.388a4.588,4.588,0,0,1,1.754-.1,1.124,1.124,0,0,1,.76.581,4.07,4.07,0,0,1,.233,1.673q0,.2-.073,2.026a2.182,2.182,0,0,1-.551,1.245,2.332,2.332,0,0,1-1.264.593" transform="translate(-553.324 3775.906)"/>
          <path id="Path_35155" data-name="Path 35155" d="M1041.309,474.928v9q-6.9.707-8.636,1.034-4,.752-5.1,1.621a1.626,1.626,0,0,0-.613,1.39,1.419,1.419,0,0,0,.318,1.046,1.673,1.673,0,0,0,1.178.294,35.061,35.061,0,0,0,3.8-.519q3.239-.534,4-.629a10.962,10.962,0,0,1,2.859.04,3.89,3.89,0,0,1,1.852.841,4.122,4.122,0,0,1,1.177,1.914,12.215,12.215,0,0,1,.639,4.027,14.161,14.161,0,0,1-.81,4.812,8.923,8.923,0,0,1-1.595,2.851,11.607,11.607,0,0,1-2.65,2.264,14.262,14.262,0,0,1-2.918,1.359,43.353,43.353,0,0,1-6.8,1.791q-3.973.747-6.721,1.043-2.012.206-6.551.348v-7.68l4.783-.506q2.432-.333,4.932-.8a13.576,13.576,0,0,0,3.864-1.132,1.8,1.8,0,0,0,1.018-1.6,1.239,1.239,0,0,0-.539-1.2,6.465,6.465,0,0,0-2.994.145,50.306,50.306,0,0,1-5.273.722,9.662,9.662,0,0,1-3.227-.254,4.843,4.843,0,0,1-3.153-3.136,14.441,14.441,0,0,1-.687-4.556,13.7,13.7,0,0,1,1.2-6.324,10.2,10.2,0,0,1,3.716-3.851q2.516-1.575,8.6-2.719a108.042,108.042,0,0,1,14.328-1.636" transform="translate(-553.324 3775.906)"/>
          <path id="Path_35156" data-name="Path 35156" d="M1046.951,503.749v-37.34l13.149-2.47v12.635a9.65,9.65,0,0,1,3.043-4.89,13.069,13.069,0,0,1,6.428-2.851q5.446-1.023,7.9.7t2.454,5.819v22.2l-13.151,2.47V482.7a2.3,2.3,0,0,0-.712-1.94,2.773,2.773,0,0,0-2.207-.26,4.839,4.839,0,0,0-2.809,1.362,3.748,3.748,0,0,0-.9,2.6v16.805Z" transform="translate(-553.324 3775.906)"/>
          <path id="Path_35157" data-name="Path 35157" d="M1190.26,409.572c3.059-1.367,11.578,11.048,19.029,27.729s11.014,31.309,7.955,32.676c-23.127,10.331-54.325,11.083-75.441,10.053a12.783,12.783,0,0,0-10.056,4.158l-24.014,26.285-20.709-46.358,35.6-.345a12.788,12.788,0,0,0,9.806-4.717c13.323-16.415,34.7-39.15,57.828-49.481" transform="translate(-553.324 3775.906)" fill="#fff"/>
          <path id="Path_35158" data-name="Path 35158" d="M1107.383,512.642a2.2,2.2,0,0,1-1.655-1.273l-20.709-46.358a2.2,2.2,0,0,1,1.985-3.093l35.6-.345a10.64,10.64,0,0,0,8.123-3.9c13.889-17.11,35.336-39.691,58.638-50.1a3.385,3.385,0,0,1,1.145-.286c1.765-.126,4.483.76,9.869,8.794a142.127,142.127,0,0,1,10.917,20.331,138.673,138.673,0,0,1,8.047,22.456c1.911,7.849,1.541,11.9-1.2,13.121-11.965,5.343-27.2,8.707-45.3,10a261.878,261.878,0,0,1-31.145.245,10.355,10.355,0,0,0-1.258.015,10.546,10.546,0,0,0-7.069,3.431l-24.014,26.285a2.2,2.2,0,0,1-1.466.709,2.269,2.269,0,0,1-.506-.022m34.527-34.805a257.087,257.087,0,0,0,30.62-.241c17.42-1.239,32.052-4.43,43.5-9.483.694-2.136-1.121-12.848-8.746-29.916s-14.393-25.57-16.446-26.477c-22.388,10.119-43.178,32.057-56.7,48.717a15.055,15.055,0,0,1-11.49,5.528l-32.25.313,17.976,40.239,21.752-23.81a14.94,14.94,0,0,1,10-4.851,15.156,15.156,0,0,1,1.783-.019" transform="translate(-553.324 3775.906)"/>
          <path id="Path_35159" data-name="Path 35159" d="M1198.214,442.248c-7.451-16.68-11.013-31.309-7.954-32.676s11.578,11.048,19.029,27.729c6.691,14.975,10.242,28.292,8.685,31.847l-.729.829c-3.059,1.367-11.58-11.048-19.031-27.729" transform="translate(-553.324 3775.906)" fill="#ff0045"/>
          <path id="Path_35160" data-name="Path 35160" d="M1196.877,442.846a138.176,138.176,0,0,1-8.005-22.333c-2.347-9.641-.673-11.624.791-12.279a2.7,2.7,0,0,1,.9-.222c5.546-.4,15.223,17.85,20.067,28.692,5.819,13.027,10.762,28.292,8.688,33.03a1.473,1.473,0,0,1-.241.38l-.731.831a1.442,1.442,0,0,1-.5.368,2.613,2.613,0,0,1-.9.224h0c-5.545.394-15.222-17.849-20.066-28.691m11.076-4.948a139.383,139.383,0,0,0-10.512-19.631c-3.766-5.647-5.91-7.154-6.565-7.319-.318.6-.623,3.209,1.068,9.774a155.915,155.915,0,0,0,18.119,40.559c3.594,5.391,5.711,7.01,6.469,7.288l.17-.193c1-3.067-2-15.365-8.749-30.478" transform="translate(-553.324 3775.906)"/>
          <path id="Path_35161" data-name="Path 35161" d="M1202.376,440.389c1.852,4.145,3.967,7.229,4.727,6.889s-.124-3.974-1.975-8.118-3.969-7.229-4.728-6.889.124,3.974,1.976,8.118" transform="translate(-553.324 3775.906)" fill="#eeebcd"/>
          <path id="Path_35162" data-name="Path 35162" d="M1201.708,440.688c-1.1-2.457-3.452-8.261-1.606-9.085a1.042,1.042,0,0,1,.346-.088c1.859-.132,4.563,5.59,5.347,7.346a34.8,34.8,0,0,1,2.012,5.612c.506,2.082.386,3.121-.4,3.474a1.04,1.04,0,0,1-.348.086c-1.857.133-4.563-5.588-5.347-7.345m1.336-.6a24.362,24.362,0,0,0,3.6,6.152,32.776,32.776,0,0,0-5.778-12.935,24.336,24.336,0,0,0,2.181,6.783" transform="translate(-553.324 3775.906)"/>
          <path id="Path_35163" data-name="Path 35163" d="M1180.056,437.114a7.553,7.553,0,0,0,2.554-.643,1.464,1.464,0,1,0-1.194-2.674,4.642,4.642,0,0,1-3.787-8.476,1.465,1.465,0,0,0-1.194-2.675,7.574,7.574,0,0,0,3.621,14.468" transform="translate(-553.324 3775.906)"/>
          <path id="Path_35164" data-name="Path 35164" d="M1185.049,448.26a7.557,7.557,0,0,0,2.543-.639,1.465,1.465,0,1,0-1.2-2.674,4.641,4.641,0,0,1-3.785-8.476,1.465,1.465,0,0,0-1.2-2.674,7.571,7.571,0,0,0,3.634,14.463" transform="translate(-553.324 3775.906)"/>
          <path id="Path_35165" data-name="Path 35165" d="M1190.018,459.414a7.577,7.577,0,0,0,2.554-.643,1.464,1.464,0,1,0-1.194-2.674,4.642,4.642,0,0,1-3.787-8.476,1.464,1.464,0,0,0-1.194-2.674,7.574,7.574,0,0,0,3.621,14.467" transform="translate(-553.324 3775.906)"/>
          <path id="Path_35166" data-name="Path 35166" d="M1195.011,470.56a7.545,7.545,0,0,0,2.542-.639,1.464,1.464,0,1,0-1.194-2.674,4.642,4.642,0,0,1-3.786-8.476,1.465,1.465,0,1,0-1.2-2.674,7.571,7.571,0,0,0,3.634,14.463" transform="translate(-553.324 3775.906)"/>
          <path id="Path_35167" data-name="Path 35167" d="M1167.947,449.211a7.553,7.553,0,0,0,2.554-.643,1.465,1.465,0,0,0-1.194-2.675,4.642,4.642,0,1,1-3.787-8.476,1.464,1.464,0,0,0-1.194-2.674,7.574,7.574,0,0,0,3.621,14.468" transform="translate(-553.324 3775.906)"/>
          <path id="Path_35168" data-name="Path 35168" d="M1172.928,460.361a7.6,7.6,0,0,0,2.554-.643,1.464,1.464,0,0,0-1.194-2.674,4.642,4.642,0,0,1-3.787-8.476,1.465,1.465,0,0,0-1.194-2.675,7.574,7.574,0,0,0,3.621,14.468" transform="translate(-553.324 3775.906)"/>
          <path id="Path_35169" data-name="Path 35169" d="M1177.909,471.511a7.532,7.532,0,0,0,2.554-.644,1.464,1.464,0,0,0-1.194-2.674,4.642,4.642,0,1,1-3.787-8.476,1.464,1.464,0,0,0-1.194-2.674,7.574,7.574,0,0,0,3.621,14.468" transform="translate(-553.324 3775.906)"/>
          <path id="Path_35170" data-name="Path 35170" d="M1155.6,461.415a7.559,7.559,0,0,0,2.554-.643,1.464,1.464,0,0,0-1.194-2.674,4.642,4.642,0,1,1-3.787-8.476,1.464,1.464,0,1,0-1.194-2.674,7.574,7.574,0,0,0,3.621,14.467" transform="translate(-553.324 3775.906)"/>
          <path id="Path_35171" data-name="Path 35171" d="M1160.579,472.565a7.59,7.59,0,0,0,2.554-.643,1.464,1.464,0,1,0-1.194-2.674,4.642,4.642,0,1,1-3.787-8.476,1.464,1.464,0,0,0-1.194-2.674,7.574,7.574,0,0,0,3.621,14.467" transform="translate(-553.324 3775.906)"/>
          <path id="Path_35224-3" data-name="Path 35224" d="M0,0H1409.212V619.813H0Z" transform="translate(-297.93 4006)" fill="none"/>
        </g>
      </g>
    </g>
    <g id="Group_21672" data-name="Group 21672" transform="translate(278.719 -10.707)">
      <path id="Path_35172" data-name="Path 35172" d="M1619.949,611.327a79.43,79.43,0,1,0-79.43,79.43,79.43,79.43,0,0,0,79.43-79.43" transform="translate(-1275.227 3726.871)"/>
      <path id="Path_35173" data-name="Path 35173" d="M1486.684,647.831a8.8,8.8,0,0,0-2.819,3.25c-2.511,4.813-2.542,11.958-2.542,11.958s4.719-3.157,9.337-2.242c-1.129,1.369-.906,3.215-.3,5.031a3.064,3.064,0,0,1,2.392-1.631c3.189-.708,7.234-1.224,8.265-4.8a8.234,8.234,0,0,0-.55-5.192c-1.408-3.452-4.36-6.865-7.761-7.466a7.89,7.89,0,0,0-6.025,1.1" transform="translate(-1279.666 3701.709)" fill="#efd521"/>
      <text id="_" data-name=" " transform="translate(316.577 4331.977) rotate(85.533)" fill="#fff" font-size="14" font-family="SegoeUI, Segoe UI"><tspan x="0" y="0"> </tspan></text>
      <text id="I" transform="matrix(-0.01, 1, -1, -0.01, 316.933, 4335.721)" fill="#fff" font-size="14" font-family="SegoeUI, Segoe UI"><tspan x="0" y="0">I</tspan></text>
      <text id="t" transform="matrix(-0.133, 0.991, -0.991, -0.133, 316.995, 4340.718)" fill="#fff" font-size="14" font-family="SegoeUI, Segoe UI"><tspan x="0" y="0">t</tspan></text>
      <text id="_2" data-name=" " transform="translate(315.901 4348.59) rotate(104.023)" fill="#fff" font-size="14" font-family="SegoeUI, Segoe UI"><tspan x="0" y="0"> </tspan></text>
      <text id="l" transform="matrix(-0.32, 0.947, -0.947, -0.32, 315.007, 4352.264)" fill="#fff" font-size="14" font-family="SegoeUI, Segoe UI"><tspan x="0" y="0">l</tspan></text>
      <text id="o" transform="translate(313.872 4356.419) rotate(116.723)" fill="#fff" font-size="14" font-family="SegoeUI, Segoe UI"><tspan x="0" y="0">o</tspan></text>
      <text id="o-2" data-name="o" transform="matrix(-0.614, 0.789, -0.789, -0.614, 309.489, 4365.45)" fill="#fff" font-size="14" font-family="SegoeUI, Segoe UI"><tspan x="0" y="0">o</tspan></text>
      <text id="k" transform="translate(303.421 4373.439) rotate(139.027)" fill="#fff" font-size="14" font-family="SegoeUI, Segoe UI"><tspan x="0" y="0">k</tspan></text>
      <text id="s" transform="translate(295.738 4380.186) rotate(149.646)" fill="#fff" font-size="14" font-family="SegoeUI, Segoe UI"><tspan x="0" y="0">s</tspan></text>
      <text id="_3" data-name=" " transform="matrix(-0.919, 0.394, -0.394, -0.919, 287.555, 4384.757)" fill="#fff" font-size="14" font-family="SegoeUI, Segoe UI"><tspan x="0" y="0"> </tspan></text>
      <text id="s-2" data-name="s" transform="matrix(-0.961, 0.276, -0.276, -0.961, 284.355, 4386.496)" fill="#fff" font-size="14" font-family="SegoeUI, Segoe UI"><tspan x="0" y="0">s</tspan></text>
      <text id="o-3" data-name="o" transform="matrix(-0.996, 0.094, -0.094, -0.996, 275.653, 4389.156)" fill="#fff" font-size="14" font-family="SegoeUI, Segoe UI"><tspan x="0" y="0">o</tspan></text>
      <text id="_4" data-name=" " transform="translate(265.388 4389.932) rotate(-177.659)" fill="#fff" font-size="14" font-family="SegoeUI, Segoe UI"><tspan x="0" y="0"> </tspan></text>
      <text id="b" transform="matrix(-0.984, -0.176, 0.176, -0.984, 261.865, 4390.052)" fill="#fff" font-size="14" font-family="SegoeUI, Segoe UI"><tspan x="0" y="0">b</tspan></text>
      <text id="o-4" data-name="o" transform="translate(251.696 4388.38) rotate(-158.863)" fill="#fff" font-size="14" font-family="SegoeUI, Segoe UI"><tspan x="0" y="0">o</tspan></text>
      <text id="m" transform="translate(242.43 4385.149) rotate(-145.35)" fill="#fff" font-size="14" font-family="SegoeUI, Segoe UI"><tspan x="0" y="0">m</tspan></text>
      <text id="b-2" data-name="b" transform="translate(230.567 4376.918) rotate(-131.745)" fill="#fff" font-size="14" font-family="SegoeUI, Segoe UI"><tspan x="0" y="0">b</tspan></text>
      <path id="Path_35174" data-name="Path 35174" d="M1580.886,610.315l2.419-2.419c.919-.919,1.784-2.994-1.609-7.029a3.783,3.783,0,0,1,.483-.1,5,5,0,0,1,3.582,1.066,13.957,13.957,0,0,1,3.079,4.105c.183.315.365.627.55.936,1.247,2.082,3.048,4.6,5.939,5.563a7.545,7.545,0,0,0,6.572-.9l-2.147-3.182a3.734,3.734,0,0,1-3.207.436c-1.7-.567-2.955-2.379-3.862-3.893-.177-.3-.351-.6-.527-.9a16.974,16.974,0,0,0-4.038-5.2,8.784,8.784,0,0,0-6.416-1.847,7.737,7.737,0,0,0-2.9.973c-4.214-3.662-6.358-2.775-7.3-1.837l-2.419,2.42a30.432,30.432,0,1,0,11.8,11.8m-7.04-11.126c1.738.6,5.769,4.63,6.368,6.368l-1.451,1.452a30.356,30.356,0,0,0-6.369-6.368Zm-38.354,44.722a26.593,26.593,0,1,1,37.608,0,26.624,26.624,0,0,1-37.608,0" transform="translate(-1289.004 3713.093)" fill="#ff0045"/>
      <path id="Path_35175" data-name="Path 35175" d="M1542.909,611.906l2.716,2.716a18.189,18.189,0,0,1,17.914-4.605l1.069-3.688a22.03,22.03,0,0,0-21.7,5.578" transform="translate(-1293.18 3710.73)" fill="#fff"/>
      <path id="Path_35176" data-name="Path 35176" d="M1621.084,609.112l12.236-11-2.9,7.274,15.74-3.714-11.215,7.334,5.5,5.06-17.213-1.772Z" transform="translate(-1310.333 3712.342)" fill="#efd521"/>
      <text id="_5" data-name=" " transform="translate(213.965 4344.332) rotate(-94.464)" fill="#fff" font-size="14" font-family="SegoeUI, Segoe UI"><tspan x="0" y="0"> </tspan></text>
      <text id="I-2" data-name="I" transform="translate(213.473 4340.548) rotate(-89.448)" fill="#fff" font-size="14" font-family="SegoeUI, Segoe UI"><tspan x="0" y="0">I</tspan></text>
      <text id="t-2" data-name="t" transform="translate(213.46 4335.589) rotate(-82.355)" fill="#fff" font-size="14" font-family="SegoeUI, Segoe UI"><tspan x="0" y="0">t</tspan></text>
      <text id="_6" data-name=" " transform="translate(214.594 4327.763) rotate(-75.975)" fill="#fff" font-size="14" font-family="SegoeUI, Segoe UI"><tspan x="0" y="0"> </tspan></text>
      <text id="l-2" data-name="l" transform="translate(215.491 4324.05) rotate(-71.35)" fill="#fff" font-size="14" font-family="SegoeUI, Segoe UI"><tspan x="0" y="0">l</tspan></text>
      <text id="o-5" data-name="o" transform="translate(216.645 4319.805) rotate(-63.277)" fill="#fff" font-size="14" font-family="SegoeUI, Segoe UI"><tspan x="0" y="0">o</tspan></text>
      <text id="o-6" data-name="o" transform="translate(221.006 4310.904) rotate(-52.134)" fill="#fff" font-size="14" font-family="SegoeUI, Segoe UI"><tspan x="0" y="0">o</tspan></text>
      <text id="k-2" data-name="k" transform="translate(227.025 4302.939) rotate(-40.97)" fill="#fff" font-size="14" font-family="SegoeUI, Segoe UI"><tspan x="0" y="0">k</tspan></text>
      <text id="s-3" data-name="s" transform="translate(234.718 4296.156) rotate(-30.354)" fill="#fff" font-size="14" font-family="SegoeUI, Segoe UI"><tspan x="0" y="0">s</tspan></text>
      <text id="_7" data-name=" " transform="translate(242.954 4291.466) rotate(-23.174)" fill="#fff" font-size="14" font-family="SegoeUI, Segoe UI"><tspan x="0" y="0"> </tspan></text>
      <text id="s-4" data-name="s" transform="translate(246.147 4289.859) rotate(-16.038)" fill="#fff" font-size="14" font-family="SegoeUI, Segoe UI"><tspan x="0" y="0">s</tspan></text>
      <text id="o-7" data-name="o" transform="translate(254.881 4287.156) rotate(-5.394)" fill="#fff" font-size="14" font-family="SegoeUI, Segoe UI"><tspan x="0" y="0">o</tspan></text>
      <text id="_8" data-name=" " transform="matrix(0.999, 0.041, -0.041, 0.999, 265.157, 4286.472)" fill="#fff" font-size="14" font-family="SegoeUI, Segoe UI"><tspan x="0" y="0"> </tspan></text>
      <text id="b-3" data-name="b" transform="translate(268.711 4286.305) rotate(10.129)" fill="#fff" font-size="14" font-family="SegoeUI, Segoe UI"><tspan x="0" y="0">b</tspan></text>
      <text id="o-8" data-name="o" transform="translate(278.758 4288.01) rotate(21.183)" fill="#fff" font-size="14" font-family="SegoeUI, Segoe UI"><tspan x="0" y="0">o</tspan></text>
      <text id="m-2" data-name="m" transform="translate(288.139 4291.145) rotate(34.65)" fill="#fff" font-size="14" font-family="SegoeUI, Segoe UI"><tspan x="0" y="0">m</tspan></text>
      <text id="b-4" data-name="b" transform="translate(299.931 4299.45) rotate(48.254)" fill="#fff" font-size="14" font-family="SegoeUI, Segoe UI"><tspan x="0" y="0">b</tspan></text>
      <path id="Path_35224-4" data-name="Path 35224" d="M0,0H1100V483.812H0Z" transform="translate(-755.275 4023.188)" fill="none"/>
    </g>
  </g>
</svg>
