<svg xmlns="http://www.w3.org/2000/svg" xmlns:xlink="http://www.w3.org/1999/xlink" width="636.593" height="678.664" viewBox="0 0 636.593 678.664">
  <defs>
    <clipPath id="clip-path">
      <path id="Path_35330" data-name="Path 35330" d="M636.593,678.664H0V0H636.593Z" fill="none"/>
    </clipPath>
  </defs>
  <g id="Group_21781" data-name="Group 21781" transform="translate(17 68)">
    <g id="Mask_Group_3" data-name="Mask Group 3" transform="translate(-17 -68)" clip-path="url(#clip-path)">
      <path id="Path_35329" data-name="Path 35329" d="M513.96,779.386,659.315,924.9v-.051a54.953,54.953,0,0,0,39.334,16.565h134.12a55.214,55.214,0,0,0,52.4-38.061l21.58,21.522A55.079,55.079,0,0,0,946.1,941.411h40.141v-.03h.006l.419-21.826a43.851,43.851,0,0,1,.469-5.444A43.315,43.315,0,0,1,1011,881.774a42.319,42.319,0,0,1,18.523-4.287l20.454.418v-.015h.032l2.931-19.309a91.084,91.084,0,0,1,66.043-74.349l15.566-4.255.826-.225V502.638a54.563,54.563,0,0,0-15.184-37.9L974.84,319.282a55.094,55.094,0,0,0-39.359-16.535L553.9,302.8a55.189,55.189,0,0,0-55.114,55.119V741.492a54.6,54.6,0,0,0,15.179,37.893" transform="translate(-498.779 -262.746)"/>
    </g>
  </g>
</svg>
