<svg xmlns="http://www.w3.org/2000/svg" width="379" height="263" viewBox="0 0 379 263">
  <g id="Group_21906" data-name="Group 21906" transform="translate(-975 -4076)">
    <rect id="Rectangle_3455" data-name="Rectangle 3455" width="379" height="263" transform="translate(975 4076)" fill="#00c5bf"/>
    <path id="Path_35209" data-name="Path 35209" d="M1080.559,273c3.832-8.119-9.418-14.12-14.118-18.267-7.35-6.484-14-13.89-22.462-18.988-9.794-5.9-18.621-5.19-29.489-5.016-15.176.243-29.307-1.413-42.813,7.011-7.228,4.509-22.265,12.768-18.034,23.223,1.942,4.8,6.5,6.812,11.32,7.273-.461,4.712-3.914,9.514-4.374,14.713a36,36,0,0,0,2.4,16.174c7.706,20.3,24.014,32.911,42.559,32.911a43,43,0,0,0,11.349-1.553l.134-.038c17.387-5.248,57.528-18.99,48.872-44.768a1.98,1.98,0,0,1-.126-1.4,1.873,1.873,0,0,1,.828-.762l7.03-4.2c2.362-1.412,4.807-2.9,6.308-5.206a9.186,9.186,0,0,0,.621-1.105" transform="translate(60.001 3902.719)" fill="#fff"/>
    <path id="Path_35210" data-name="Path 35210" d="M1069.161,312.848c-5.134,12.771-25.969,21.9-44.567,27.512-18.213,4.987-37.527-4.38-46.306-27.512-8.909-22.889,11.691-47.134,44.569-41.906,32.481,5.369,51.561,29.378,46.3,41.906" transform="translate(50.607 3886.747)" fill="#fff"/>
    <path id="Path_35211" data-name="Path 35211" d="M1069.161,312.848c-5.134,12.771-25.969,21.9-44.567,27.512-18.213,4.987-37.527-4.38-46.306-27.512-8.909-22.889,11.691-47.134,44.569-41.906C1055.339,276.31,1074.418,300.319,1069.161,312.848Z" transform="translate(50.607 3886.747)" fill="none" stroke="#000" stroke-linecap="round" stroke-linejoin="round" stroke-width="3.075"/>
    <path id="Path_35212" data-name="Path 35212" d="M1018.912,339.792c-13.669,0-25.392-9.382-31.355-25.1l-.018-.045a22.91,22.91,0,0,1,2.422-21.817c5.633-8.235,15.808-12.958,27.916-12.958a50.842,50.842,0,0,1,7.942.644,67.117,67.117,0,0,1,25.743,9.841c6.379,4.19,11.461,9.339,14.311,14.5,2.134,3.862,2.811,7.381,1.857,9.654l-.033.081c-3.428,8.527-18.3,17.319-40.812,24.122a30.485,30.485,0,0,1-7.974,1.079" transform="translate(46.725 3882.856)" fill="#fff"/>
    <path id="Path_35213" data-name="Path 35213" d="M1018.912,339.792c-13.669,0-25.392-9.382-31.355-25.1l-.018-.045a22.91,22.91,0,0,1,2.422-21.817c5.633-8.235,15.808-12.958,27.916-12.958a50.842,50.842,0,0,1,7.942.644,67.125,67.125,0,0,1,25.743,9.84c6.379,4.191,11.461,9.34,14.311,14.5,2.134,3.862,2.811,7.381,1.857,9.653l-.033.081c-3.428,8.527-18.3,17.319-40.812,24.122A30.485,30.485,0,0,1,1018.912,339.792Z" transform="translate(46.725 3882.856)" fill="none" stroke="#000" stroke-linecap="round" stroke-linejoin="round" stroke-width="3.075"/>
    <path id="Path_35214" data-name="Path 35214" d="M1069.161,312.848c-5.134,12.771-25.969,21.9-44.567,27.512-18.213,4.987-37.527-4.38-46.306-27.512-8.909-22.889,11.691-47.134,44.569-41.906,32.481,5.369,51.561,29.378,46.3,41.906" transform="translate(50.607 3886.747)" fill="#fff"/>
    <path id="Path_35215" data-name="Path 35215" d="M1069.161,312.848c-5.134,12.771-25.969,21.9-44.567,27.512-18.213,4.987-37.527-4.38-46.306-27.512-8.909-22.889,11.691-47.134,44.569-41.906C1055.339,276.31,1074.418,300.319,1069.161,312.848Z" transform="translate(50.607 3886.747)" fill="none" stroke="#000" stroke-linecap="round" stroke-linejoin="round" stroke-width="3.075"/>
    <path id="Path_35216" data-name="Path 35216" d="M1069.161,312.848c-5.134,12.771-25.969,21.9-44.567,27.512-18.213,4.987-37.527-4.38-46.306-27.512-8.909-22.889,11.691-47.134,44.569-41.906,32.481,5.369,51.561,29.378,46.3,41.906" transform="translate(50.607 3886.747)" fill="#fff"/>
    <path id="Path_35217" data-name="Path 35217" d="M1069.161,312.848c-5.134,12.771-25.969,21.9-44.567,27.512-18.213,4.987-37.527-4.38-46.306-27.512-8.909-22.889,11.691-47.134,44.569-41.906C1055.339,276.31,1074.418,300.319,1069.161,312.848Z" transform="translate(50.607 3886.747)" fill="none" stroke="#000" stroke-linecap="round" stroke-linejoin="round" stroke-width="3.075"/>
    <path id="Path_35218" data-name="Path 35218" d="M992.747,292.834c5.633-8.235,15.808-12.959,27.916-12.959" transform="translate(43.939 3882.856)" fill="none" stroke="#000" stroke-linecap="round" stroke-linejoin="round" stroke-width="3.075"/>
    <path id="Path_35219" data-name="Path 35219" d="M1052.824,280.955q2.056.34,4.08.8" transform="translate(19.719 3882.421)" fill="none" stroke="#000" stroke-linecap="round" stroke-linejoin="round" stroke-width="3.075"/>
    <path id="Path_35220" data-name="Path 35220" d="M1044.606,320.007a16.582,16.582,0,1,1-16.588-16.585,16.583,16.583,0,0,1,16.588,16.585" transform="translate(36.402 3873.363)" fill="#efd521"/>
    <path id="Path_35221" data-name="Path 35221" d="M1032.7,327.843a2.438,2.438,0,1,1-2.438-2.438,2.437,2.437,0,0,1,2.438,2.438" transform="translate(29.798 3864.5)"/>
    <path id="Path_35222" data-name="Path 35222" d="M1046.774,330.016l-3.29-1.624,3.29-1.623" transform="translate(23.484 3863.95)" fill="none" stroke="#000" stroke-linecap="round" stroke-linejoin="round" stroke-width="3.075"/>
    <path id="Path_35223" data-name="Path 35223" d="M1040.563,340.242a4.433,4.433,0,0,1-8.249,0" transform="translate(27.988 3858.519)" fill="none" stroke="#000" stroke-linecap="round" stroke-linejoin="round" stroke-width="3.075"/>
    <text id="e" transform="translate(1022.987 4166.999) rotate(-46.117)" fill="#00c6c0" font-size="18" font-family="SegoeUI, Segoe UI"><tspan x="0" y="0">e</tspan></text>
    <text id="g" transform="translate(1032.442 4155.843) rotate(-27.54)" fill="#00c6c0" font-size="17" font-family="SegoeUI, Segoe UI"><tspan x="0" y="0">g</tspan></text>
    <text id="g-2" data-name="g" transform="translate(1045.097 4149.27) rotate(-11.652)" fill="#00c6c0" font-size="17" font-family="SegoeUI, Segoe UI"><tspan x="0" y="0">g</tspan></text>
    <text id="c" transform="matrix(1, 0.012, -0.012, 1, 1059.099, 4147.692)" fill="#00c6c0" font-size="18" font-family="SegoeUI, Segoe UI"><tspan x="0" y="0">c</tspan></text>
    <text id="e-2" data-name="e" transform="translate(1070.775 4147.777) rotate(11.141)" fill="#00c6c0" font-size="18" font-family="SegoeUI, Segoe UI"><tspan x="0" y="0">e</tspan></text>
    <text id="l" transform="translate(1084.779 4150.686) rotate(18.436)" fill="#00c6c0" font-size="18" font-family="SegoeUI, Segoe UI"><tspan x="0" y="0">l</tspan></text>
    <text id="l-2" data-name="l" transform="translate(1091.425 4152.891) rotate(23.179)" fill="#00c6c0" font-size="18" font-family="SegoeUI, Segoe UI"><tspan x="0" y="0">l</tspan></text>
    <text id="e-3" data-name="e" transform="translate(1097.969 4155.373) rotate(30.766)" fill="#00c6c0" font-size="18" font-family="SegoeUI, Segoe UI"><tspan x="0" y="0">e</tspan></text>
    <text id="n" transform="matrix(0.741, 0.671, -0.671, 0.741, 1110.106, 4162.582)" fill="#00c6c0" font-size="18" font-family="SegoeUI, Segoe UI"><tspan x="0" y="0">n</tspan></text>
    <text id="t" transform="translate(1120.49 4172.024) rotate(54.435)" fill="#00c6c0" font-size="18" font-family="SegoeUI, Segoe UI"><tspan x="0" y="0">t</tspan></text>
    <g id="Group_21674" data-name="Group 21674" transform="translate(1009.02 4227.6)">
      <g id="Rectangle_3563" data-name="Rectangle 3563" transform="translate(22.979 6.4)" stroke="#000" stroke-width="2">
        <rect width="283" height="59" rx="29.5" stroke="none"/>
        <rect x="1" y="1" width="281" height="57" rx="28.5" fill="none"/>
      </g>
      <g id="Rectangle_3564" data-name="Rectangle 3564" transform="translate(-0.02 0.4)" fill="#fff" stroke="#000" stroke-width="2">
        <rect width="297" height="50" rx="25" stroke="none"/>
        <rect x="1" y="1" width="295" height="48" rx="24" fill="none"/>
      </g>
      <text id="Banner_for_advertising" data-name="Banner for advertising" transform="translate(76.98 12.4)" font-size="20" font-family="SegoeUI-Bold, Segoe UI" font-weight="700" letter-spacing="-0.002em"><tspan x="0" y="22">Banner for </tspan><tspan x="0" y="49">advertising</tspan></text>
    </g>
    <path id="Path_35139" data-name="Path 35139" d="M1284.294,339.195c-8.877,0-17.3-1.826-23.721-5.141a29.454,29.454,0,0,1-6.893-4.753c-.653.206-1.316.388-1.983.543l-.026.005c-.947.2-2.72.556-4.745.936-7.19,1.35-8.652,1.35-9.133,1.35-.111,0-.212,0-.3-.008-4.3-.267-4.56-4.35-4.656-5.888l-.113-1.8,1.219-.229a7.618,7.618,0,0,1-1.283-4.709,8.119,8.119,0,0,1,5-7.891,41.529,41.529,0,0,1,7.942-2.093c.966-.182,1.865-.338,2.691-.47.22-1.2.62-2.6,1.078-4.185,1.271-4.421,3.012-10.478,2.235-17.342l-.332-2.935,2.863.728c5.213,1.326,12.07,5.018,16.428,8.27a98.381,98.381,0,0,1,1.759-9.89c1.5-6.977,2.8-13-.081-21.836l-1.411-4.323,4.168,1.819c10.631,4.643,16.693,8.293,20.922,12.6a27.451,27.451,0,0,1,7.464,14.587,37.42,37.42,0,0,1,13.514-9.485l3.082-1.224-.3,3.3c-.317,3.545-.427,10.085.633,12.545.57,1.324,1.151,2.674,1.708,4.021l7.153-1.344,1.089,1.49,1.08-1.9,17.09-3.212-11.291,15.827v6.9l-11.821,2.22a20.527,20.527,0,0,1-4.006,8.823c-3.41,4.4-8.685,7.922-16.6,11.075a55.831,55.831,0,0,1-20.417,3.61" transform="translate(-103.874 3892.168)" fill="#fff"/>
    <path id="Path_35140" data-name="Path 35140" d="M1334.843,308.756c-.708-4.23-2.809-9.088-4.829-13.776-1.662-3.857-.791-13.535-.791-13.535-6.91,2.746-11.629,7.349-15.646,12.283-1.528-15.677-9.306-21.926-27.822-30.011,4.771,14.616-1.242,21.86-1.91,36.558-2.777-3.151-12-8.8-18.64-10.491,1.129,9.981-2.723,18.187-3.386,22.437-1.518,9.712.532,16.968,11.267,22.512,11.8,6.094,29.877,6.453,42.449,1.448,13.846-5.514,21.7-13.154,19.307-27.425" transform="translate(-115.452 3889.676)" fill="#efd521"/>
    <path id="Path_35141" data-name="Path 35141" d="M1326.442,345.568a17.034,17.034,0,0,0-1.469-8.213c-4.2-9.655-14.939-18.408-14.939-18.408s-.99,10.965-8,16.818c-.689-3.372-3.745-5.284-7.227-6.579,1.065,1.688.365,3.948-.454,5.6-2.82,5.675-6.971,12.4-2.826,18.322,1.76,2.513,4.928,4.421,8.5,5.5,6.923,2.085,15.672,1.792,20.721-2.608,3.618-3.152,5.387-6.7,5.692-10.425" transform="translate(-126.902 3867.41)" fill="#ff0045"/>
    <path id="Path_35142" data-name="Path 35142" d="M1242.11,359.634c-2.084.392-3.581.282-4.515-.3-1.021-.655-1.519-2.016-1.519-4.078a6.1,6.1,0,0,1,3.8-6.032,40.141,40.141,0,0,1,7.487-1.949q1.921-.362,3.452-.584a24.89,24.89,0,0,1,4.928-.448,2.789,2.789,0,0,1,2.04.919,5.158,5.158,0,0,1,.825,2.862l-9.182,1.725c0-1.042-.738-1.619-1.953-1.391-1.367.257-2.04.883-2.04,1.86a.97.97,0,0,0,.717.929,2.233,2.233,0,0,0,1.259.11l5.9-1.109c2.083-.392,3.581-.282,4.515.324,1.019.655,1.519,1.993,1.519,4.056a7.09,7.09,0,0,1-1.128,4.14,5.445,5.445,0,0,1-2.67,2.065,24.019,24.019,0,0,1-2.93.876c-.738.161-2.3.476-4.688.925a60.223,60.223,0,0,1-8.943,1.311c-1.823-.113-2.562-1.212-2.735-3.979l9.594-1.8c0,1.043.76,1.616,1.976,1.388,1.367-.257,2.04-.883,2.04-1.859,0-.435-.282-.729-.846-.9a2.6,2.6,0,0,0-1.346-.1Z" transform="translate(-105.253 3856.414)"/>
    <path id="Path_35143" data-name="Path 35143" d="M1286.44,351.732v5.383l-9.268,1.741V342.4l17.364-3.262c3.907-.735,6.034.842,6.034,4.4s-2.127,5.934-6.034,6.669Zm4.753-6.6a1.792,1.792,0,0,0-.673-1.567,1.76,1.76,0,0,0-1.454-.291l-2.626.494v4.493l2.626-.493a2.532,2.532,0,0,0,2.127-2.636" transform="translate(-121.821 3859.339)"/>
    <path id="Path_35144" data-name="Path 35144" d="M1318.523,352.234V335.782l9.268-1.741v16.453Z" transform="translate(-138.491 3861.324)"/>
    <path id="Path_35145" data-name="Path 35145" d="M1360.736,332.8l-9.464,1.779a7.41,7.41,0,0,0-.3-2.287,1.436,1.436,0,0,0-.716-.821,2.036,2.036,0,0,0-1.454-.227,2.841,2.841,0,0,0-2.235,1.527,13.477,13.477,0,0,0-.478,4.6,12,12,0,0,0,.478,4.339,1.824,1.824,0,0,0,2.235.882,2.64,2.64,0,0,0,2.171-1.841,7.616,7.616,0,0,0,.282-2.418l9.485-1.782a9.219,9.219,0,0,1-1.021,4.337,7.589,7.589,0,0,1-4.145,3.059,49.3,49.3,0,0,1-6.794,1.645,45.636,45.636,0,0,1-6.772.9c-2.278.016-3.8-.676-4.515-2.1a13.519,13.519,0,0,1-.673-5.234,15.73,15.73,0,0,1,.673-5.487,7.255,7.255,0,0,1,4.515-3.8,48.792,48.792,0,0,1,6.772-1.641,45.516,45.516,0,0,1,6.794-.908c1.975-.024,3.364.476,4.145,1.522a7.12,7.12,0,0,1,1.021,3.954" transform="translate(-145.866 3864.032)"/>
    <path id="Path_35146" data-name="Path 35146" d="M1382.871,332.069l-8.725-8.952,11.178-2.1,2.193,3,2.17-3.816,11.178-2.1-8.725,12.232v5.86l-9.268,1.741Z" transform="translate(-160.916 3867.752)"/>
    <path id="Path_35115" data-name="Path 35115" d="M738.582,282.775a38.211,38.211,0,1,1-38.211-38.211,38.211,38.211,0,0,1,38.211,38.211" transform="translate(574.419 3921.058)" fill="#efd521"/>
    <text id="S" transform="matrix(-0.777, 0.63, -0.63, -0.777, 1295.912, 4224.137)" fill="#ff3200" font-size="8" font-family="SegoeUI, Segoe UI"><tspan x="0" y="0">S</tspan></text>
    <text id="A" transform="translate(1289.595 4228.007) rotate(157.032)" fill="#ff3200" font-size="9" font-family="SegoeUI, Segoe UI"><tspan x="0" y="0">A</tspan></text>
    <text id="Y" transform="matrix(-0.988, 0.154, -0.154, -0.988, 1282.95, 4231.972)" fill="#ff3200" font-size="8" font-family="SegoeUI, Segoe UI"><tspan x="0" y="0">Y</tspan></text>
    <text id="_" data-name=" " transform="translate(1274.86 4231.916) rotate(-177.561)" fill="#ff3200" font-size="9" font-family="SegoeUI, Segoe UI"><tspan x="0" y="0"> </tspan></text>
    <text id="C-2" data-name="C" transform="translate(1271.856 4232.022) rotate(-166.163)" fill="#ff3200" font-size="9" font-family="SegoeUI, Segoe UI"><tspan x="0" y="0">C</tspan></text>
    <text id="H" transform="translate(1263.631 4230.996) rotate(-150.005)" fill="#ff3200" font-size="8" font-family="SegoeUI, Segoe UI"><tspan x="0" y="0">H</tspan></text>
    <text id="E-4" data-name="E" transform="translate(1257.191 4225.934) rotate(-134.892)" fill="#ff3200" font-size="9" font-family="SegoeUI, Segoe UI"><tspan x="0" y="0">E</tspan></text>
    <text id="E-5" data-name="E" transform="translate(1252.368 4221.037) rotate(-120.875)" fill="#ff3200" font-size="9" font-family="SegoeUI, Segoe UI"><tspan x="0" y="0">E</tspan></text>
    <text id="S-2" data-name="S" transform="translate(1247.905 4215.576) rotate(-106.563)" fill="#ff3200" font-size="8" font-family="SegoeUI, Segoe UI"><tspan x="0" y="0">S</tspan></text>
    <text id="E-6" data-name="E" transform="translate(1246.765 4208.088) rotate(-91.936)" fill="#ff3200" font-size="9" font-family="SegoeUI, Segoe UI"><tspan x="0" y="0">E</tspan></text>
    <text id="S-3" data-name="S" transform="translate(1253.626 4183.479) rotate(-39.041)" fill="#ff3200" font-size="8" font-family="SegoeUI, Segoe UI"><tspan x="0" y="0">S</tspan></text>
    <text id="A-2" data-name="A" transform="matrix(0.921, -0.39, 0.39, 0.921, 1259.956, 4179.616)" fill="#ff3200" font-size="9" font-family="SegoeUI, Segoe UI"><tspan x="0" y="0">A</tspan></text>
    <text id="Y-2" data-name="Y" transform="translate(1266.529 4175.696) rotate(-8.845)" fill="#ff3200" font-size="8" font-family="SegoeUI, Segoe UI"><tspan x="0" y="0">Y</tspan></text>
    <text id="_2" data-name=" " transform="translate(1274.605 4175.661) rotate(2.439)" fill="#ff3200" font-size="9" font-family="SegoeUI, Segoe UI"><tspan x="0" y="0"> </tspan></text>
    <text id="C-3" data-name="C" transform="translate(1277.686 4175.608) rotate(13.838)" fill="#ff3200" font-size="9" font-family="SegoeUI, Segoe UI"><tspan x="0" y="0">C</tspan></text>
    <text id="H-2" data-name="H" transform="translate(1285.913 4176.665) rotate(29.997)" fill="#ff3200" font-size="8" font-family="SegoeUI, Segoe UI"><tspan x="0" y="0">H</tspan></text>
    <text id="E-7" data-name="E" transform="translate(1292.376 4181.627) rotate(45.108)" fill="#ff3200" font-size="9" font-family="SegoeUI, Segoe UI"><tspan x="0" y="0">E</tspan></text>
    <text id="E-8" data-name="E" transform="matrix(0.513, 0.858, -0.858, 0.513, 1297.169, 4186.554)" fill="#ff3200" font-size="9" font-family="SegoeUI, Segoe UI"><tspan x="0" y="0">E</tspan></text>
    <text id="S-4" data-name="S" transform="translate(1301.636 4192.074) rotate(73.438)" fill="#ff3200" font-size="8" font-family="SegoeUI, Segoe UI"><tspan x="0" y="0">S</tspan></text>
    <text id="E-9" data-name="E" transform="translate(1302.777 4199.55) rotate(88.062)" fill="#ff3200" font-size="9" font-family="SegoeUI, Segoe UI"><tspan x="0" y="0">E</tspan></text>
    <path id="Path_35116" data-name="Path 35116" d="M732.925,294.55a20.778,20.778,0,1,1-20.778-20.778,20.777,20.777,0,0,1,20.778,20.778" transform="translate(562.643 3909.282)" fill="#ff3200"/>
    <path id="Path_35117" data-name="Path 35117" d="M728.693,322.985a3.759,3.759,0,0,1-4.98-1.89,5.708,5.708,0,0,0-1.916-2.389,14.278,14.278,0,0,1-10.478-.253,14.254,14.254,0,0,1-7.717-7.937,13.555,13.555,0,0,1-.465-1.4.42.42,0,0,1,.405-.532h.008a.422.422,0,0,1,.4.293,12.752,12.752,0,0,0,.493,1.291,13.606,13.606,0,0,0,12.444,8.124,13.187,13.187,0,0,0,3.159-.366c.142-.035.284-.072.424-.11l.024-.006c.129-.034.258-.073.385-.112.161-.05.323-.1.482-.159.137-.048.276-.1.413-.152l.006,0c.14-.052.278-.11.415-.168.107-.045.215-.092.323-.142.065-.03.129-.058.193-.091.1-.048.2-.1.306-.15s.227-.116.342-.178c.176-.094.35-.194.52-.295.1-.063.2-.123.3-.187l.079-.052a8.646,8.646,0,0,1,.9.816,9.52,9.52,0,0,1,1.794,2.7.217.217,0,0,0,.2.128.2.2,0,0,0,.088-.02.212.212,0,0,0,.107-.284,9.871,9.871,0,0,0-1.84-2.782,9.052,9.052,0,0,0-.869-.808c.1-.073.207-.146.31-.221q.323-.236.631-.5c.051-.041.1-.084.153-.129.109-.093.219-.189.326-.291s.192-.176.287-.269a12.793,12.793,0,0,0,.944-1.009,13.6,13.6,0,0,0,2.543-4.581.419.419,0,0,1,.8.239,14.108,14.108,0,0,1-.463,1.4,14.4,14.4,0,0,1-2.119,3.682,13.517,13.517,0,0,1,2.533,3.811,3.764,3.764,0,0,1-1.89,4.978" transform="translate(557.905 3895.248)" fill="#efd521"/>
    <path id="Path_35118" data-name="Path 35118" d="M735.405,296.048c0,2.267-1.007,4.106-2.249,4.106s-2.25-1.838-2.25-4.106,1.007-4.106,2.25-4.106,2.249,1.838,2.249,4.106" transform="translate(546.704 3901.957)" fill="#efd900"/>
    <path id="Path_35119" data-name="Path 35119" d="M718.417,296.048c0,2.267-1.007,4.106-2.249,4.106s-2.25-1.838-2.25-4.106,1.007-4.106,2.25-4.106,2.249,1.838,2.249,4.106" transform="translate(553.552 3901.957)" fill="#efd900"/>
    <path id="Path_35120" data-name="Path 35120" d="M735.4,296.048c0,2.267-1.007,4.106-2.248,4.106s-2.25-1.838-2.25-4.106,1.007-4.106,2.25-4.106,2.248,1.838,2.248,4.106" transform="translate(546.704 3901.957)" fill="#efd521"/>
    <path id="Path_35121" data-name="Path 35121" d="M718.417,296.048c0,2.267-1.008,4.106-2.249,4.106s-2.25-1.838-2.25-4.106,1.007-4.106,2.25-4.106,2.249,1.838,2.249,4.106" transform="translate(553.552 3901.957)" fill="#efd521"/>
    <path id="Path_35129" data-name="Path 35129" d="M1384.6,695.086a35.672,35.672,0,1,0-16.615,47.633,35.671,35.671,0,0,0,16.615-47.633" transform="translate(-313.572 3547.932)" fill="#9c00d7"/>
    <path id="Path_35130" data-name="Path 35130" d="M45.791,11.842A25.424,25.424,0,0,1,11.842,0,25.424,25.424,0,0,1,0,33.949,25.424,25.424,0,0,1,33.949,45.791,25.424,25.424,0,0,1,45.791,11.842" transform="translate(1006.47 4258.552) rotate(-45)" fill="#ff3200"/>
  </g>
</svg>
