<svg xmlns="http://www.w3.org/2000/svg" width="380" height="110" viewBox="0 0 380 105">
  <g id="Group_21712" data-name="Group 21712" transform="translate(-310 -8072)">
    <rect id="Rectangle_3456" data-name="Rectangle 3456" width="380" height="115" transform="translate(310 8072)" fill="#ffe200"/>
    <g id="Group_21630" data-name="Group 21630" transform="translate(455.329 8084.125)">
      <g id="Group_21695" data-name="Group 21695" transform="translate(0 0)">
        <path id="Path_35098" data-name="Path 35098" d="M471.663,673.27H437.77a4.439,4.439,0,0,1,0-8.878h33.893a4.439,4.439,0,1,1,0,8.878" transform="translate(-405.405 -595.495)" fill="#00d367"/>
        <path id="Path_35099" data-name="Path 35099" d="M471.663,673.27H437.77a4.439,4.439,0,0,1,0-8.878h33.893a4.439,4.439,0,1,1,0,8.878Z" transform="translate(-405.405 -595.495)" fill="none" stroke="#241f20" stroke-miterlimit="10" stroke-width="1.597"/>
        <path id="Path_35100" data-name="Path 35100" d="M492.006,682.735v-1.111l-.558-.558-.065-.024a5.6,5.6,0,0,0-1.751-.238,2.7,2.7,0,0,0-2.01.572v-.139l-.372-.372h-1.634v1.4c0,.284-.187.45-.513.458v-1.3l-.558-.558H482.91v1.124l-.044-.039a1.594,1.594,0,0,0-.186-.186,1.618,1.618,0,0,0-.186-.186,1.729,1.729,0,0,0-.4-.34,3.725,3.725,0,0,0-3.491,0,1.834,1.834,0,0,0-.274.212l-.558-.586h-1.635v.545l-.137-.157-.074-.045a3.751,3.751,0,0,0-3.447.03,1.817,1.817,0,0,0-.276.213v-.029l-.558-.558h-1.634v2H469.9v-.186h-1.883v-1.257l-.558-.558h-1.635v.372l-.232-.372h-4.071v1.1l-.052-.046a1.5,1.5,0,0,0-.186-.186,1.485,1.485,0,0,0-.186-.186,1.533,1.533,0,0,0-.293-.268,2.685,2.685,0,0,0-1.556-.419H456.98v3.046l.558.558h2.272a2.689,2.689,0,0,0,1.562-.419,1.582,1.582,0,0,0,.169-.139l.541.558h4.137v-.186h.168v.186h4.076v-.186h.11v.186h1.635v-1.143l.065.058a1.554,1.554,0,0,0,.186.186,1.6,1.6,0,0,0,.186.186,1.714,1.714,0,0,0,.4.341,3.307,3.307,0,0,0,1.744.433,5.176,5.176,0,0,0,1.728-.255v.008h.186v.186h1.635v-1.142q.031.03.065.058a800.988,800.988,0,0,1,.372.372,1.721,1.721,0,0,0,.4.34,3.736,3.736,0,0,0,3.491,0,1.526,1.526,0,0,0,.6-.667c.036.038.673.673.791.75a3.789,3.789,0,0,0,3.18,0,1.241,1.241,0,0,0,.361-.351q.064.035.134.068l-.03.074.078.043a5.477,5.477,0,0,0,2.379.516,3.361,3.361,0,0,0,1.605-.328.987.987,0,0,0,.573-.85.741.741,0,0,0-.322-.618" transform="translate(-425.342 -609.332)" fill="#ff3200"/>
        <path id="Path_35101" data-name="Path 35101" d="M457.613,681.826h2.172c1.257,0,2.054.594,2.054,1.424s-.781,1.424-2.054,1.424h-2.172Zm2.225,1.892a.474.474,0,1,0,0-.94h-.789v.94Z" transform="translate(-425.876 -610.193)" fill="#fff"/>
        <path id="Path_35102" data-name="Path 35102" d="M457.613,681.826h2.172c1.257,0,2.054.594,2.054,1.424s-.781,1.424-2.054,1.424h-2.172Zm2.225,1.892a.474.474,0,1,0,0-.94h-.789v.94Z" transform="translate(-425.876 -610.193)" fill="none" stroke="#ff3200" stroke-miterlimit="10" stroke-width="1.264"/>
        <path id="Path_35103" data-name="Path 35103" d="M486.567,681.826h3.873v.866H488v.236h2.225v.679H488v.2H490.5v.866h-3.938Z" transform="translate(-450.286 -610.193)" fill="#fff"/>
        <path id="Path_35104" data-name="Path 35104" d="M486.567,681.826h3.873v.866H488v.236h2.225v.679H488v.2H490.5v.866h-3.938Z" transform="translate(-450.286 -610.193)" fill="none" stroke="#ff3200" stroke-miterlimit="10" stroke-width="1.264"/>
        <path id="Path_35105" data-name="Path 35105" d="M513.991,681.826h1.436v1.814h2.441v1.033h-3.877Z" transform="translate(-473.406 -610.193)" fill="#fff"/>
        <path id="Path_35106" data-name="Path 35106" d="M513.991,681.826h1.436v1.814h2.441v1.033h-3.877Z" transform="translate(-473.406 -610.193)" fill="none" stroke="#ff3200" stroke-miterlimit="10" stroke-width="1.264"/>
        <rect id="Rectangle_3539" data-name="Rectangle 3539" width="1.436" height="2.848" transform="translate(44.771 71.633)" fill="#fff"/>
        <rect id="Rectangle_3540" data-name="Rectangle 3540" width="1.436" height="2.848" transform="translate(44.771 71.633)" fill="none" stroke="#ff3200" stroke-miterlimit="10" stroke-width="1.264"/>
        <path id="Path_35107" data-name="Path 35107" d="M551.913,682.923c0-.863.968-1.485,2.347-1.485a3.216,3.216,0,0,1,1.652.391l-.407.952a2.091,2.091,0,0,0-1.163-.309c-.61,0-.984.187-.984.452s.476.452,1.106.452a3.263,3.263,0,0,0,1.538-.358v1.127a5,5,0,0,1-1.741.264c-1.379,0-2.347-.618-2.347-1.485" transform="translate(-505.377 -609.866)" fill="#fff"/>
        <path id="Path_35108" data-name="Path 35108" d="M551.913,682.923c0-.863.968-1.485,2.347-1.485a3.216,3.216,0,0,1,1.652.391l-.407.952a2.091,2.091,0,0,0-1.163-.309c-.61,0-.984.187-.984.452s.476.452,1.106.452a3.263,3.263,0,0,0,1.538-.358v1.127a5,5,0,0,1-1.741.264C552.881,684.408,551.913,683.789,551.913,682.923Z" transform="translate(-505.377 -609.866)" fill="none" stroke="#ff3200" stroke-miterlimit="10" stroke-width="1.264"/>
        <rect id="Rectangle_3541" data-name="Rectangle 3541" width="1.436" height="2.848" transform="translate(50.897 71.633)" fill="#fff"/>
        <rect id="Rectangle_3542" data-name="Rectangle 3542" width="1.436" height="2.848" transform="translate(50.897 71.633)" fill="none" stroke="#ff3200" stroke-miterlimit="10" stroke-width="1.264"/>
        <path id="Path_35109" data-name="Path 35109" d="M590.95,682.923c0-.863.964-1.485,2.347-1.485s2.347.622,2.347,1.485-.964,1.485-2.347,1.485-2.347-.618-2.347-1.485m3.246,0c0-.26-.366-.452-.9-.452s-.9.191-.9.452.366.452.9.452.9-.187.9-.452" transform="translate(-538.287 -609.866)" fill="#fff"/>
        <path id="Path_35110" data-name="Path 35110" d="M590.95,682.923c0-.863.964-1.485,2.347-1.485s2.347.622,2.347,1.485-.964,1.485-2.347,1.485S590.95,683.789,590.95,682.923Zm3.246,0c0-.26-.366-.452-.9-.452s-.9.191-.9.452.366.452.9.452S594.2,683.187,594.2,682.923Z" transform="translate(-538.287 -609.866)" fill="none" stroke="#ff3200" stroke-miterlimit="10" stroke-width="1.264"/>
        <path id="Path_35111" data-name="Path 35111" d="M622.833,683.334v-1.51h1.436v1.3c0,.362.252.557.635.557s.635-.2.635-.557v-1.3h1.436v1.51c0,.976-.736,1.4-2.07,1.4s-2.071-.423-2.071-1.4" transform="translate(-565.166 -610.192)" fill="#fff"/>
        <path id="Path_35112" data-name="Path 35112" d="M622.833,683.334v-1.51h1.436v1.3c0,.362.252.557.635.557s.635-.2.635-.557v-1.3h1.436v1.51c0,.977-.736,1.4-2.07,1.4S622.833,684.311,622.833,683.334Z" transform="translate(-565.166 -610.192)" fill="none" stroke="#ff3200" stroke-miterlimit="10" stroke-width="1.264"/>
        <path id="Path_35113" data-name="Path 35113" d="M649.921,683.9l.342-.838a3.2,3.2,0,0,0,1.892.513c.289,0,.476-.041.476-.094s-.089-.094-.5-.094c-1.208,0-1.949-.407-1.949-.952,0-.586.667-1,2.107-1a5.566,5.566,0,0,1,1.717.232v.858a4.071,4.071,0,0,0-1.53-.281c-.321,0-.557.036-.557.1s.089.089.464.089c1.436,0,1.945.391,1.945.891,0,.6-.7,1.078-2.079,1.078a5.358,5.358,0,0,1-2.331-.5" transform="translate(-588.003 -609.865)" fill="#fff"/>
        <path id="Path_35114" data-name="Path 35114" d="M649.921,683.9l.342-.838a3.2,3.2,0,0,0,1.892.513c.289,0,.476-.041.476-.094s-.089-.094-.5-.094c-1.208,0-1.949-.407-1.949-.952,0-.586.667-1,2.107-1a5.566,5.566,0,0,1,1.717.232v.858a4.071,4.071,0,0,0-1.53-.281c-.321,0-.557.036-.557.1s.089.089.464.089c1.436,0,1.945.391,1.945.891,0,.6-.7,1.078-2.079,1.078A5.358,5.358,0,0,1,649.921,683.9Z" transform="translate(-588.003 -609.865)" fill="none" stroke="#ff3200" stroke-miterlimit="10" stroke-width="1.264"/>
        <path id="Path_35115" data-name="Path 35115" d="M682.256,254.612a10.047,10.047,0,1,1-10.048-10.048,10.048,10.048,0,0,1,10.048,10.048" transform="translate(-598.322 -241.556)" fill="#efd521"/>
        <text id="S" transform="matrix(-0.777, 0.63, -0.63, -0.777, 80.109, 19.219)" fill="#ff3200" font-size="1" font-family="SegoeUI, Segoe UI"><tspan x="0" y="0">S</tspan></text>
        <text id="A" transform="translate(78.296 20.631) rotate(157.032)" fill="#ff3200" font-size="1" font-family="SegoeUI, Segoe UI"><tspan x="0" y="0">A</tspan></text>
        <text id="Y" transform="matrix(-0.988, 0.154, -0.154, -0.988, 76.195, 21.503)" fill="#ff3200" font-size="1" font-family="SegoeUI, Segoe UI"><tspan x="0" y="0">Y</tspan></text>
        <text id="_" data-name=" " transform="translate(73.861 21.47) rotate(-177.561)" fill="#ff3200" font-size="1" font-family="SegoeUI, Segoe UI"><tspan x="0" y="0"> </tspan></text>
        <text id="C" transform="translate(72.799 21.753) rotate(-166.163)" fill="#ff3200" font-size="1" font-family="SegoeUI, Segoe UI"><tspan x="0" y="0">C</tspan></text>
        <text id="H" transform="translate(70.422 21.117) rotate(-150.005)" fill="#ff3200" font-size="1" font-family="SegoeUI, Segoe UI"><tspan x="0" y="0">H</tspan></text>
        <text id="E" transform="translate(68.322 19.801) rotate(-134.892)" fill="#ff3200" font-size="1" font-family="SegoeUI, Segoe UI"><tspan x="0" y="0">E</tspan></text>
        <text id="E-2" data-name="E" transform="translate(66.855 18.259) rotate(-120.875)" fill="#ff3200" font-size="1" font-family="SegoeUI, Segoe UI"><tspan x="0" y="0">E</tspan></text>
        <text id="S-2" data-name="S" transform="translate(65.801 16.446) rotate(-106.563)" fill="#ff3200" font-size="1" font-family="SegoeUI, Segoe UI"><tspan x="0" y="0">S</tspan></text>
        <text id="E-3" data-name="E" transform="translate(65.195 14.22) rotate(-91.936)" fill="#ff3200" font-size="1" font-family="SegoeUI, Segoe UI"><tspan x="0" y="0">E</tspan></text>
        <text id="S-3" data-name="S" transform="translate(67.654 6.88) rotate(-39.041)" fill="#ff3200" font-size="1" font-family="SegoeUI, Segoe UI"><tspan x="0" y="0">S</tspan></text>
        <text id="A-2" data-name="A" transform="matrix(0.921, -0.39, 0.39, 0.921, 69.47, 5.469)" fill="#ff3200" font-size="1" font-family="SegoeUI, Segoe UI"><tspan x="0" y="0">A</tspan></text>
        <text id="Y-2" data-name="Y" transform="translate(71.552 4.609) rotate(-8.845)" fill="#ff3200" font-size="1" font-family="SegoeUI, Segoe UI"><tspan x="0" y="0">Y</tspan></text>
        <text id="_2" data-name=" " transform="translate(73.882 4.618) rotate(2.439)" fill="#ff3200" font-size="1" font-family="SegoeUI, Segoe UI"><tspan x="0" y="0"> </tspan></text>
        <text id="C-2" data-name="C" transform="translate(74.964 4.349) rotate(13.838)" fill="#ff3200" font-size="1" font-family="SegoeUI, Segoe UI"><tspan x="0" y="0">C</tspan></text>
        <text id="H-2" data-name="H" transform="translate(77.342 4.993) rotate(29.997)" fill="#ff3200" font-size="1" font-family="SegoeUI, Segoe UI"><tspan x="0" y="0">H</tspan></text>
        <text id="E-4" data-name="E" transform="translate(79.448 6.283) rotate(45.108)" fill="#ff3200" font-size="1" font-family="SegoeUI, Segoe UI"><tspan x="0" y="0">E</tspan></text>
        <text id="E-5" data-name="E" transform="matrix(0.513, 0.858, -0.858, 0.513, 80.907, 7.833)" fill="#ff3200" font-size="1" font-family="SegoeUI, Segoe UI"><tspan x="0" y="0">E</tspan></text>
        <text id="S-4" data-name="S" transform="translate(81.962 9.662) rotate(73.438)" fill="#ff3200" font-size="1" font-family="SegoeUI, Segoe UI"><tspan x="0" y="0">S</tspan></text>
        <text id="E-6" data-name="E" transform="translate(82.569 11.885) rotate(88.062)" fill="#ff3200" font-size="1" font-family="SegoeUI, Segoe UI"><tspan x="0" y="0">E</tspan></text>
        <path id="Path_35116" data-name="Path 35116" d="M702.3,279.236a5.464,5.464,0,1,1-5.464-5.464,5.463,5.463,0,0,1,5.464,5.464" transform="translate(-622.946 -266.18)" fill="#ff3200"/>
        <path id="Path_35117" data-name="Path 35117" d="M709.847,312.371a.988.988,0,0,1-1.309-.5,1.5,1.5,0,0,0-.5-.628,3.755,3.755,0,0,1-2.755-.066,3.749,3.749,0,0,1-2.029-2.087,3.58,3.58,0,0,1-.122-.368.111.111,0,0,1,.107-.14h0a.111.111,0,0,1,.1.077,3.335,3.335,0,0,0,.13.339,3.578,3.578,0,0,0,3.272,2.136,3.467,3.467,0,0,0,.831-.1l.111-.029.006,0,.1-.03.127-.042.109-.04h0c.037-.014.073-.029.109-.044l.085-.037.051-.024.08-.04c.03-.014.06-.031.09-.047.046-.025.092-.051.137-.078l.079-.049.021-.014a2.27,2.27,0,0,1,.236.215,2.5,2.5,0,0,1,.472.711.057.057,0,0,0,.052.034.052.052,0,0,0,.023-.005.056.056,0,0,0,.028-.075,2.594,2.594,0,0,0-.484-.732,2.368,2.368,0,0,0-.228-.212l.081-.058q.085-.062.166-.13l.04-.034c.029-.024.058-.05.086-.076l.076-.071a3.38,3.38,0,0,0,.248-.265,3.576,3.576,0,0,0,.669-1.2.11.11,0,0,1,.211.063,3.733,3.733,0,0,1-.122.368,3.785,3.785,0,0,1-.557.968,3.554,3.554,0,0,1,.666,1,.99.99,0,0,1-.5,1.309" transform="translate(-632.856 -295.528)" fill="#efd521"/>
        <path id="Path_35118" data-name="Path 35118" d="M732.089,293.022c0,.6-.265,1.08-.591,1.08s-.592-.483-.592-1.08.265-1.08.592-1.08.591.483.591,1.08" transform="translate(-656.278 -281.498)" fill="#efd900"/>
        <path id="Path_35119" data-name="Path 35119" d="M715.1,293.022c0,.6-.265,1.08-.591,1.08s-.591-.483-.591-1.08.265-1.08.591-1.08.591.483.591,1.08" transform="translate(-641.957 -281.498)" fill="#efd900"/>
        <path id="Path_35120" data-name="Path 35120" d="M732.089,293.022c0,.6-.265,1.08-.591,1.08s-.592-.483-.592-1.08.265-1.08.592-1.08.591.483.591,1.08" transform="translate(-656.278 -281.498)" fill="#efd521"/>
        <path id="Path_35121" data-name="Path 35121" d="M715.1,293.022c0,.6-.265,1.08-.591,1.08s-.591-.483-.591-1.08.265-1.08.591-1.08.591.483.591,1.08" transform="translate(-641.957 -281.498)" fill="#efd521"/>
        <path id="Path_35122" data-name="Path 35122" d="M723.727,731.913a10.047,10.047,0,1,1-10.048-10.048,10.048,10.048,0,0,1,10.048,10.048" transform="translate(-616.025 -718.219)" fill="#044aaf"/>
        <text id="_3" data-name="“" transform="matrix(0.953, -0.304, 0.304, 0.953, 94.608, 6.072)" fill="#ff0045" font-size="1" font-family="SegoeUI, Segoe UI"><tspan x="0" y="0">“</tspan></text>
        <text id="F" transform="translate(95.726 5.735) rotate(-9.182)" fill="#ff0045" font-size="1" font-family="SegoeUI, Segoe UI"><tspan x="0" y="0">F</tspan></text>
        <text id="I" transform="translate(96.969 5.543) rotate(-2.541)" fill="#ff0045" font-size="1" font-family="SegoeUI, Segoe UI"><tspan x="0" y="0">I</tspan></text>
        <text id="R" transform="translate(97.602 5.498) rotate(4.713)" fill="#ff0045" font-size="1" font-family="SegoeUI, Segoe UI"><tspan x="0" y="0">R</tspan></text>
        <text id="S-5" data-name="S" transform="matrix(0.968, 0.252, -0.252, 0.968, 99.043, 5.596)" fill="#ff0045" font-size="1" font-family="SegoeUI, Segoe UI"><tspan x="0" y="0">S</tspan></text>
        <text id="T" transform="matrix(0.912, 0.409, -0.409, 0.912, 100.376, 5.956)" fill="#ff0045" font-size="1" font-family="SegoeUI, Segoe UI"><tspan x="0" y="0">T</tspan></text>
        <text id="_4" data-name=" " transform="matrix(0.861, 0.509, -0.509, 0.861, 101.435, 6.775)" fill="#ff0045" font-size="1" font-family="SegoeUI, Segoe UI"><tspan x="0" y="0"> </tspan></text>
        <text id="W" transform="translate(102.042 6.725) rotate(39.79)" fill="#ff0045" font-size="1" font-family="SegoeUI, Segoe UI"><tspan x="0" y="0">W</tspan></text>
        <text id="E-7" data-name="E" transform="matrix(0.621, 0.783, -0.783, 0.621, 103.676, 8.118)" fill="#ff0045" font-size="1" font-family="SegoeUI, Segoe UI"><tspan x="0" y="0">E</tspan></text>
        <text id="_5" data-name=" " transform="translate(104.197 9.276) rotate(57.681)" fill="#ff0045" font-size="1" font-family="SegoeUI, Segoe UI"><tspan x="0" y="0"> </tspan></text>
        <text id="E-8" data-name="E" transform="translate(104.721 9.509) rotate(63.791)" fill="#ff0045" font-size="1" font-family="SegoeUI, Segoe UI"><tspan x="0" y="0">E</tspan></text>
        <text id="A-3" data-name="A" transform="matrix(0.279, 0.96, -0.96, 0.279, 105.275, 10.646)" fill="#ff0045" font-size="1" font-family="SegoeUI, Segoe UI"><tspan x="0" y="0">A</tspan></text>
        <text id="T-2" data-name="T" transform="translate(105.687 12.04) rotate(83.208)" fill="#ff0045" font-size="1" font-family="SegoeUI, Segoe UI"><tspan x="0" y="0">T</tspan></text>
        <text id="_6" data-name="," transform="translate(105.819 13.248) rotate(89.071)" fill="#ff0045" font-size="1" font-family="SegoeUI, Segoe UI"><tspan x="0" y="0">,</tspan></text>
        <text id="_7" data-name=" " transform="translate(105.526 13.911) rotate(93.358)" fill="#ff0045" font-size="1" font-family="SegoeUI, Segoe UI"><tspan x="0" y="0"> </tspan></text>
        <text id="T-3" data-name="T" transform="matrix(-0.17, 0.985, -0.985, -0.17, 105.81, 14.419)" fill="#ff0045" font-size="1" font-family="SegoeUI, Segoe UI"><tspan x="0" y="0">T</tspan></text>
        <text id="H-3" data-name="H" transform="translate(105.602 15.748) rotate(109.756)" fill="#ff0045" font-size="1" font-family="SegoeUI, Segoe UI"><tspan x="0" y="0">H</tspan></text>
        <text id="E-9" data-name="E" transform="translate(105.077 17.149) rotate(119.466)" fill="#ff0045" font-size="1" font-family="SegoeUI, Segoe UI"><tspan x="0" y="0">E</tspan></text>
        <text id="N" transform="translate(104.495 18.252) rotate(129.189)" fill="#ff0045" font-size="1" font-family="SegoeUI, Segoe UI"><tspan x="0" y="0">N</tspan></text>
        <text id="_8" data-name=" " transform="translate(103.28 19.23) rotate(136.325)" fill="#ff0045" font-size="1" font-family="SegoeUI, Segoe UI"><tspan x="0" y="0"> </tspan></text>
        <text id="W-2" data-name="W" transform="translate(103.182 19.825) rotate(145.482)" fill="#ff0045" font-size="1" font-family="SegoeUI, Segoe UI"><tspan x="0" y="0">W</tspan></text>
        <text id="E-10" data-name="E" transform="matrix(-0.923, 0.385, -0.385, -0.923, 101.379, 21.001)" fill="#ff0045" font-size="1" font-family="SegoeUI, Segoe UI"><tspan x="0" y="0">E</tspan></text>
        <text id="_9" data-name=" " transform="translate(100.131 21.184) rotate(163.524)" fill="#ff0045" font-size="1" font-family="SegoeUI, Segoe UI"><tspan x="0" y="0"> </tspan></text>
        <text id="D" transform="translate(99.766 21.631) rotate(170.504)" fill="#ff0045" font-size="1" font-family="SegoeUI, Segoe UI"><tspan x="0" y="0">D</tspan></text>
        <text id="O" transform="translate(98.283 21.888) rotate(-179.004)" fill="#ff0045" font-size="1" font-family="SegoeUI, Segoe UI"><tspan x="0" y="0">O</tspan></text>
        <text id="_10" data-name=" " transform="translate(96.788 21.535) rotate(-171.943)" fill="#ff0045" font-size="1" font-family="SegoeUI, Segoe UI"><tspan x="0" y="0"> </tspan></text>
        <text id="E-11" data-name="E" transform="matrix(-0.97, -0.245, 0.245, -0.97, 96.263, 21.775)" fill="#ff0045" font-size="1" font-family="SegoeUI, Segoe UI"><tspan x="0" y="0">E</tspan></text>
        <text id="V" transform="translate(95.051 21.487) rotate(-156.065)" fill="#ff0045" font-size="1" font-family="SegoeUI, Segoe UI"><tspan x="0" y="0">V</tspan></text>
        <text id="E-12" data-name="E" transform="translate(93.65 20.838) rotate(-146.343)" fill="#ff0045" font-size="1" font-family="SegoeUI, Segoe UI"><tspan x="0" y="0">E</tspan></text>
        <text id="R-2" data-name="R" transform="matrix(-0.731, -0.682, 0.682, -0.731, 92.617, 20.181)" fill="#ff0045" font-size="1" font-family="SegoeUI, Segoe UI"><tspan x="0" y="0">R</tspan></text>
        <text id="Y-3" data-name="Y" transform="translate(91.602 19.227) rotate(-127.392)" fill="#ff0045" font-size="1" font-family="SegoeUI, Segoe UI"><tspan x="0" y="0">Y</tspan></text>
        <text id="T-4" data-name="T" transform="matrix(-0.464, -0.886, 0.886, -0.464, 90.735, 18.082)" fill="#ff0045" font-size="1" font-family="SegoeUI, Segoe UI"><tspan x="0" y="0">T</tspan></text>
        <text id="H-4" data-name="H" transform="matrix(-0.303, -0.953, 0.953, -0.303, 90.084, 16.888)" fill="#ff0045" font-size="1" font-family="SegoeUI, Segoe UI"><tspan x="0" y="0">H</tspan></text>
        <text id="I-2" data-name="I" transform="translate(89.657 15.451) rotate(-100.038)" fill="#ff0045" font-size="1" font-family="SegoeUI, Segoe UI"><tspan x="0" y="0">I</tspan></text>
        <text id="N-2" data-name="N" transform="translate(89.511 14.817) rotate(-92.358)" fill="#ff0045" font-size="1" font-family="SegoeUI, Segoe UI"><tspan x="0" y="0">N</tspan></text>
        <text id="G" transform="translate(89.454 13.259) rotate(-81.763)" fill="#ff0045" font-size="1" font-family="SegoeUI, Segoe UI"><tspan x="0" y="0">G</tspan></text>
        <text id="_11" data-name=" " transform="translate(89.979 11.857) rotate(-74.768)" fill="#ff0045" font-size="1" font-family="SegoeUI, Segoe UI"><tspan x="0" y="0"> </tspan></text>
        <text id="E-13" data-name="E" transform="translate(89.829 11.293) rotate(-68.567)" fill="#ff0045" font-size="1" font-family="SegoeUI, Segoe UI"><tspan x="0" y="0">E</tspan></text>
        <text id="L" transform="matrix(0.501, -0.865, 0.865, 0.501, 90.281, 10.133)" fill="#ff0045" font-size="1" font-family="SegoeUI, Segoe UI"><tspan x="0" y="0">L</tspan></text>
        <text id="S-6" data-name="S" transform="translate(90.862 9.072) rotate(-50.898)" fill="#ff0045" font-size="1" font-family="SegoeUI, Segoe UI"><tspan x="0" y="0">S</tspan></text>
        <text id="E-14" data-name="E" transform="translate(91.741 8.017) rotate(-41.801)" fill="#ff0045" font-size="1" font-family="SegoeUI, Segoe UI"><tspan x="0" y="0">E</tspan></text>
        <text id="_." data-name="." transform="translate(92.672 7.211) rotate(-35.077)" fill="#ff0045" font-size="1" font-family="SegoeUI, Segoe UI"><tspan x="0" y="0">.</tspan></text>
        <text id="_12" data-name="”" transform="translate(92.916 7.014) rotate(-31.199)" fill="#ff0045" font-size="1" font-family="SegoeUI, Segoe UI"><tspan x="0" y="0">”</tspan></text>
        <path id="Path_35123" data-name="Path 35123" d="M743.766,756.537a5.464,5.464,0,1,1-5.464-5.464,5.463,5.463,0,0,1,5.464,5.464" transform="translate(-640.648 -742.844)" fill="#ff0045"/>
        <path id="Path_35124" data-name="Path 35124" d="M751.317,789.673a.989.989,0,0,1-1.309-.5,1.5,1.5,0,0,0-.5-.628,3.755,3.755,0,0,1-2.755-.067,3.746,3.746,0,0,1-2.029-2.087,3.566,3.566,0,0,1-.122-.368.111.111,0,0,1,.107-.14h0a.111.111,0,0,1,.1.077,3.321,3.321,0,0,0,.13.339,3.578,3.578,0,0,0,3.272,2.136,3.45,3.45,0,0,0,.831-.1l.112-.029h.006l.1-.03c.042-.013.085-.027.127-.042l.109-.04h0c.037-.014.073-.029.109-.044l.085-.037.051-.024.081-.04c.03-.015.06-.031.09-.047.046-.025.092-.051.137-.077l.079-.049.021-.014a2.283,2.283,0,0,1,.236.214,2.507,2.507,0,0,1,.472.711.057.057,0,0,0,.052.034.054.054,0,0,0,.023-.005.056.056,0,0,0,.028-.075,2.6,2.6,0,0,0-.484-.732,2.4,2.4,0,0,0-.229-.212l.081-.058c.057-.041.112-.085.166-.13l.04-.034c.029-.025.058-.05.086-.076l.076-.071a3.262,3.262,0,0,0,.248-.265,3.57,3.57,0,0,0,.669-1.2.11.11,0,0,1,.211.063,3.727,3.727,0,0,1-.122.368,3.787,3.787,0,0,1-.557.968,3.56,3.56,0,0,1,.666,1,.99.99,0,0,1-.5,1.309" transform="translate(-650.558 -772.192)" fill="#044aaf"/>
        <path id="Path_35125" data-name="Path 35125" d="M773.56,770.323c0,.6-.265,1.08-.591,1.08s-.591-.483-.591-1.08.265-1.08.591-1.08.591.483.591,1.08" transform="translate(-673.981 -758.161)" fill="#044aaf"/>
        <path id="Path_35126" data-name="Path 35126" d="M756.572,770.323c0,.6-.265,1.08-.591,1.08s-.592-.483-.592-1.08.265-1.08.592-1.08.591.483.591,1.08" transform="translate(-659.659 -758.161)" fill="#044aaf"/>
        <path id="Path_35127" data-name="Path 35127" d="M801.126,401.385a11.658,11.658,0,1,0-11.658,11.658,11.658,11.658,0,0,0,11.658-11.658" transform="translate(-695.821 -363.937)" fill="#00c6c0"/>
        <path id="Path_35128" data-name="Path 35128" d="M815.643,419.375a8.309,8.309,0,0,1-8.309-8.309,8.309,8.309,0,0,1-8.309,8.309,8.309,8.309,0,0,1,8.309,8.309,8.309,8.309,0,0,1,8.309-8.309" transform="translate(-713.706 -381.927)" fill="#ff3200"/>
        <path id="Path_35129" data-name="Path 35129" d="M1338.955,681.507a11.658,11.658,0,1,0-5.43,15.567,11.658,11.658,0,0,0,5.43-15.567" transform="translate(-1135.815 -651.065)" fill="#9c00d7"/>
        <path id="Path_35130" data-name="Path 35130" d="M1358.271,705.459a8.309,8.309,0,0,1-11.1-3.87,8.309,8.309,0,0,1-3.87,11.1,8.309,8.309,0,0,1,11.095,3.87,8.309,8.309,0,0,1,3.87-11.095" transform="translate(-1158.165 -673.553)" fill="#ff3200"/>
        <path id="Path_35131" data-name="Path 35131" d="M509.1,399.063a18.777,18.777,0,1,1-18.777-18.777A18.777,18.777,0,0,1,509.1,399.063" transform="translate(-437.625 -355.977)" fill="#ff0045"/>
        <path id="Path_35132" data-name="Path 35132" d="M534.6,430.39a12.945,12.945,0,1,1-12.945-12.945A12.945,12.945,0,0,1,534.6,430.39" transform="translate(-468.954 -387.305)"/>
        <path id="Path_35133" data-name="Path 35133" d="M535.354,454.48c-.052,0-.1,0-.15,0a10.394,10.394,0,0,1,.01-20.785c.077,0,.189,0,.291,0a10.393,10.393,0,0,1-.013,20.785c-.037,0-.089,0-.138,0m0-.571c.036,0,.079,0,.118,0a9.823,9.823,0,0,0,.013-19.645c-.051,0-.09,0-.131,0s-.079,0-.117,0a9.823,9.823,0,0,0-.016,19.645c.054,0,.093,0,.133,0" transform="translate(-482.652 -400.999)" fill="#ff0045"/>
        <path id="Path_35134" data-name="Path 35134" d="M557.208,454.492l-.06-.028c-.051-.024-.105-.051-.157-.082A11.633,11.633,0,0,1,557,433.808c.04-.023.095-.051.146-.075l.06-.028h.066a10.394,10.394,0,0,1,0,20.786Zm.126-20.215-.054.029a11.062,11.062,0,0,0-.011,19.577l.065.035a9.823,9.823,0,0,0,0-19.642" transform="translate(-504.434 -401.013)" fill="#ff0045"/>
        <path id="Path_35135" data-name="Path 35135" d="M535.292,454.491h-.072a10.394,10.394,0,0,1-.006-20.786h.073l.2.1a11.632,11.632,0,0,1,0,20.58Zm-.14-20.214a9.823,9.823,0,0,0,0,19.642l.068-.035a11.061,11.061,0,0,0,0-19.571Z" transform="translate(-482.652 -401.013)" fill="#ff0045"/>
        <rect id="Rectangle_3543" data-name="Rectangle 3543" width="20.218" height="0.571" transform="translate(42.592 42.801)" fill="#ff0045"/>
        <rect id="Rectangle_3544" data-name="Rectangle 3544" width="0.571" height="20.218" transform="translate(52.416 32.977)" fill="#ff0045"/>
        <path id="Path_35136" data-name="Path 35136" d="M549.434,531.424c-.052,0-.1,0-.15,0a10.3,10.3,0,0,1-7.42-3.266l-.205-.218.227-.194a11.6,11.6,0,0,1,15.1,0l.227.195-.205.217a10.308,10.308,0,0,1-7.432,3.266c-.037,0-.089,0-.138,0m0-.571c.037,0,.079,0,.118,0a9.747,9.747,0,0,0,6.826-2.87,11.03,11.03,0,0,0-13.887,0,9.734,9.734,0,0,0,6.81,2.869c.054,0,.093,0,.133,0" transform="translate(-496.732 -477.943)" fill="#ff0045"/>
        <path id="Path_35137" data-name="Path 35137" d="M549.435,440.157a11.583,11.583,0,0,1-7.549-2.784l-.227-.195.205-.218a10.3,10.3,0,0,1,7.43-3.269c.077,0,.189,0,.291,0a10.294,10.294,0,0,1,7.42,3.268l.205.218-.228.194a11.574,11.574,0,0,1-7.548,2.784m-6.944-3.023a11.036,11.036,0,0,0,13.887,0,9.732,9.732,0,0,0-6.813-2.871c-.051,0-.09,0-.13,0s-.079,0-.117,0a9.742,9.742,0,0,0-6.826,2.872" transform="translate(-496.733 -400.999)" fill="#ff0045"/>
        <text id="_13" data-name="“" transform="translate(39.042 34.671) rotate(-56.462)" fill="#efd521" font-size="1" font-family="SegoeUI-Light, Segoe UI" font-weight="300"><tspan x="0" y="0">“</tspan></text>
        <text id="F-2" data-name="F" transform="translate(39.864 33.935) rotate(-51.269)" fill="#efd521" font-size="1" font-family="SegoeUI-Light, Segoe UI" font-weight="300"><tspan x="0" y="0">F</tspan></text>
        <text id="O-2" data-name="O" transform="matrix(0.72, -0.694, 0.694, 0.72, 40.739, 32.327)" fill="#efd521" font-size="1" font-family="SegoeUI-Light, Segoe UI" font-weight="300"><tspan x="0" y="0">O</tspan></text>
        <text id="O-3" data-name="O" transform="matrix(0.814, -0.581, 0.581, 0.814, 42.495, 30.672)" fill="#efd521" font-size="1" font-family="SegoeUI-Light, Segoe UI" font-weight="300"><tspan x="0" y="0">O</tspan></text>
        <text id="D-2" data-name="D" transform="matrix(0.889, -0.457, 0.457, 0.889, 44.46, 29.259)" fill="#efd521" font-size="1" font-family="SegoeUI-Light, Segoe UI" font-weight="300"><tspan x="0" y="0">D</tspan></text>
        <text id="_14" data-name=" " transform="translate(46.626 28.531) rotate(-21.746)" fill="#efd521" font-size="1" font-family="SegoeUI-Light, Segoe UI" font-weight="300"><tspan x="0" y="0"> </tspan></text>
        <text id="I-3" data-name="I" transform="translate(47.325 28.259) rotate(-18.944)" fill="#efd521" font-size="1" font-family="SegoeUI-Light, Segoe UI" font-weight="300"><tspan x="0" y="0">I</tspan></text>
        <text id="S-7" data-name="S" transform="translate(47.989 27.686) rotate(-13.868)" fill="#efd521" font-size="1" font-family="SegoeUI-Light, Segoe UI" font-weight="300"><tspan x="0" y="0">S</tspan></text>
        <text id="_15" data-name=" " transform="matrix(0.988, -0.154, 0.154, 0.988, 50.01, 27.526)" fill="#efd521" font-size="1" font-family="SegoeUI-Light, Segoe UI" font-weight="300"><tspan x="0" y="0"> </tspan></text>
        <text id="O-4" data-name="O" transform="translate(50.743 27.074) rotate(-3.221)" fill="#efd521" font-size="1" font-family="SegoeUI-Light, Segoe UI" font-weight="300"><tspan x="0" y="0">O</tspan></text>
        <text id="U" transform="translate(53.161 26.958) rotate(5.052)" fill="#efd521" font-size="1" font-family="SegoeUI-Light, Segoe UI" font-weight="300"><tspan x="0" y="0">U</tspan></text>
        <text id="R-3" data-name="R" transform="translate(55.423 27.157) rotate(12.696)" fill="#efd521" font-size="1" font-family="SegoeUI-Light, Segoe UI" font-weight="300"><tspan x="0" y="0">R</tspan></text>
        <text id="_16" data-name=" " transform="translate(57.332 27.925) rotate(17.706)" fill="#efd521" font-size="1" font-family="SegoeUI-Light, Segoe UI" font-weight="300"><tspan x="0" y="0"> </tspan></text>
        <text id="C-3" data-name="C" transform="translate(58.19 27.846) rotate(23.179)" fill="#efd521" font-size="1" font-family="SegoeUI-Light, Segoe UI" font-weight="300"><tspan x="0" y="0">C</tspan></text>
        <text id="O-5" data-name="O" transform="translate(60.352 28.768) rotate(31.641)" fill="#efd521" font-size="1" font-family="SegoeUI-Light, Segoe UI" font-weight="300"><tspan x="0" y="0">O</tspan></text>
        <text id="M" transform="matrix(0.757, 0.654, -0.654, 0.757, 62.405, 30.037)" fill="#efd521" font-size="1" font-family="SegoeUI-Light, Segoe UI" font-weight="300"><tspan x="0" y="0">M</tspan></text>
        <text id="M-2" data-name="M" transform="translate(64.49 31.832) rotate(50.526)" fill="#efd521" font-size="1" font-family="SegoeUI-Light, Segoe UI" font-weight="300"><tspan x="0" y="0">M</tspan></text>
        <text id="O-6" data-name="O" transform="translate(66.207 33.953) rotate(59.496)" fill="#efd521" font-size="1" font-family="SegoeUI-Light, Segoe UI" font-weight="300"><tspan x="0" y="0">O</tspan></text>
        <text id="N-3" data-name="N" transform="translate(67.432 36.054) rotate(67.898)" fill="#efd521" font-size="1" font-family="SegoeUI-Light, Segoe UI" font-weight="300"><tspan x="0" y="0">N</tspan></text>
        <text id="_17" data-name=" " transform="translate(67.984 38.26) rotate(73.359)" fill="#efd521" font-size="1" font-family="SegoeUI-Light, Segoe UI" font-weight="300"><tspan x="0" y="0"> </tspan></text>
        <text id="G-2" data-name="G" transform="translate(68.509 38.939) rotate(78.976)" fill="#efd521" font-size="1" font-family="SegoeUI-Light, Segoe UI" font-weight="300"><tspan x="0" y="0">G</tspan></text>
        <text id="R-4" data-name="R" transform="translate(68.944 41.265) rotate(86.864)" fill="#efd521" font-size="1" font-family="SegoeUI-Light, Segoe UI" font-weight="300"><tspan x="0" y="0">R</tspan></text>
        <text id="O-7" data-name="O" transform="translate(69.081 43.344) rotate(94.795)" fill="#efd521" font-size="1" font-family="SegoeUI-Light, Segoe UI" font-weight="300"><tspan x="0" y="0">O</tspan></text>
        <text id="U-2" data-name="U" transform="matrix(-0.226, 0.974, -0.974, -0.226, 68.86, 45.74)" fill="#efd521" font-size="1" font-family="SegoeUI-Light, Segoe UI" font-weight="300"><tspan x="0" y="0">U</tspan></text>
        <text id="N-4" data-name="N" transform="translate(68.354 47.971) rotate(111.106)" fill="#efd521" font-size="1" font-family="SegoeUI-Light, Segoe UI" font-weight="300"><tspan x="0" y="0">N</tspan></text>
        <text id="D-3" data-name="D" transform="matrix(-0.49, 0.872, -0.872, -0.49, 67.507, 50.124)" fill="#efd521" font-size="1" font-family="SegoeUI-Light, Segoe UI" font-weight="300"><tspan x="0" y="0">D</tspan></text>
        <text id="_18" data-name="," transform="translate(66.158 51.87) rotate(124.286)" fill="#efd521" font-size="1" font-family="SegoeUI-Light, Segoe UI" font-weight="300"><tspan x="0" y="0">,</tspan></text>
        <text id="_19" data-name=" " transform="translate(65.785 52.413) rotate(126.858)" fill="#efd521" font-size="1" font-family="SegoeUI-Light, Segoe UI" font-weight="300"><tspan x="0" y="0"> </tspan></text>
        <text id="A-4" data-name="A" transform="translate(65.367 53.028) rotate(131.994)" fill="#efd521" font-size="1" font-family="SegoeUI-Light, Segoe UI" font-weight="300"><tspan x="0" y="0">A</tspan></text>
        <text id="_20" data-name=" " transform="translate(63.935 54.575) rotate(137.174)" fill="#efd521" font-size="1" font-family="SegoeUI-Light, Segoe UI" font-weight="300"><tspan x="0" y="0"> </tspan></text>
        <text id="U-3" data-name="U" transform="translate(63.583 55.344) rotate(142.45)" fill="#efd521" font-size="1" font-family="SegoeUI-Light, Segoe UI" font-weight="300"><tspan x="0" y="0">U</tspan></text>
        <text id="N-5" data-name="N" transform="translate(61.786 56.73) rotate(150.491)" fill="#efd521" font-size="1" font-family="SegoeUI-Light, Segoe UI" font-weight="300"><tspan x="0" y="0">N</tspan></text>
        <text id="I-4" data-name="I" transform="matrix(-0.914, 0.406, -0.406, -0.914, 59.638, 57.556)" fill="#efd521" font-size="1" font-family="SegoeUI-Light, Segoe UI" font-weight="300"><tspan x="0" y="0">I</tspan></text>
        <text id="V-2" data-name="V" transform="translate(59 58.174) rotate(161.235)" fill="#efd521" font-size="1" font-family="SegoeUI-Light, Segoe UI" font-weight="300"><tspan x="0" y="0">V</tspan></text>
        <text id="E-15" data-name="E" transform="translate(56.966 58.564) rotate(168.366)" fill="#efd521" font-size="1" font-family="SegoeUI-Light, Segoe UI" font-weight="300"><tspan x="0" y="0">E</tspan></text>
        <text id="R-5" data-name="R" transform="matrix(-0.997, 0.08, -0.08, -0.997, 55.159, 59.23)" fill="#efd521" font-size="1" font-family="SegoeUI-Light, Segoe UI" font-weight="300"><tspan x="0" y="0">R</tspan></text>
        <text id="S-8" data-name="S" transform="translate(53.088 59.381) rotate(-177.342)" fill="#efd521" font-size="1" font-family="SegoeUI-Light, Segoe UI" font-weight="300"><tspan x="0" y="0">S</tspan></text>
        <text id="A-5" data-name="A" transform="matrix(-0.985, -0.174, 0.174, -0.985, 51.084, 58.997)" fill="#efd521" font-size="1" font-family="SegoeUI-Light, Segoe UI" font-weight="300"><tspan x="0" y="0">A</tspan></text>
        <text id="L-2" data-name="L" transform="translate(48.943 58.909) rotate(-163.194)" fill="#efd521" font-size="1" font-family="SegoeUI-Light, Segoe UI" font-weight="300"><tspan x="0" y="0">L</tspan></text>
        <text id="_21" data-name=" " transform="translate(47.424 58.118) rotate(-158.808)" fill="#efd521" font-size="1" font-family="SegoeUI-Light, Segoe UI" font-weight="300"><tspan x="0" y="0"> </tspan></text>
        <text id="E-16" data-name="E" transform="translate(46.706 57.863) rotate(-154.087)" fill="#efd521" font-size="1" font-family="SegoeUI-Light, Segoe UI" font-weight="300"><tspan x="0" y="0">E</tspan></text>
        <text id="X" transform="matrix(-0.839, -0.543, 0.543, -0.839, 44.874, 57.311)" fill="#efd521" font-size="1" font-family="SegoeUI-Light, Segoe UI" font-weight="300"><tspan x="0" y="0">X</tspan></text>
        <text id="P" transform="translate(43.318 55.955) rotate(-139.84)" fill="#efd521" font-size="1" font-family="SegoeUI-Light, Segoe UI" font-weight="300"><tspan x="0" y="0">P</tspan></text>
        <text id="E-17" data-name="E" transform="matrix(-0.681, -0.732, 0.732, -0.681, 41.846, 54.697)" fill="#efd521" font-size="1" font-family="SegoeUI-Light, Segoe UI" font-weight="300"><tspan x="0" y="0">E</tspan></text>
        <text id="R-6" data-name="R" transform="translate(40.322 53.496) rotate(-125.69)" fill="#efd521" font-size="1" font-family="SegoeUI-Light, Segoe UI" font-weight="300"><tspan x="0" y="0">R</tspan></text>
        <text id="I-5" data-name="I" transform="translate(39.404 51.666) rotate(-121.002)" fill="#efd521" font-size="1" font-family="SegoeUI-Light, Segoe UI" font-weight="300"><tspan x="0" y="0">I</tspan></text>
        <text id="E-18" data-name="E" transform="translate(38.978 51.002) rotate(-116.222)" fill="#efd521" font-size="1" font-family="SegoeUI-Light, Segoe UI" font-weight="300"><tspan x="0" y="0">E</tspan></text>
        <text id="N-6" data-name="N" transform="matrix(-0.322, -0.947, 0.947, -0.322, 37.859, 49.442)" fill="#efd521" font-size="1" font-family="SegoeUI-Light, Segoe UI" font-weight="300"><tspan x="0" y="0">N</tspan></text>
        <text id="C-4" data-name="C" transform="translate(37.122 47.246) rotate(-100.455)" fill="#efd521" font-size="1" font-family="SegoeUI-Light, Segoe UI" font-weight="300"><tspan x="0" y="0">C</tspan></text>
        <text id="E-19" data-name="E" transform="translate(36.998 44.919) rotate(-92.962)" fill="#efd521" font-size="1" font-family="SegoeUI-Light, Segoe UI" font-weight="300"><tspan x="0" y="0">E</tspan></text>
        <text id="_.-2" data-name="." transform="matrix(0.028, -1, 1, 0.028, 36.938, 43.088)" fill="#efd521" font-size="1" font-family="SegoeUI-Light, Segoe UI" font-weight="300"><tspan x="0" y="0">.</tspan></text>
        <text id="_22" data-name="”" transform="translate(36.649 42.651) rotate(-86.188)" fill="#efd521" font-size="1" font-family="SegoeUI-Light, Segoe UI" font-weight="300"><tspan x="0" y="0">”</tspan></text>
        <path id="Path_35138" data-name="Path 35138" d="M486.637,460.9h0a.078.078,0,0,0,.09-.033,2.464,2.464,0,0,1,2.228-1.162.078.078,0,0,0,.045-.144,2.465,2.465,0,0,1-1.162-2.228.078.078,0,0,0-.144-.045,2.464,2.464,0,0,1-2.228,1.162.078.078,0,0,0-.045.145,2.464,2.464,0,0,1,1.162,2.227.078.078,0,0,0,.055.079" transform="translate(-449.288 -420.863)" fill="#efd521"/>
        <path id="Path_35139" data-name="Path 35139" d="M1246.235,279.008a13.882,13.882,0,0,1-6.238-1.352,7.748,7.748,0,0,1-1.812-1.25c-.172.054-.346.1-.521.143h-.007c-.249.054-.715.146-1.248.246a14.612,14.612,0,0,1-2.4.355l-.079,0c-1.131-.07-1.2-1.144-1.224-1.548l-.03-.473.32-.06a2,2,0,0,1-.337-1.238,2.135,2.135,0,0,1,1.314-2.075,10.914,10.914,0,0,1,2.088-.55c.254-.048.49-.089.708-.124.058-.316.163-.682.283-1.1a11.459,11.459,0,0,0,.588-4.56l-.087-.772.753.191a14.191,14.191,0,0,1,4.32,2.175,25.862,25.862,0,0,1,.463-2.6,9.718,9.718,0,0,0-.021-5.742l-.371-1.137,1.1.478a16.975,16.975,0,0,1,5.5,3.313,7.219,7.219,0,0,1,1.963,3.836,9.838,9.838,0,0,1,3.553-2.494l.81-.322-.078.869a9.71,9.71,0,0,0,.166,3.3c.15.348.3.7.449,1.057l1.881-.353.286.392.284-.5,4.494-.845-2.969,4.162v1.815l-3.108.584a5.4,5.4,0,0,1-1.053,2.32,9.91,9.91,0,0,1-4.365,2.912,14.682,14.682,0,0,1-5.369.949" transform="translate(-1079.283 -252.491)" fill="#fff"/>
        <path id="Path_35140" data-name="Path 35140" d="M1280.694,275.56a17.231,17.231,0,0,0-1.27-3.622,10.779,10.779,0,0,1-.208-3.559,10.048,10.048,0,0,0-4.114,3.23c-.4-4.122-2.447-5.766-7.316-7.891,1.255,3.843-.327,5.748-.5,9.613a12.7,12.7,0,0,0-4.9-2.759c.3,2.625-.716,4.782-.891,5.9-.4,2.554.14,4.462,2.963,5.92a14.768,14.768,0,0,0,11.162.381c3.641-1.45,5.705-3.459,5.077-7.211" transform="translate(-1103.495 -257.703)" fill="#efd521"/>
        <path id="Path_35141" data-name="Path 35141" d="M1299.418,325.947a4.477,4.477,0,0,0-.386-2.16,15.825,15.825,0,0,0-3.928-4.84,7.313,7.313,0,0,1-2.1,4.422,2.614,2.614,0,0,0-1.9-1.73,1.562,1.562,0,0,1-.119,1.472c-.741,1.492-1.833,3.262-.743,4.818a4.194,4.194,0,0,0,2.236,1.445c1.821.548,4.121.471,5.448-.686a4.025,4.025,0,0,0,1.5-2.741" transform="translate(-1127.439 -304.265)" fill="#ff0045"/>
        <path id="Path_35142" data-name="Path 35142" d="M1237.663,349.748a1.708,1.708,0,0,1-1.187-.079,1.19,1.19,0,0,1-.4-1.072,1.605,1.605,0,0,1,1-1.586,10.557,10.557,0,0,1,1.969-.512q.505-.1.908-.153a6.542,6.542,0,0,1,1.3-.118.733.733,0,0,1,.536.242,1.356,1.356,0,0,1,.217.753l-2.414.454c0-.274-.194-.426-.514-.366-.359.068-.536.232-.536.489a.255.255,0,0,0,.188.244.587.587,0,0,0,.331.029l1.552-.292a1.669,1.669,0,0,1,1.187.085,1.179,1.179,0,0,1,.4,1.066,1.864,1.864,0,0,1-.3,1.089,1.431,1.431,0,0,1-.7.543,6.318,6.318,0,0,1-.77.23c-.194.042-.605.125-1.233.243a15.839,15.839,0,0,1-2.351.345c-.479-.03-.674-.319-.719-1.046l2.523-.474c0,.274.2.425.52.365.36-.068.536-.232.536-.489,0-.114-.074-.192-.223-.238a.683.683,0,0,0-.354-.025Z" transform="translate(-1082.166 -327.258)"/>
        <path id="Path_35143" data-name="Path 35143" d="M1279.609,342.322v1.415l-2.437.458v-4.326l4.566-.858c1.027-.193,1.587.221,1.587,1.157a1.714,1.714,0,0,1-1.587,1.754Zm1.25-1.736a.472.472,0,0,0-.177-.412.463.463,0,0,0-.383-.077l-.69.13v1.181l.69-.13a.666.666,0,0,0,.559-.693" transform="translate(-1116.812 -321.142)"/>
        <path id="Path_35144" data-name="Path 35144" d="M1318.523,338.825V334.5l2.437-.458v4.326Z" transform="translate(-1151.673 -316.99)"/>
        <path id="Path_35145" data-name="Path 35145" d="M1343.106,328.765l-2.489.468a1.95,1.95,0,0,0-.08-.6.378.378,0,0,0-.188-.216.535.535,0,0,0-.382-.06.747.747,0,0,0-.588.4,3.539,3.539,0,0,0-.126,1.211,3.152,3.152,0,0,0,.126,1.141.479.479,0,0,0,.588.232.694.694,0,0,0,.571-.484,2,2,0,0,0,.074-.636l2.494-.469a2.424,2.424,0,0,1-.268,1.14,2,2,0,0,1-1.09.8,12.957,12.957,0,0,1-1.786.433,12,12,0,0,1-1.781.237,1.188,1.188,0,0,1-1.187-.553,3.555,3.555,0,0,1-.177-1.376,4.137,4.137,0,0,1,.177-1.443,1.908,1.908,0,0,1,1.187-1,12.816,12.816,0,0,1,1.781-.432,11.969,11.969,0,0,1,1.786-.239,1.26,1.26,0,0,1,1.09.4,1.872,1.872,0,0,1,.268,1.04" transform="translate(-1167.095 -311.328)"/>
        <path id="Path_35146" data-name="Path 35146" d="M1376.441,321.77l-2.294-2.354,2.939-.552.577.788.57-1,2.939-.552-2.294,3.216v1.541l-2.437.458Z" transform="translate(-1198.567 -303.548)"/>
        <path id="Path_35147" data-name="Path 35147" d="M1003.949,412.594a1.442,1.442,0,0,1-.835,1.292,22.109,22.109,0,0,1-7.377,1.636c-.884.063-1.814.094-2.763.094-.724,0-1.471-.018-2.22-.055h-.042l-.062,0a.863.863,0,0,0-.577.282L986.3,419.97a1.133,1.133,0,0,1-.759.368l-.081,0a1.074,1.074,0,0,1-.181-.015,1.137,1.137,0,0,1-.859-.659l-.951-2.13L963.2,421.344v-2.237l-.458.086v-3.055l.439-.083.035-.4a2.7,2.7,0,0,1,.113-.6l.006-.02.278-.854-.471.088v-2.237l-.447.084v-3.056l.426-.08.037-.4a2.783,2.783,0,0,1,.135-.659,2.073,2.073,0,0,1,.526-.836,2.511,2.511,0,0,1,.885-.524,6.582,6.582,0,0,1,1.017-.271c.434-.082.915-.148,1.431-.2l.872-.087V407l2.159-.406.072-.038a2.218,2.218,0,0,1,.626-.213,3.4,3.4,0,0,1,.42-.053l1.514-.095.1-.051c.1-.053.211-.1.326-.15a7.855,7.855,0,0,1,2.632-.516c.1,0,.2,0,.3.01a2.5,2.5,0,0,1,.927.24l.041.022.395.208.277-.318a2.564,2.564,0,0,1,.572-.483,4.754,4.754,0,0,1,1.625-.534,17.131,17.131,0,0,1,1.99-.247l.5-.035v-1.19l3.651-.686V403.5l.624-.107a3.691,3.691,0,0,1,.64-.06,1.923,1.923,0,0,1,1.124.313,1.808,1.808,0,0,1,.722,1.563v4.2l.927-1.013a24.765,24.765,0,0,1,7.762-6.075,1.325,1.325,0,0,1,.447-.112c.034,0,.068,0,.1,0,.879,0,1.559.834,2.162,1.734a23,23,0,0,1,1.779,3.309,22.514,22.514,0,0,1,1.31,3.66,5.264,5.264,0,0,1,.2,1.68" transform="translate(-851.695 -374.461)" fill="#fff"/>
        <path id="Path_35148" data-name="Path 35148" d="M1003.949,412.594a1.442,1.442,0,0,1-.835,1.292,22.109,22.109,0,0,1-7.377,1.636c-.884.063-1.814.094-2.763.094-.724,0-1.471-.018-2.22-.055h-.042l-.062,0a.863.863,0,0,0-.577.282L986.3,419.97a1.133,1.133,0,0,1-.759.368l-.081,0a1.074,1.074,0,0,1-.181-.015,1.137,1.137,0,0,1-.859-.659l-.951-2.13L963.2,421.344v-2.237l-.458.086v-3.055l.439-.083.035-.4a2.7,2.7,0,0,1,.113-.6l.006-.02.278-.854-.471.088v-2.237l-.447.084v-3.056l.426-.08.037-.4a2.783,2.783,0,0,1,.135-.659,2.073,2.073,0,0,1,.526-.836,2.511,2.511,0,0,1,.885-.524,6.582,6.582,0,0,1,1.017-.271c.434-.082.915-.148,1.431-.2l.872-.087V407l2.159-.406.072-.038a2.218,2.218,0,0,1,.626-.213,3.4,3.4,0,0,1,.42-.053l1.514-.095.1-.051c.1-.053.211-.1.326-.15a7.855,7.855,0,0,1,2.632-.516c.1,0,.2,0,.3.01a2.5,2.5,0,0,1,.927.24l.041.022.395.208.277-.318a2.564,2.564,0,0,1,.572-.483,4.754,4.754,0,0,1,1.625-.534,17.131,17.131,0,0,1,1.99-.247l.5-.035v-1.19l3.651-.686V403.5l.624-.107a3.691,3.691,0,0,1,.64-.06,1.923,1.923,0,0,1,1.124.313,1.808,1.808,0,0,1,.722,1.563v4.2l.927-1.013a24.765,24.765,0,0,1,7.762-6.075,1.325,1.325,0,0,1,.447-.112c.034,0,.068,0,.1,0,.879,0,1.559.834,2.162,1.734a23,23,0,0,1,1.779,3.309,22.514,22.514,0,0,1,1.31,3.66,5.264,5.264,0,0,1,.2,1.68" transform="translate(-851.695 -374.461)" fill="#fff"/>
        <path id="Path_35149" data-name="Path 35149" d="M967.758,436.2v-1.44l.446-.084V434a2.413,2.413,0,0,1,.108-.779,1.286,1.286,0,0,1,.325-.521,1.728,1.728,0,0,1,.608-.351,5.664,5.664,0,0,1,.891-.237q.62-.117,1.363-.191v1.305a2.2,2.2,0,0,0-.431.042,1.782,1.782,0,0,0-.493.158.488.488,0,0,0-.212.205.88.88,0,0,0-.062.377v.273l1.2-.225v1.44l-1.2.225v2.237l-2.1.394v-2.237Z" transform="translate(-855.958 -399.505)"/>
        <path id="Path_35150" data-name="Path 35150" d="M996.29,438.73V434l1.917-.36v1.213a3.242,3.242,0,0,1,.358-1.076,1.171,1.171,0,0,1,.785-.471,2.659,2.659,0,0,1,.324-.041v2.218l-.127.024a2.619,2.619,0,0,0-.681.2.836.836,0,0,0-.289.255,1.012,1.012,0,0,0-.146.324,1.52,1.52,0,0,0-.062.427v1.625Z" transform="translate(-880.012 -400.643)"/>
        <path id="Path_35151" data-name="Path 35151" d="M1027.251,430.805l-3.45.648a.542.542,0,0,0,.143.351.625.625,0,0,0,.387.151,2.854,2.854,0,0,0,.761-.066,6.949,6.949,0,0,0,1.178-.325,5.359,5.359,0,0,0,.843-.386l-.2,1.235a10.028,10.028,0,0,1-1.082.507,6.856,6.856,0,0,1-1.066.281,5.9,5.9,0,0,1-1.413.121,1.621,1.621,0,0,1-.918-.3,1.513,1.513,0,0,1-.5-.744,3.409,3.409,0,0,1-.156-1.062,4.218,4.218,0,0,1,.177-1.246,1.957,1.957,0,0,1,.3-.589,2.385,2.385,0,0,1,.533-.514,2.577,2.577,0,0,1,.566-.307,6.172,6.172,0,0,1,1.174-.332,5.621,5.621,0,0,1,1.4-.116,1.693,1.693,0,0,1,.633.16,1.158,1.158,0,0,1,.414.313,1.247,1.247,0,0,1,.212.453,3.368,3.368,0,0,1,.1.875q0,.166-.008.371Zm-3.5-.417,1.933-.363a.56.56,0,0,0-.256-.51,1.153,1.153,0,0,0-.718-.031,1.336,1.336,0,0,0-.718.32.871.871,0,0,0-.24.584" transform="translate(-901.502 -396.288)"/>
        <path id="Path_35152" data-name="Path 35152" d="M1064.79,420.92v1.413q-1.082.111-1.355.162a2.152,2.152,0,0,0-.8.254.255.255,0,0,0-.1.218.221.221,0,0,0,.05.164.26.26,0,0,0,.185.046,5.457,5.457,0,0,0,.6-.081q.508-.084.628-.1a1.7,1.7,0,0,1,.448.006.611.611,0,0,1,.291.132.65.65,0,0,1,.185.3,1.921,1.921,0,0,1,.1.632,2.223,2.223,0,0,1-.127.755,1.4,1.4,0,0,1-.25.448,1.826,1.826,0,0,1-.416.355,2.248,2.248,0,0,1-.458.213,6.81,6.81,0,0,1-1.067.281q-.623.117-1.055.164-.316.033-1.028.055v-1.205l.751-.079q.381-.052.774-.126a2.134,2.134,0,0,0,.606-.177.282.282,0,0,0,.16-.251.194.194,0,0,0-.085-.188,1.007,1.007,0,0,0-.469.023,7.934,7.934,0,0,1-.828.113,1.514,1.514,0,0,1-.506-.04.761.761,0,0,1-.495-.492,2.265,2.265,0,0,1-.108-.715,2.151,2.151,0,0,1,.189-.992,1.6,1.6,0,0,1,.583-.6,4.168,4.168,0,0,1,1.349-.427,16.982,16.982,0,0,1,2.248-.257" transform="translate(-934.077 -390.234)"/>
        <path id="Path_35153" data-name="Path 35153" d="M1093.908,416.18v-5.86l2.064-.388v1.983a1.513,1.513,0,0,1,.478-.767,2.051,2.051,0,0,1,1.009-.448,1.66,1.66,0,0,1,1.24.11,1.037,1.037,0,0,1,.385.913v3.485l-2.064.388v-2.718a.36.36,0,0,0-.112-.3.435.435,0,0,0-.346-.041.76.76,0,0,0-.441.214.59.59,0,0,0-.141.408v2.637Z" transform="translate(-962.31 -380.971)"/>
        <path id="Path_35154" data-name="Path 35154" d="M968.052,477.959v-1.44l.458-.086v-.678a2.5,2.5,0,0,1,.093-.747,1.328,1.328,0,0,1,.287-.5,1.6,1.6,0,0,1,.564-.368,4.946,4.946,0,0,1,.986-.272q.623-.117,1.363-.191v1.305a2.214,2.214,0,0,0-.431.043,1.7,1.7,0,0,0-.493.162.455.455,0,0,0-.21.2.9.9,0,0,0-.06.377v.273l1.193-.224v1.44l-1.193.224v2.237l-2.1.394v-2.237ZM974.413,479l-2.064.388v-4.674a.847.847,0,0,0,.247.011,7.869,7.869,0,0,0,.812-.118q.377-.071.716-.169a1.246,1.246,0,0,0,.289-.112Zm-.292-4.981-1.432.269a.431.431,0,0,1-.208,0,.163.163,0,0,1-.092-.1,1.044,1.044,0,0,1-.019-.258,1.77,1.77,0,0,1,.023-.39.314.314,0,0,1,.117-.153.9.9,0,0,1,.318-.1l1.159-.218a.721.721,0,0,1,.275-.015.176.176,0,0,1,.119.091.638.638,0,0,1,.037.263q0,.031-.011.318a.342.342,0,0,1-.086.2.366.366,0,0,1-.2.093" transform="translate(-856.206 -434.185)"/>
        <path id="Path_35155" data-name="Path 35155" d="M1017.833,474.928v1.413q-1.082.111-1.355.162a2.15,2.15,0,0,0-.8.254.255.255,0,0,0-.1.218.223.223,0,0,0,.05.164.263.263,0,0,0,.185.046,5.482,5.482,0,0,0,.6-.081q.508-.084.628-.1a1.72,1.72,0,0,1,.449.006.61.61,0,0,1,.291.132.646.646,0,0,1,.185.3,1.916,1.916,0,0,1,.1.632,2.22,2.22,0,0,1-.127.755,1.4,1.4,0,0,1-.25.447,1.824,1.824,0,0,1-.416.355,2.239,2.239,0,0,1-.458.213,6.8,6.8,0,0,1-1.067.281q-.624.117-1.055.164-.316.032-1.028.055v-1.205l.751-.079q.382-.052.774-.126a2.13,2.13,0,0,0,.606-.178.282.282,0,0,0,.16-.251.194.194,0,0,0-.085-.188,1.015,1.015,0,0,0-.47.023,7.9,7.9,0,0,1-.828.113,1.514,1.514,0,0,1-.506-.04.76.76,0,0,1-.495-.492,2.266,2.266,0,0,1-.108-.715,2.149,2.149,0,0,1,.189-.993,1.6,1.6,0,0,1,.583-.6,4.184,4.184,0,0,1,1.35-.427,16.956,16.956,0,0,1,2.249-.257" transform="translate(-894.49 -435.766)"/>
        <path id="Path_35156" data-name="Path 35156" d="M1046.951,470.187v-5.86l2.064-.388v1.983a1.515,1.515,0,0,1,.478-.767,2.052,2.052,0,0,1,1.009-.447,1.66,1.66,0,0,1,1.24.11,1.038,1.038,0,0,1,.385.913v3.485l-2.064.388v-2.718a.36.36,0,0,0-.112-.3.435.435,0,0,0-.346-.041.76.76,0,0,0-.441.214.589.589,0,0,0-.141.408V469.8Z" transform="translate(-922.722 -426.502)"/>
        <path id="Path_35157" data-name="Path 35157" d="M1103.226,409.485c.48-.215,1.817,1.734,2.986,4.352s1.729,4.914,1.249,5.128c-3.63,1.621-8.526,1.739-11.84,1.578a2.007,2.007,0,0,0-1.578.653l-3.769,4.125-3.25-7.276,5.587-.054a2.007,2.007,0,0,0,1.539-.74c2.091-2.576,5.446-6.144,9.076-7.766" transform="translate(-956.506 -380.58)" fill="#fff"/>
        <path id="Path_35158" data-name="Path 35158" d="M1088.368,423.808a.345.345,0,0,1-.26-.2l-3.25-7.276a.345.345,0,0,1,.311-.485l5.587-.054a1.67,1.67,0,0,0,1.275-.613c2.18-2.685,5.546-6.229,9.2-7.863a.532.532,0,0,1,.18-.045c.277-.02.7.119,1.549,1.38a22.3,22.3,0,0,1,1.713,3.191,21.769,21.769,0,0,1,1.263,3.524c.3,1.232.242,1.867-.189,2.059a21.334,21.334,0,0,1-7.109,1.569,41.1,41.1,0,0,1-4.888.038,1.626,1.626,0,0,0-.2,0,1.656,1.656,0,0,0-1.109.538l-3.769,4.125a.345.345,0,0,1-.23.111.357.357,0,0,1-.079,0m5.419-5.462a40.352,40.352,0,0,0,4.805-.038,20.747,20.747,0,0,0,6.827-1.488c.109-.335-.176-2.016-1.373-4.7s-2.259-4.013-2.581-4.155c-3.514,1.588-6.776,5.031-8.9,7.646a2.363,2.363,0,0,1-1.8.868l-5.061.049,2.821,6.315,3.414-3.737a2.345,2.345,0,0,1,1.57-.761,2.379,2.379,0,0,1,.28,0" transform="translate(-954.655 -378.727)"/>
        <path id="Path_35159" data-name="Path 35159" d="M1190.584,414.613c-1.169-2.618-1.728-4.914-1.248-5.128s1.817,1.734,2.987,4.352c1.05,2.35,1.607,4.44,1.363,5l-.115.13c-.48.215-1.817-1.734-2.987-4.352" transform="translate(-1042.616 -380.58)" fill="#ff0045"/>
        <path id="Path_35160" data-name="Path 35160" d="M1189.143,413.474a21.672,21.672,0,0,1-1.256-3.5c-.368-1.513-.106-1.824.124-1.927a.425.425,0,0,1,.141-.035c.87-.062,2.389,2.8,3.149,4.5.913,2.044,1.689,4.44,1.364,5.184a.238.238,0,0,1-.038.06l-.115.13a.227.227,0,0,1-.079.058.411.411,0,0,1-.141.035h0c-.87.062-2.389-2.8-3.149-4.5m1.738-.777a21.863,21.863,0,0,0-1.65-3.081c-.591-.886-.928-1.123-1.03-1.149a2.988,2.988,0,0,0,.168,1.534,24.47,24.47,0,0,0,2.844,6.365c.564.846.9,1.1,1.015,1.144l.027-.03c.157-.481-.313-2.411-1.373-4.783" transform="translate(-1041.384 -379.347)"/>
        <path id="Path_35161" data-name="Path 35161" d="M1200.48,433.523c.291.651.623,1.135.742,1.081s-.02-.624-.31-1.274-.623-1.135-.742-1.081.02.624.31,1.274" transform="translate(-1051.859 -399.782)" fill="#eeebcd"/>
        <path id="Path_35162" data-name="Path 35162" d="M1199.777,432.953c-.172-.386-.542-1.3-.252-1.426a.164.164,0,0,1,.054-.014c.292-.021.716.877.839,1.153a5.457,5.457,0,0,1,.316.881c.079.327.061.49-.063.545a.165.165,0,0,1-.055.013c-.291.021-.716-.877-.839-1.153m.21-.094a.562.562,0,1,0-.342-1.065,3.821,3.821,0,0,0,.342,1.065" transform="translate(-1051.26 -399.164)"/>
        <path id="Path_35163" data-name="Path 35163" d="M1173.221,424.81a1.183,1.183,0,0,0,.4-.1.23.23,0,1,0-.187-.42.728.728,0,0,1-.594-1.33.23.23,0,0,0-.187-.42,1.189,1.189,0,0,0,.568,2.271" transform="translate(-1028.102 -391.582)"/>
        <path id="Path_35164" data-name="Path 35164" d="M1178.208,435.959a1.184,1.184,0,0,0,.4-.1.23.23,0,1,0-.188-.42.728.728,0,0,1-.594-1.33.23.23,0,0,0-.188-.42,1.188,1.188,0,0,0,.57,2.27" transform="translate(-1032.305 -400.983)"/>
        <path id="Path_35165" data-name="Path 35165" d="M1183.183,447.11a1.189,1.189,0,0,0,.4-.1.23.23,0,1,0-.187-.42.729.729,0,0,1-.594-1.33.23.23,0,0,0-.187-.42,1.189,1.189,0,0,0,.568,2.271" transform="translate(-1036.501 -410.383)"/>
        <path id="Path_35166" data-name="Path 35166" d="M1188.17,458.26a1.185,1.185,0,0,0,.4-.1.23.23,0,1,0-.187-.42.728.728,0,0,1-.594-1.33.23.23,0,0,0-.188-.42,1.188,1.188,0,0,0,.57,2.27" transform="translate(-1040.704 -419.783)"/>
        <path id="Path_35167" data-name="Path 35167" d="M1161.115,436.907a1.184,1.184,0,0,0,.4-.1.23.23,0,0,0-.187-.42.728.728,0,1,1-.594-1.33.23.23,0,0,0-.187-.42,1.189,1.189,0,0,0,.568,2.271" transform="translate(-1017.897 -401.781)"/>
        <path id="Path_35168" data-name="Path 35168" d="M1166.093,448.057a1.192,1.192,0,0,0,.4-.1.23.23,0,0,0-.187-.42.728.728,0,0,1-.594-1.33.23.23,0,0,0-.187-.42,1.189,1.189,0,0,0,.568,2.271" transform="translate(-1022.093 -411.181)"/>
        <path id="Path_35169" data-name="Path 35169" d="M1171.077,459.207a1.183,1.183,0,0,0,.4-.1.23.23,0,0,0-.187-.42.728.728,0,1,1-.594-1.33.23.23,0,0,0-.187-.42,1.189,1.189,0,0,0,.568,2.271" transform="translate(-1026.296 -420.581)"/>
        <path id="Path_35170" data-name="Path 35170" d="M1148.763,449.111a1.185,1.185,0,0,0,.4-.1.23.23,0,0,0-.187-.42.729.729,0,1,1-.594-1.33.23.23,0,1,0-.187-.42,1.189,1.189,0,0,0,.568,2.27" transform="translate(-1007.483 -412.07)"/>
        <path id="Path_35171" data-name="Path 35171" d="M1153.744,460.261a1.189,1.189,0,0,0,.4-.1.23.23,0,1,0-.187-.42.728.728,0,1,1-.594-1.33.23.23,0,0,0-.187-.42,1.189,1.189,0,0,0,.568,2.27" transform="translate(-1011.682 -421.47)"/>
        <path id="Path_35172" data-name="Path 35172" d="M1493.029,547.867a15.97,15.97,0,1,0-15.97,15.97,15.97,15.97,0,0,0,15.97-15.97" transform="translate(-1271.865 -483.794)"/>
        <path id="Path_35173" data-name="Path 35173" d="M1482.4,646.826a1.77,1.77,0,0,0-.567.654,6.239,6.239,0,0,0-.511,2.4,2.883,2.883,0,0,1,1.877-.451,1.031,1.031,0,0,0-.06,1.011.616.616,0,0,1,.481-.328c.641-.142,1.455-.246,1.662-.966a1.656,1.656,0,0,0-.11-1.044,2.389,2.389,0,0,0-1.561-1.5,1.586,1.586,0,0,0-1.211.22" transform="translate(-1288.923 -580.473)" fill="#efd521"/>
        <text id="_23" data-name=" " transform="translate(217.297 62.682) rotate(85.533)" fill="#fff" font-size="1" font-family="SegoeUI, Segoe UI"><tspan x="0" y="0"> </tspan></text>
        <text id="I-6" data-name="I" transform="matrix(-0.01, 1, -1, -0.01, 217.374, 63.592)" fill="#fff" font-size="1" font-family="SegoeUI, Segoe UI"><tspan x="0" y="0">I</tspan></text>
        <text id="t-5" data-name="t" transform="matrix(-0.133, 0.991, -0.991, -0.133, 217.37, 64.819)" fill="#fff" font-size="1" font-family="SegoeUI, Segoe UI"><tspan x="0" y="0">t</tspan></text>
        <text id="_24" data-name=" " transform="translate(217.113 66.598) rotate(104.023)" fill="#fff" font-size="1" font-family="SegoeUI, Segoe UI"><tspan x="0" y="0"> </tspan></text>
        <text id="l-3" data-name="l" transform="matrix(-0.32, 0.947, -0.947, -0.32, 216.892, 67.476)" fill="#fff" font-size="1" font-family="SegoeUI, Segoe UI"><tspan x="0" y="0">l</tspan></text>
        <text id="o-8" data-name="o" transform="translate(216.566 68.544) rotate(116.723)" fill="#fff" font-size="1" font-family="SegoeUI, Segoe UI"><tspan x="0" y="0">o</tspan></text>
        <text id="o-9" data-name="o" transform="matrix(-0.614, 0.789, -0.789, -0.614, 215.499, 70.655)" fill="#fff" font-size="1" font-family="SegoeUI, Segoe UI"><tspan x="0" y="0">o</tspan></text>
        <text id="k" transform="translate(214.039 72.515) rotate(139.027)" fill="#fff" font-size="1" font-family="SegoeUI, Segoe UI"><tspan x="0" y="0">k</tspan></text>
        <text id="s-9" data-name="s" transform="translate(212.224 74.065) rotate(149.646)" fill="#fff" font-size="1" font-family="SegoeUI, Segoe UI"><tspan x="0" y="0">s</tspan></text>
        <text id="_25" data-name=" " transform="matrix(-0.919, 0.394, -0.394, -0.919, 210.378, 75.085)" fill="#fff" font-size="1" font-family="SegoeUI, Segoe UI"><tspan x="0" y="0"> </tspan></text>
        <text id="s-10" data-name="s" transform="matrix(-0.961, 0.276, -0.276, -0.961, 209.524, 75.51)" fill="#fff" font-size="1" font-family="SegoeUI, Segoe UI"><tspan x="0" y="0">s</tspan></text>
        <text id="o-10" data-name="o" transform="matrix(-0.996, 0.094, -0.094, -0.996, 207.447, 76.107)" fill="#fff" font-size="1" font-family="SegoeUI, Segoe UI"><tspan x="0" y="0">o</tspan></text>
        <text id="_26" data-name=" " transform="translate(205.14 76.269) rotate(-177.659)" fill="#fff" font-size="1" font-family="SegoeUI, Segoe UI"><tspan x="0" y="0"> </tspan></text>
        <text id="b" transform="matrix(-0.984, -0.176, 0.176, -0.984, 204.19, 76.267)" fill="#fff" font-size="1" font-family="SegoeUI, Segoe UI"><tspan x="0" y="0">b</tspan></text>
        <text id="o-11" data-name="o" transform="translate(201.813 75.838) rotate(-158.863)" fill="#fff" font-size="1" font-family="SegoeUI, Segoe UI"><tspan x="0" y="0">o</tspan></text>
        <text id="m-3" data-name="m" transform="translate(199.577 74.99) rotate(-145.35)" fill="#fff" font-size="1" font-family="SegoeUI, Segoe UI"><tspan x="0" y="0">m</tspan></text>
        <text id="b-2" data-name="b" transform="translate(196.873 73.054) rotate(-131.745)" fill="#fff" font-size="1" font-family="SegoeUI, Segoe UI"><tspan x="0" y="0">b</tspan></text>
        <path id="Path_35174" data-name="Path 35174" d="M1535.339,597.834l.486-.486c.185-.185.358-.6-.323-1.413a.761.761,0,0,1,.1-.019,1.006,1.006,0,0,1,.72.214,2.808,2.808,0,0,1,.619.825c.037.063.073.126.111.188a2.36,2.36,0,0,0,1.194,1.119,1.517,1.517,0,0,0,1.321-.18l-.432-.64a.751.751,0,0,1-.645.088,1.689,1.689,0,0,1-.776-.783c-.036-.06-.071-.12-.106-.18a3.408,3.408,0,0,0-.812-1.046,1.767,1.767,0,0,0-1.29-.371,1.556,1.556,0,0,0-.583.2c-.847-.736-1.278-.558-1.467-.369l-.486.486a6.119,6.119,0,1,0,2.372,2.372m-1.416-2.237a3.436,3.436,0,0,1,1.281,1.28l-.292.292a6.108,6.108,0,0,0-1.281-1.28Zm-7.711,8.992a5.347,5.347,0,1,1,7.561,0,5.353,5.353,0,0,1-7.561,0" transform="translate(-1324.798 -536.735)" fill="#ff0045"/>
        <path id="Path_35175" data-name="Path 35175" d="M1542.909,606.755l.546.546a3.657,3.657,0,0,1,3.6-.926l.215-.742a4.429,4.429,0,0,0-4.363,1.122" transform="translate(-1340.844 -545.811)" fill="#fff"/>
        <path id="Path_35176" data-name="Path 35176" d="M1621.084,600.325l2.46-2.211-.584,1.463,3.165-.747-2.255,1.475,1.107,1.017-3.461-.356Z" transform="translate(-1406.749 -539.619)" fill="#efd521"/>
        <text id="_27" data-name=" " transform="translate(193.084 65.446) rotate(-94.464)" fill="#fff" font-size="1" font-family="SegoeUI, Segoe UI"><tspan x="0" y="0"> </tspan></text>
        <text id="I-7" data-name="I" transform="translate(192.98 64.528) rotate(-89.448)" fill="#fff" font-size="1" font-family="SegoeUI, Segoe UI"><tspan x="0" y="0">I</tspan></text>
        <text id="t-6" data-name="t" transform="translate(192.993 63.31) rotate(-82.355)" fill="#fff" font-size="1" font-family="SegoeUI, Segoe UI"><tspan x="0" y="0">t</tspan></text>
        <text id="_28" data-name=" " transform="translate(193.259 61.539) rotate(-75.975)" fill="#fff" font-size="1" font-family="SegoeUI, Segoe UI"><tspan x="0" y="0"> </tspan></text>
        <text id="l-4" data-name="l" transform="translate(193.48 60.654) rotate(-71.35)" fill="#fff" font-size="1" font-family="SegoeUI, Segoe UI"><tspan x="0" y="0">l</tspan></text>
        <text id="o-12" data-name="o" transform="translate(193.809 59.567) rotate(-63.277)" fill="#fff" font-size="1" font-family="SegoeUI, Segoe UI"><tspan x="0" y="0">o</tspan></text>
        <text id="o-13" data-name="o" transform="translate(194.872 57.483) rotate(-52.134)" fill="#fff" font-size="1" font-family="SegoeUI, Segoe UI"><tspan x="0" y="0">o</tspan></text>
        <text id="k-2" data-name="k" transform="translate(196.323 55.628) rotate(-40.97)" fill="#fff" font-size="1" font-family="SegoeUI, Segoe UI"><tspan x="0" y="0">k</tspan></text>
        <text id="s-11" data-name="s" transform="translate(198.14 54.07) rotate(-30.354)" fill="#fff" font-size="1" font-family="SegoeUI, Segoe UI"><tspan x="0" y="0">s</tspan></text>
        <text id="_29" data-name=" " transform="translate(199.996 53.026) rotate(-23.174)" fill="#fff" font-size="1" font-family="SegoeUI, Segoe UI"><tspan x="0" y="0"> </tspan></text>
        <text id="s-12" data-name="s" transform="translate(200.849 52.628) rotate(-16.038)" fill="#fff" font-size="1" font-family="SegoeUI, Segoe UI"><tspan x="0" y="0">s</tspan></text>
        <text id="o-14" data-name="o" transform="translate(202.932 52.022) rotate(-5.394)" fill="#fff" font-size="1" font-family="SegoeUI, Segoe UI"><tspan x="0" y="0">o</tspan></text>
        <text id="_30" data-name=" " transform="matrix(0.999, 0.041, -0.041, 0.999, 205.241, 51.878)" fill="#fff" font-size="1" font-family="SegoeUI, Segoe UI"><tspan x="0" y="0"> </tspan></text>
        <text id="b-3" data-name="b" transform="translate(206.198 51.871) rotate(10.129)" fill="#fff" font-size="1" font-family="SegoeUI, Segoe UI"><tspan x="0" y="0">b</tspan></text>
        <text id="o-15" data-name="o" transform="translate(208.551 52.307) rotate(21.183)" fill="#fff" font-size="1" font-family="SegoeUI, Segoe UI"><tspan x="0" y="0">o</tspan></text>
        <text id="m-4" data-name="m" transform="translate(210.809 53.135) rotate(34.65)" fill="#fff" font-size="1" font-family="SegoeUI, Segoe UI"><tspan x="0" y="0">m</tspan></text>
        <text id="b-4" data-name="b" transform="translate(213.499 55.086) rotate(48.254)" fill="#fff" font-size="1" font-family="SegoeUI, Segoe UI"><tspan x="0" y="0">b</tspan></text>
        <path id="Path_35177" data-name="Path 35177" d="M282.2,496.15c.206-1.766,4.839-4.64,4.136-6.156-.724-1.563-6.208.266-7.5-.92-1.241-1.143.15-6.775-1.534-7.392s-4.262,4.579-5.948,4.65c-1.748.073-4.751-4.867-6.314-4.142s.266,6.209-.919,7.5c-1.144,1.241-6.775-.15-7.392,1.534-.386,1.053,1.5,2.457,2.99,3.773h-4.325v3.476h2.332V501.6h.227c-.591.717-.95,1.374-.716,1.88.724,1.563,6.208-.266,7.5.919,1.241,1.144-.15,6.775,1.534,7.392s4.261-4.579,5.948-4.65c1.748-.073,4.751,4.867,6.314,4.143s-.266-6.209.92-7.5a3.868,3.868,0,0,1,2.472-.581,11.279,11.279,0,0,0,1.708.149c2.986,0,4.548-1.5,4.548-2.981V496.15Z" transform="translate(-255.393 -441.417)" fill="#044aaf"/>
        <path id="Path_35178" data-name="Path 35178" d="M362.958,514.552l1.372-.1-1.372-.1a1.166,1.166,0,0,1-1.075-1.076l-.1-1.372-.1,1.372a1.166,1.166,0,0,1-1.075,1.076l-1.371.1,1.371.1a1.166,1.166,0,0,1,1.075,1.075l.1,1.372.1-1.372a1.165,1.165,0,0,1,1.075-1.075" transform="translate(-342.934 -466.935)" fill="#efd521"/>
        <path id="Path_35179" data-name="Path 35179" d="M327.476,511.933l.814-.061-.814-.061a.692.692,0,0,1-.638-.638l-.061-.814-.061.814a.692.692,0,0,1-.638.638l-.814.061.814.061a.692.692,0,0,1,.638.638l.061.814.061-.814a.692.692,0,0,1,.638-.638" transform="translate(-314.298 -465.636)" fill="#efd521"/>
        <path id="Path_35180" data-name="Path 35180" d="M380.2,638.649l.539-.04-.539-.04a.458.458,0,0,1-.422-.422l-.04-.539-.041.539a.458.458,0,0,1-.422.422l-.538.04.538.04a.458.458,0,0,1,.422.422l.041.538.04-.538a.458.458,0,0,1,.422-.422" transform="translate(-359.378 -572.914)" fill="#efd521"/>
        <path id="Path_35181" data-name="Path 35181" d="M294.824,545.711l.539-.041-.539-.04a.458.458,0,0,1-.422-.422l-.04-.539-.04.539a.458.458,0,0,1-.422.422l-.538.04.538.041a.458.458,0,0,1,.422.422l.04.539.04-.539a.458.458,0,0,1,.422-.422" transform="translate(-287.401 -494.562)" fill="#efd521"/>
        <path id="Path_35182" data-name="Path 35182" d="M408.791,555.784l.539-.04-.539-.04a.458.458,0,0,1-.422-.422l-.04-.539-.04.539a.458.458,0,0,1-.422.422l-.538.04.538.04a.458.458,0,0,1,.422.422l.04.538.04-.538a.458.458,0,0,1,.422-.422" transform="translate(-383.482 -503.054)" fill="#efd521"/>
        <path id="Path_35183" data-name="Path 35183" d="M331.343,612.361l1.161-.087-1.161-.087a.986.986,0,0,1-.91-.909l-.087-1.16-.088,1.16a.986.986,0,0,1-.909.909l-1.161.087,1.161.087a.986.986,0,0,1,.909.91l.088,1.16.087-1.16a.986.986,0,0,1,.91-.91" transform="translate(-316.764 -549.737)" fill="#efd521"/>
        <path id="Path_35184" data-name="Path 35184" d="M355.457,533.98a.3.3,0,1,1-.3-.3.3.3,0,0,1,.3.3" transform="translate(-339.247 -485.297)" fill="#efd521"/>
        <path id="Path_35185" data-name="Path 35185" d="M371.6,619.791a.3.3,0,1,1-.3-.3.3.3,0,0,1,.3.3" transform="translate(-352.854 -557.641)" fill="#efd521"/>
        <path id="Path_35186" data-name="Path 35186" d="M304.808,608.505a.3.3,0,1,1-.3-.3.3.3,0,0,1,.3.3" transform="translate(-296.547 -548.126)" fill="#efd521"/>
        <path id="Path_35187" data-name="Path 35187" d="M418.776,539.863a.3.3,0,1,1-.3-.3.3.3,0,0,1,.3.3" transform="translate(-392.628 -490.257)" fill="#efd521"/>
        <path id="Path_35188" data-name="Path 35188" d="M307.667,545.351l.59-1.447a5.517,5.517,0,0,0,3.266.885c.5,0,.822-.07.822-.161s-.155-.161-.857-.161c-2.086,0-3.365-.7-3.365-1.644,0-1.011,1.152-1.728,3.638-1.728a9.6,9.6,0,0,1,2.964.4v1.482a7.022,7.022,0,0,0-2.641-.484c-.555,0-.963.063-.963.175s.155.155.8.155c2.479,0,3.358.674,3.358,1.538,0,1.033-1.208,1.862-3.589,1.862a9.254,9.254,0,0,1-4.025-.871" transform="translate(-299.463 -491.548)" fill="#ffda00"/>
        <path id="Path_35189" data-name="Path 35189" d="M357.8,550.467c0-1.145,1.068-1.988,3.112-1.988s3.1.836,3.1,1.981-1.054,1.988-3.112,1.988-3.1-.836-3.1-1.981m4.137,0c0-.372-.386-.709-1.047-.709s-1.019.33-1.019.7.386.717,1.033.717,1.033-.344,1.033-.709" transform="translate(-341.724 -497.774)" fill="#ffda00"/>
        <path id="Path_35190" data-name="Path 35190" d="M263.117,573.933h-2.332v-1.784h7.137v1.784h-2.332v3.133h-2.473Z" transform="translate(-259.939 -517.729)" fill="#ffda00"/>
        <path id="Path_35191" data-name="Path 35191" d="M306.436,580.85c0-1.089.948-1.988,2.585-1.988a3.384,3.384,0,0,1,2.388.864h.021l1.419-.759h.211v3.758h-2.3v-1.131h-.091c-.1.674-.934,1.2-2.016,1.2-1.433,0-2.22-.772-2.22-1.946m4.467-.028c0-.428-.436-.688-1.019-.688s-1.04.267-1.04.7.443.688,1.033.688,1.026-.267,1.026-.7" transform="translate(-298.425 -523.388)" fill="#ffda00"/>
        <path id="Path_35192" data-name="Path 35192" d="M350.208,582.262l.351-1.194a5,5,0,0,0,2.086.569c.527,0,.71-.028.71-.126s-.14-.091-.85-.182c-1.173-.148-1.875-.513-1.875-1.215s.85-1.25,2.458-1.25a6.911,6.911,0,0,1,2.374.372v1.194a4.68,4.68,0,0,0-1.707-.379c-.422,0-.625.028-.625.14s.175.106.808.183c1.384.162,1.939.541,1.939,1.215,0,.758-.878,1.243-2.578,1.243a6.966,6.966,0,0,1-3.09-.569" transform="translate(-335.328 -523.388)" fill="#ffda00"/>
        <path id="Path_35193" data-name="Path 35193" d="M387.082,575.712V574.63h-.934v-.913l2.8-1.524h.436v1.152h1.384v1.285h-1.384v.744c0,.358.281.4.716.4a3.277,3.277,0,0,0,.6-.056v1.433c-.211.035-.892.056-1.068.056-1.531,0-2.55-.323-2.55-1.5" transform="translate(-365.627 -517.766)" fill="#ffda00"/>
        <path id="Path_35194" data-name="Path 35194" d="M418.64,584.675l.351-1.482a4.914,4.914,0,0,0,1.967.407c1.047,0,1.7-.667,1.7-1.229v-.007h-.084a1.683,1.683,0,0,1-1.763.976c-1.222,0-1.96-.618-1.96-1.433v-2.374h2.3v2.079a.686.686,0,0,0,.773.646.675.675,0,0,0,.738-.709v-2.016h2.3v3.379c0,1.011-1.257,2.135-3.7,2.135a9.938,9.938,0,0,1-2.613-.372" transform="translate(-393.02 -523.954)" fill="#ffda00"/>
        <path id="Path_35195" data-name="Path 35195" d="M828.572,573.131l-1.872-1.872h-3.594v-.752l-.935-.935h-4.585v2.138a6.108,6.108,0,0,0-3.16-.592c-1.4,0-2.873.091-3.577.949-.706-.816-2.128-.948-3.606-.948a7.868,7.868,0,0,0-2.687.343l-.935-.479v-2.21a1.96,1.96,0,0,0,1.287-1.99V564.6a2.014,2.014,0,0,0-.575-1.529h0l-1.8-1.8c-.72-.771-2.114-.9-3.56-.9a7.876,7.876,0,0,0-2.687.343l-.936-.479V559.12l-2.8.537h-1.014v-.936h-4.585V560.4a2.489,2.489,0,0,0-1.087.44l-.042-.332h-4.137v.425a6.309,6.309,0,0,0-3.141-.566,8.307,8.307,0,0,0-2.549.3l.059-.154h-9.239l.058.15a8.278,8.278,0,0,0-2.517-.291,11.136,11.136,0,0,0-1.954.135l-.937-.747v-.935H759.2c-2,0-2.879.467-3.053,1.688H755.7v1.08l-1.08-1.08h-9.181a4.144,4.144,0,0,0-1.108-.141,3.173,3.173,0,0,0-1.8.473,2.931,2.931,0,0,0-1.729-.473,3.05,3.05,0,0,0-1.314.27l-.031-.129H735.38v6.614l3.992,3.992c-1.986.007-3.9.213-3.9,2.3v1.01h.083a2.088,2.088,0,0,0-.231,1.012v.5a1.918,1.918,0,0,0,.517,1.416h0l1.821,1.823c.032.036.067.07.1.1l.018.017h0a2.982,2.982,0,0,0,2.026.587,4.9,4.9,0,0,0,1.552-.237l.028.1H767.1v-.175a3.6,3.6,0,0,0,1.626.316,4.9,4.9,0,0,0,1.552-.237l.028.1h7.7v-1.872h.116L780,579.745h4.585v-.377a6.555,6.555,0,0,0,3.059.518c2.059,0,4.069-.174,4.069-2.254v-.3a1.525,1.525,0,0,0-.385-1.03h.45a1.85,1.85,0,0,0,.448.816l0,0,1.909,1.907a2.891,2.891,0,0,0,1.5.7,10.493,10.493,0,0,0,2.009.152c1.523,0,3.022-.095,3.7-.988a3.262,3.262,0,0,0,2.659.847h2.259v-.279a7.221,7.221,0,0,0,2.865.42,5.378,5.378,0,0,0,3.438-.777,2.711,2.711,0,0,0,2.211.777,4.9,4.9,0,0,0,1.552-.237l.028.1h12.144l-1.425-3.549Z" transform="translate(-660.005 -506.408)" fill="#8d06c0"/>
        <text id="my_favorite" data-name="my favorite" transform="translate(75.839 58.524)" fill="#ffda00" font-size="7" font-family="SegoeUI, Segoe UI"><tspan x="0" y="0">my favorite</tspan></text>
        <text id="animal_is_steak" data-name="animal is steak" transform="translate(75.839 69.271)" fill="#ffda00" font-size="7" font-family="SegoeUI, Segoe UI"><tspan x="0" y="0">animal is steak</tspan></text>
        <path id="Path_35196" data-name="Path 35196" d="M1275.012,432.1a2.754,2.754,0,0,0-2.741-4.166l-1.508-1.54.208-.2-.438-1.041c-.007-.016-.689-1.635-1.434-3.305-1.615-3.62-1.946-3.958-2.184-4.2l-.084-.082a5.932,5.932,0,0,0-8.475,8.3l.079.084a2.428,2.428,0,0,0,.465.375h-19.233v8.229a3.171,3.171,0,0,0-.038.495V437.6a2.7,2.7,0,0,0,1.5,2.5,6.654,6.654,0,0,0,3.109.549,11.175,11.175,0,0,0,1.636-.1h11.514a10.269,10.269,0,0,0,1.546.1,11.275,11.275,0,0,0,1.651-.1h5.524v-1.686a5.07,5.07,0,0,0,1.771-.427v2.113h5.714v-2.67l2.827-5.765Z" transform="translate(-1085.16 -385.969)"/>
        <path id="Path_35197" data-name="Path 35197" d="M1256.237,493.084V498.2h-2.393v-2.04h-1v2.04h-2.393v-5.115h2.393v1.826h1v-1.826Z" transform="translate(-1094.281 -451.072)" fill="#fff"/>
        <path id="Path_35198" data-name="Path 35198" d="M1294.8,493.809v2.551c0,.887-.649,1.385-2.952,1.385s-2.952-.5-2.952-1.385v-2.551c0-.886.649-1.385,2.952-1.385s2.952.5,2.952,1.385m-2.952-.1c-.418,0-.558.032-.558.236v2.276c0,.2.14.236.558.236s.558-.032.558-.236v-2.276c0-.2-.14-.236-.558-.236" transform="translate(-1126.694 -450.516)" fill="#fff"/>
        <path id="Path_35199" data-name="Path 35199" d="M1332.833,494.332H1331.2V498.2h-2.393v-3.865h-1.634v-1.249h5.662Z" transform="translate(-1158.964 -451.072)" fill="#fff"/>
        <path id="Path_35200" data-name="Path 35200" d="M1369.773,496.618l-.4-.432a3.59,3.59,0,0,1-.862.415,3.142,3.142,0,0,1-.96.14,2.71,2.71,0,0,1-.737-.094,1.46,1.46,0,0,1-.445-.2,1.6,1.6,0,0,1-.328-.3,1.259,1.259,0,0,1-.214-.378,1.508,1.508,0,0,1-.076-.512,1.718,1.718,0,0,1,.114-.644,1.333,1.333,0,0,1,.3-.465,1.859,1.859,0,0,1,.408-.3,2.935,2.935,0,0,1,.472-.181,1.753,1.753,0,0,1-.43-.594,1.569,1.569,0,0,1-.133-.615,1.167,1.167,0,0,1,.1-.481,1,1,0,0,1,.254-.354,1.484,1.484,0,0,1,.354-.229,1.772,1.772,0,0,1,.334-.105,3.662,3.662,0,0,1,.791-.08,2.476,2.476,0,0,1,1.345.3.956.956,0,0,1,.452.851,1.049,1.049,0,0,1-.083.421,2,2,0,0,1-.392.551,3.732,3.732,0,0,1-.566.476l.566.592a1.338,1.338,0,0,0,.107-.225,2.551,2.551,0,0,0,.118-.374h1.615a2.658,2.658,0,0,1-.269.614,6.3,6.3,0,0,1-.617.925l1.292,1.281Zm-1.143-1.212-.9-.973a.952.952,0,0,0-.3.613.552.552,0,0,0,.172.415.625.625,0,0,0,.452.165.771.771,0,0,0,.254-.04,2.108,2.108,0,0,0,.327-.181m-.283-2.334a2.46,2.46,0,0,0,.363-.423.524.524,0,0,0,.08-.256.282.282,0,0,0-.1-.218.409.409,0,0,0-.521.005.324.324,0,0,0-.1.249.684.684,0,0,0,.069.276,1.66,1.66,0,0,0,.214.367" transform="translate(-1191.486 -449.493)" fill="#fff"/>
        <path id="Path_35201" data-name="Path 35201" d="M1250.206,533.2v-2.551c0-.886.649-1.385,2.952-1.385s2.952.5,2.952,1.385v.62h-2.393v-.482c0-.2-.14-.236-.558-.236s-.558.032-.558.236v2.275c0,.2.14.236.558.236s.558-.032.558-.236v-.482h2.393v.62c0,.887-.649,1.385-2.952,1.385s-2.952-.5-2.952-1.385" transform="translate(-1094.078 -481.576)" fill="#fff"/>
        <path id="Path_35202" data-name="Path 35202" d="M1292.619,535.041l-.645-1.641h-.2v1.641h-2.393v-5.115h2.914c2.189,0,2.8.423,2.8,1.31v.854a1.027,1.027,0,0,1-.763,1.067l.791,1.883Zm-.841-2.89h.521c.267,0,.407-.032.407-.2v-.579c0-.166-.14-.2-.407-.2h-.521Z" transform="translate(-1127.108 -482.133)" fill="#fff"/>
        <rect id="Rectangle_3545" data-name="Rectangle 3545" width="2.393" height="5.115" transform="translate(168.263 47.793)" fill="#fff"/>
        <path id="Path_35203" data-name="Path 35203" d="M1347.691,531.112v-.427c0-.128-.14-.16-.482-.16s-.483.032-.483.16v.361c0,.6,3.359-.016,3.359,1.7v.478c0,.874-.531,1.357-2.876,1.357s-2.876-.6-2.876-1.433v-.413h2.393v.427c0,.128.14.16.483.16s.482-.032.482-.16v-.361c0-.6-3.321.016-3.321-1.7v-.478c0-.87.683-1.358,2.838-1.358s2.838.6,2.838,1.433v.413Z" transform="translate(-1173.432 -481.576)" fill="#fff"/>
        <path id="Path_35204" data-name="Path 35204" d="M1388.265,531.235v.854c0,.886-.611,1.309-2.8,1.309h-.521v1.641h-2.393v-5.115h2.914c2.189,0,2.8.423,2.8,1.31m-2.393.138c0-.166-.14-.2-.407-.2h-.521v.975h.521c.267,0,.407-.032.407-.2Z" transform="translate(-1205.652 -482.132)" fill="#fff"/>
        <path id="Path_35205" data-name="Path 35205" d="M1422.426,533.645v1.4h-2.393v-1.4l-1.9-3.719h2.526l.59,1.721.6-1.721h2.4Z" transform="translate(-1235.65 -482.132)" fill="#fff"/>
        <path id="Path_35206" data-name="Path 35206" d="M1416.147,482.837l3.463,3.536c.01-.009.017-.019.027-.029a2.235,2.235,0,1,1-1.342,1.314c.009-.009.02-.017.029-.025l-3.463-3.536" transform="translate(-1232.891 -442.434)" fill="#fff"/>
        <path id="Path_35207" data-name="Path 35207" d="M1366.506,427.667a4.271,4.271,0,0,0-6.1,5.976l.055.059c.537.548,6.808,3.536,6.808,3.536l2.576-2.523s-2.7-6.4-3.278-6.993l-.058-.056" transform="translate(-1185.999 -394.887)" fill="#ff3200"/>
        <line id="Line_58" data-name="Line 58" x1="4.696" y1="2.432" transform="translate(175.892 38.106)" fill="#fff"/>
        <path id="Path_35208" data-name="Path 35208" d="M1379.619,469.646a.224.224,0,0,1-.1-.025l-4.7-2.432a.225.225,0,0,1,.208-.4l4.7,2.432a.225.225,0,0,1-.1.426" transform="translate(-1199.032 -428.882)" fill="#fff"/>
        <path id="Path_35209" data-name="Path 35209" d="M986.472,241.752c1.008-2.135-2.477-3.713-3.712-4.8-1.933-1.705-3.68-3.652-5.906-4.993-2.575-1.551-4.9-1.365-7.754-1.319-3.99.064-7.706-.372-11.258,1.843-1.9,1.186-5.855,3.357-4.742,6.106a3.305,3.305,0,0,0,2.977,1.913c-.121,1.239-1.029,2.5-1.15,3.869a9.467,9.467,0,0,0,.63,4.253c2.026,5.338,6.315,8.654,11.191,8.654a11.307,11.307,0,0,0,2.984-.408l.035-.01c4.572-1.38,15.127-4.993,12.851-11.772a.521.521,0,0,1-.033-.368.492.492,0,0,1,.218-.2l1.849-1.1a4.8,4.8,0,0,0,1.659-1.369,2.413,2.413,0,0,0,.163-.291" transform="translate(-843.436 -229.788)" fill="#fff"/>
        <path id="Path_35210" data-name="Path 35210" d="M1000.65,281.431c-1.35,3.358-6.829,5.758-11.719,7.234-4.789,1.311-9.868-1.152-12.176-7.234-2.343-6.019,3.074-12.394,11.719-11.019,8.541,1.412,13.558,7.725,12.176,11.019" transform="translate(-863.082 -263.188)" fill="#fff"/>
        <path id="Path_35211" data-name="Path 35211" d="M1000.65,281.431c-1.35,3.358-6.829,5.758-11.719,7.234-4.789,1.311-9.868-1.152-12.176-7.234-2.343-6.019,3.074-12.394,11.719-11.019C997.015,271.824,1002.032,278.137,1000.65,281.431Z" transform="translate(-863.082 -263.188)" fill="none" stroke="#000" stroke-linecap="round" stroke-linejoin="round" stroke-width="3.075"/>
        <path id="Path_35212" data-name="Path 35212" d="M994.533,295.63c-3.594,0-6.677-2.467-8.245-6.6l0-.012a6.024,6.024,0,0,1,.637-5.737,8.621,8.621,0,0,1,7.34-3.407,13.367,13.367,0,0,1,2.088.169,17.648,17.648,0,0,1,6.769,2.588,11.511,11.511,0,0,1,3.763,3.812,3.159,3.159,0,0,1,.488,2.539l-.009.021c-.9,2.242-4.813,4.554-10.732,6.343a8.016,8.016,0,0,1-2.1.284" transform="translate(-871.199 -271.325)" fill="#fff"/>
        <path id="Path_35213" data-name="Path 35213" d="M994.533,295.63c-3.594,0-6.677-2.467-8.245-6.6l0-.012a6.024,6.024,0,0,1,.637-5.737,8.621,8.621,0,0,1,7.34-3.407,13.367,13.367,0,0,1,2.088.169,17.65,17.65,0,0,1,6.769,2.588,11.512,11.512,0,0,1,3.763,3.812,3.159,3.159,0,0,1,.488,2.538l-.009.021c-.9,2.242-4.813,4.554-10.732,6.343A8.016,8.016,0,0,1,994.533,295.63Z" transform="translate(-871.199 -271.325)" fill="none" stroke="#000" stroke-linecap="round" stroke-linejoin="round" stroke-width="3.075"/>
        <path id="Path_35214" data-name="Path 35214" d="M1000.65,281.431c-1.35,3.358-6.829,5.758-11.719,7.234-4.789,1.311-9.868-1.152-12.176-7.234-2.343-6.019,3.074-12.394,11.719-11.019,8.541,1.412,13.558,7.725,12.176,11.019" transform="translate(-863.082 -263.188)" fill="#fff"/>
        <path id="Path_35215" data-name="Path 35215" d="M1000.65,281.431c-1.35,3.358-6.829,5.758-11.719,7.234-4.789,1.311-9.868-1.152-12.176-7.234-2.343-6.019,3.074-12.394,11.719-11.019C997.015,271.824,1002.032,278.137,1000.65,281.431Z" transform="translate(-863.082 -263.188)" fill="none" stroke="#000" stroke-linecap="round" stroke-linejoin="round" stroke-width="3.075"/>
        <path id="Path_35216" data-name="Path 35216" d="M1000.65,281.431c-1.35,3.358-6.829,5.758-11.719,7.234-4.789,1.311-9.868-1.152-12.176-7.234-2.343-6.019,3.074-12.394,11.719-11.019,8.541,1.412,13.558,7.725,12.176,11.019" transform="translate(-863.082 -263.188)" fill="#fff"/>
        <path id="Path_35217" data-name="Path 35217" d="M1000.65,281.431c-1.35,3.358-6.829,5.758-11.719,7.234-4.789,1.311-9.868-1.152-12.176-7.234-2.343-6.019,3.074-12.394,11.719-11.019C997.015,271.824,1002.032,278.137,1000.65,281.431Z" transform="translate(-863.082 -263.188)" fill="none" stroke="#000" stroke-linecap="round" stroke-linejoin="round" stroke-width="3.075"/>
        <path id="Path_35218" data-name="Path 35218" d="M992.747,283.283a8.621,8.621,0,0,1,7.341-3.408" transform="translate(-877.025 -271.325)" fill="none" stroke="#000" stroke-linecap="round" stroke-linejoin="round" stroke-width="3.075"/>
        <path id="Path_35219" data-name="Path 35219" d="M1052.824,280.955q.541.089,1.073.21" transform="translate(-927.673 -272.236)" fill="none" stroke="#000" stroke-linecap="round" stroke-linejoin="round" stroke-width="3.075"/>
        <path id="Path_35220" data-name="Path 35220" d="M1020.162,307.783a4.36,4.36,0,1,1-4.362-4.361,4.361,4.361,0,0,1,4.362,4.361" transform="translate(-892.786 -291.177)" fill="#efd521"/>
        <path id="Path_35221" data-name="Path 35221" d="M1029.1,326.046a.641.641,0,1,1-.641-.641.641.641,0,0,1,.641.641" transform="translate(-906.595 -309.709)"/>
        <path id="Path_35222" data-name="Path 35222" d="M1044.35,327.623l-.865-.427.865-.427" transform="translate(-919.8 -310.86)" fill="none" stroke="#000" stroke-linecap="round" stroke-linejoin="round" stroke-width="3.075"/>
        <path id="Path_35223" data-name="Path 35223" d="M1034.483,340.242a1.166,1.166,0,0,1-2.169,0" transform="translate(-910.382 -322.218)" fill="none" stroke="#000" stroke-linecap="round" stroke-linejoin="round" stroke-width="3.075"/>
        <text id="e-20" data-name="e" transform="translate(111.69 9.259) rotate(-46.117)" fill="#00c6c0" font-size="4" font-family="SegoeUI, Segoe UI"><tspan x="0" y="0">e</tspan></text>
        <text id="g-3" data-name="g" transform="translate(114.452 6.443) rotate(-27.54)" fill="#00c6c0" font-size="4" font-family="SegoeUI, Segoe UI"><tspan x="0" y="0">g</tspan></text>
        <text id="g-4" data-name="g" transform="translate(117.867 4.684) rotate(-11.652)" fill="#00c6c0" font-size="4" font-family="SegoeUI, Segoe UI"><tspan x="0" y="0">g</tspan></text>
        <text id="c-5" data-name="c" transform="matrix(1, 0.012, -0.012, 1, 121.634, 3)" fill="#00c6c0" font-size="3" font-family="SegoeUI, Segoe UI"><tspan x="0" y="0">c</tspan></text>
        <text id="e-21" data-name="e" transform="translate(124.801 4.033) rotate(11.141)" fill="#00c6c0" font-size="4" font-family="SegoeUI, Segoe UI"><tspan x="0" y="0">e</tspan></text>
        <text id="l-5" data-name="l" transform="translate(129.189 2.92) rotate(18.436)" fill="#00c6c0" font-size="2" font-family="SegoeUI, Segoe UI"><tspan x="0" y="0">l</tspan></text>
        <text id="l-6" data-name="l" transform="translate(131.137 3.576) rotate(23.179)" fill="#00c6c0" font-size="2" font-family="SegoeUI, Segoe UI"><tspan x="0" y="0">l</tspan></text>
        <text id="e-22" data-name="e" transform="translate(132.141 6.103) rotate(30.766)" fill="#00c6c0" font-size="4" font-family="SegoeUI, Segoe UI"><tspan x="0" y="0">e</tspan></text>
        <text id="n-7" data-name="n" transform="matrix(0.741, 0.671, -0.671, 0.741, 135.428, 8.069)" fill="#00c6c0" font-size="4" font-family="SegoeUI, Segoe UI"><tspan x="0" y="0">n</tspan></text>
        <text id="t-7" data-name="t" transform="translate(138.243 10.647) rotate(54.435)" fill="#00c6c0" font-size="4" font-family="SegoeUI, Segoe UI"><tspan x="0" y="0">t</tspan></text>
      </g>
    </g>
  </g>
</svg>
