<svg xmlns="http://www.w3.org/2000/svg" width="380.301" height="263.516" viewBox="0 0 380.301 263.516">
  <g id="Group_21905" data-name="Group 21905" transform="translate(-424.527 -4110)">
    <rect id="Rectangle_3454" data-name="Rectangle 3454" width="380.301" height="263.516" transform="translate(424.527 4110)" fill="#00d267"/>
    <g id="Group_21669" data-name="Group 21669" transform="translate(449.527 4116)">
      <path id="Path_35196" data-name="Path 35196" d="M1374.656,477.839a10.509,10.509,0,0,0-10.462-15.9l-5.754-5.876.795-.778-1.673-3.971c-.026-.062-2.63-6.239-5.474-12.613-6.163-13.815-7.424-15.1-8.335-16.033l-.32-.313a22.635,22.635,0,0,0-32.342,31.664c.093.1.269.289.3.321a9.236,9.236,0,0,0,1.773,1.431h-73.392v31.4a12.116,12.116,0,0,0-.144,1.888V498.8a10.306,10.306,0,0,0,5.734,9.524c2.771,1.451,6.43,2.1,11.865,2.1a42.638,42.638,0,0,0,6.244-.393h43.939a39.181,39.181,0,0,0,5.9.395,43.006,43.006,0,0,0,6.3-.395h21.08v-6.434a19.349,19.349,0,0,0,6.757-1.629v8.063h21.8V499.837l10.789-22Z" transform="translate(-1102.12 -397.322)"/>
      <path id="Path_35197" data-name="Path 35197" d="M1272.541,493.084V512.6h-9.133v-7.784h-3.828V512.6h-9.133V493.084h9.133v6.968h3.828v-6.968Z" transform="translate(-1106.46 -428.296)" fill="#fff"/>
      <path id="Path_35198" data-name="Path 35198" d="M1311.421,497.71v9.734c0,3.383-2.477,5.286-11.264,5.286s-11.264-1.9-11.264-5.286V497.71c0-3.382,2.475-5.286,11.264-5.286s11.264,1.9,11.264,5.286m-11.264-.375c-1.6,0-2.13.122-2.13.9v8.684c0,.778.534.9,2.13.9s2.13-.123,2.13-.9v-8.684c0-.779-.534-.9-2.13-.9" transform="translate(-1121.881 -428.032)" fill="#fff"/>
      <path id="Path_35199" data-name="Path 35199" d="M1348.776,497.849h-6.236V512.6h-9.133V497.849h-6.236v-4.766h21.6Z" transform="translate(-1137.234 -428.296)" fill="#fff"/>
      <path id="Path_35200" data-name="Path 35200" d="M1381.109,511.849l-1.537-1.647a13.715,13.715,0,0,1-3.289,1.585,11.987,11.987,0,0,1-3.664.533,10.349,10.349,0,0,1-2.812-.36,5.571,5.571,0,0,1-1.7-.761,6.084,6.084,0,0,1-1.254-1.136,4.819,4.819,0,0,1-.816-1.441,5.762,5.762,0,0,1-.291-1.954,6.548,6.548,0,0,1,.436-2.458,5.087,5.087,0,0,1,1.135-1.773,7.1,7.1,0,0,1,1.558-1.157,11.23,11.23,0,0,1,1.8-.692,6.7,6.7,0,0,1-1.641-2.265,6,6,0,0,1-.506-2.348,4.461,4.461,0,0,1,.367-1.836,3.841,3.841,0,0,1,.97-1.35,5.658,5.658,0,0,1,1.351-.873,6.75,6.75,0,0,1,1.274-.4,13.975,13.975,0,0,1,3.02-.3,9.449,9.449,0,0,1,5.132,1.13,3.65,3.65,0,0,1,1.725,3.248,4,4,0,0,1-.319,1.607,7.6,7.6,0,0,1-1.5,2.1,14.245,14.245,0,0,1-2.161,1.815l2.161,2.258a5.089,5.089,0,0,0,.408-.859,9.774,9.774,0,0,0,.45-1.427h6.164a10.093,10.093,0,0,1-1.025,2.342,24.016,24.016,0,0,1-2.355,3.532l4.931,4.889Zm-4.363-4.626-3.449-3.711a3.631,3.631,0,0,0-1.15,2.341,2.105,2.105,0,0,0,.658,1.585,2.386,2.386,0,0,0,1.725.631,2.942,2.942,0,0,0,.97-.153,8.093,8.093,0,0,0,1.247-.692m-1.08-8.906a9.353,9.353,0,0,0,1.385-1.614,2,2,0,0,0,.3-.976,1.077,1.077,0,0,0-.387-.831,1.564,1.564,0,0,0-1.988.021,1.235,1.235,0,0,0-.395.949,2.6,2.6,0,0,0,.263,1.053,6.32,6.32,0,0,0,.818,1.4" transform="translate(-1152.707 -427.545)" fill="#fff"/>
      <path id="Path_35201" data-name="Path 35201" d="M1250.206,544.286v-9.734c0-3.382,2.475-5.286,11.263-5.286s11.264,1.9,11.264,5.286v2.364H1263.6v-1.839c0-.779-.534-.9-2.13-.9s-2.13.122-2.13.9v8.683c0,.779.535.9,2.13.9s2.13-.123,2.13-.9v-1.84h9.133v2.366c0,3.383-2.475,5.286-11.264,5.286s-11.263-1.9-11.263-5.286" transform="translate(-1106.363 -442.809)" fill="#fff"/>
      <path id="Path_35202" data-name="Path 35202" d="M1301.728,549.444l-2.461-6.263h-.749v6.263h-9.133V529.926H1300.5c8.354,0,10.685,1.615,10.685,5v3.26a3.917,3.917,0,0,1-2.912,4.072l3.019,7.187Zm-3.209-11.029h1.986c1.018,0,1.552-.123,1.552-.756v-2.209c0-.634-.534-.756-1.552-.756h-1.986Z" transform="translate(-1122.078 -443.074)" fill="#fff"/>
      <rect id="Rectangle_3545" data-name="Rectangle 3545" width="9.133" height="19.517" transform="translate(190.15 86.851)" fill="#fff"/>
      <path id="Path_35203" data-name="Path 35203" d="M1357.148,536.311v-1.628c0-.49-.533-.612-1.841-.612s-1.842.122-1.842.612v1.378c0,2.291,12.817-.062,12.817,6.506v1.826c0,3.335-2.027,5.18-10.974,5.18s-10.975-2.279-10.975-5.469v-1.575h9.133v1.628c0,.489.534.612,1.842.612s1.84-.122,1.84-.612v-1.378c0-2.291-12.671.063-12.671-6.506v-1.825c0-3.32,2.606-5.181,10.83-5.181s10.83,2.294,10.83,5.469v1.576Z" transform="translate(-1144.118 -442.809)" fill="#fff"/>
      <path id="Path_35204" data-name="Path 35204" d="M1404.355,534.922v3.26c0,3.382-2.332,5-10.685,5h-1.986v6.264h-9.133V529.925h11.119c8.353,0,10.685,1.615,10.685,5m-9.133.526c0-.634-.534-.756-1.552-.756h-1.986v3.722h1.986c1.018,0,1.552-.122,1.552-.756Z" transform="translate(-1159.447 -443.073)" fill="#fff"/>
      <path id="Path_35205" data-name="Path 35205" d="M1434.517,544.119v5.324h-9.133v-5.327l-7.25-14.19h9.639l2.25,6.566,2.3-6.566h9.152Z" transform="translate(-1173.719 -443.074)" fill="#fff"/>
      <path id="Path_35206" data-name="Path 35206" d="M1419.768,482.837l13.215,13.494c.038-.035.065-.074.1-.111a8.53,8.53,0,1,1-5.121,5.013c.035-.034.078-.064.11-.1l-13.215-13.494" transform="translate(-1172.407 -424.186)" fill="#fff"/>
      <path id="Path_35207" data-name="Path 35207" d="M1386.971,431.122a16.3,16.3,0,0,0-23.286,22.805s.182.2.208.226c2.048,2.092,25.978,13.493,25.978,13.493l9.829-9.627s-10.289-24.418-12.507-26.684c-.029-.029-.222-.213-.222-.213" transform="translate(-1150.096 -401.565)" fill="#ff3200"/>
      <line id="Line_58" data-name="Line 58" x1="17.919" y1="9.281" transform="translate(219.26 49.884)" fill="#fff"/>
      <path id="Path_35208" data-name="Path 35208" d="M1393.477,477.764a.86.86,0,0,1-.395-.1l-17.92-9.281a.86.86,0,0,1,.792-1.528l17.918,9.281a.86.86,0,0,1-.4,1.624" transform="translate(-1156.297 -417.739)" fill="#fff"/>
      <g id="Rectangle_3561" data-name="Rectangle 3561" transform="translate(103.294 118.582)" stroke="#000" stroke-width="2">
        <rect width="182.664" height="99.417" stroke="none"/>
        <rect x="1" y="1" width="180.664" height="97.417" fill="none"/>
      </g>
      <g id="Rectangle_3562" data-name="Rectangle 3562" transform="translate(89.519 108.401)" fill="#ffe200" stroke="#000" stroke-width="2">
        <rect width="182.664" height="99.417" stroke="none"/>
        <rect x="1" y="1" width="180.664" height="97.417" fill="none"/>
      </g>
      <text id="Banner_for_advertising" data-name="Banner for advertising" transform="translate(128.217 127.11)" font-size="22" font-family="SegoeUI-Bold, Segoe UI" font-weight="700" letter-spacing="-0.002em"><tspan x="0" y="24">Banner for </tspan><tspan x="0" y="57">advertising</tspan></text>
    </g>
    <g id="Group_21672" data-name="Group 21672" transform="translate(473.516 4198.685)">
      <path id="Path_35172" data-name="Path 35172" d="M1556.23,579.468a47.571,47.571,0,1,0-47.571,47.571,47.571,47.571,0,0,0,47.571-47.571" transform="translate(-1461.089 -531.897)"/>
      <path id="Path_35173" data-name="Path 35173" d="M1484.534,647.327a5.27,5.27,0,0,0-1.688,1.947,18.587,18.587,0,0,0-1.522,7.161s2.827-1.891,5.592-1.343a3.071,3.071,0,0,0-.178,3.013,1.835,1.835,0,0,1,1.433-.977c1.91-.424,4.333-.733,4.95-2.876a4.931,4.931,0,0,0-.329-3.109c-.843-2.068-2.611-4.112-4.648-4.471a4.726,4.726,0,0,0-3.609.656" transform="translate(-1471.864 -592.964)" fill="#efd521"/>
      <text id="_" data-name=" " transform="translate(81.259 43.612) rotate(85.533)" fill="#fff" font-size="6" font-family="SegoeUI, Segoe UI"><tspan x="0" y="0"> </tspan></text>
      <text id="I" transform="matrix(-0.01, 1, -1, -0.01, 78.481, 46.087)" fill="#fff" font-size="9" font-family="SegoeUI, Segoe UI"><tspan x="0" y="0">I</tspan></text>
      <text id="t" transform="matrix(-0.133, 0.991, -0.991, -0.133, 79.51, 49.21)" fill="#fff" font-size="8" font-family="SegoeUI, Segoe UI"><tspan x="0" y="0">t</tspan></text>
      <text id="_2" data-name=" " transform="translate(80.774 54.517) rotate(104.023)" fill="#fff" font-size="6" font-family="SegoeUI, Segoe UI"><tspan x="0" y="0"> </tspan></text>
      <text id="l" transform="matrix(-0.32, 0.947, -0.947, -0.32, 77.329, 55.989)" fill="#fff" font-size="9" font-family="SegoeUI, Segoe UI"><tspan x="0" y="0">l</tspan></text>
      <text id="o" transform="translate(76.65 58.476) rotate(116.723)" fill="#fff" font-size="9" font-family="SegoeUI, Segoe UI"><tspan x="0" y="0">o</tspan></text>
      <text id="o-2" data-name="o" transform="matrix(-0.614, 0.789, -0.789, -0.614, 74.026, 63.881)" fill="#fff" font-size="9" font-family="SegoeUI, Segoe UI"><tspan x="0" y="0">o</tspan></text>
      <text id="k" transform="translate(70.395 68.664) rotate(139.027)" fill="#fff" font-size="9" font-family="SegoeUI, Segoe UI"><tspan x="0" y="0">k</tspan></text>
      <text id="s" transform="translate(66.807 74.428) rotate(149.646)" fill="#fff" font-size="7" font-family="SegoeUI, Segoe UI"><tspan x="0" y="0">s</tspan></text>
      <text id="_3" data-name=" " transform="matrix(-0.919, 0.394, -0.394, -0.919, 62.077, 78.197)" fill="#fff" font-size="6" font-family="SegoeUI, Segoe UI"><tspan x="0" y="0"> </tspan></text>
      <text id="s-2" data-name="s" transform="matrix(-0.961, 0.276, -0.276, -0.961, 59.535, 78.402)" fill="#fff" font-size="7" font-family="SegoeUI, Segoe UI"><tspan x="0" y="0">s</tspan></text>
      <text id="o-3" data-name="o" transform="matrix(-0.996, 0.094, -0.094, -0.996, 53.774, 78.072)" fill="#fff" font-size="9" font-family="SegoeUI, Segoe UI"><tspan x="0" y="0">o</tspan></text>
      <text id="_4" data-name=" " transform="translate(47.506 81.534) rotate(-177.659)" fill="#fff" font-size="6" font-family="SegoeUI, Segoe UI"><tspan x="0" y="0"> </tspan></text>
      <text id="b" transform="matrix(-0.984, -0.176, 0.176, -0.984, 45.521, 78.609)" fill="#fff" font-size="9" font-family="SegoeUI, Segoe UI"><tspan x="0" y="0">b</tspan></text>
      <text id="o-4" data-name="o" transform="translate(39.434 77.609) rotate(-158.863)" fill="#fff" font-size="9" font-family="SegoeUI, Segoe UI"><tspan x="0" y="0">o</tspan></text>
      <text id="m" transform="translate(32.751 77.321) rotate(-145.35)" fill="#fff" font-size="7" font-family="SegoeUI, Segoe UI"><tspan x="0" y="0">m</tspan></text>
      <text id="b-2" data-name="b" transform="translate(26.786 70.749) rotate(-131.745)" fill="#fff" font-size="9" font-family="SegoeUI, Segoe UI"><tspan x="0" y="0">b</tspan></text>
      <path id="Path_35174" data-name="Path 35174" d="M1558.019,604.049l1.449-1.449c.55-.55,1.068-1.793-.964-4.21a2.264,2.264,0,0,1,.289-.058,3,3,0,0,1,2.145.639,8.36,8.36,0,0,1,1.844,2.459c.109.188.218.375.329.56a7.032,7.032,0,0,0,3.557,3.332,4.518,4.518,0,0,0,3.936-.537l-1.286-1.906a2.237,2.237,0,0,1-1.921.261,5.03,5.03,0,0,1-2.313-2.332c-.106-.178-.21-.358-.315-.538a10.165,10.165,0,0,0-2.418-3.114,5.26,5.26,0,0,0-3.842-1.106,4.635,4.635,0,0,0-1.738.583c-2.523-2.193-3.808-1.662-4.371-1.1l-1.449,1.449a18.226,18.226,0,1,0,7.067,7.066m-4.216-6.664a10.238,10.238,0,0,1,3.814,3.814l-.869.87a18.177,18.177,0,0,0-3.814-3.814Zm-22.97,26.784a15.926,15.926,0,1,1,22.523,0,15.945,15.945,0,0,1-22.523,0" transform="translate(-1494.524 -565.337)" fill="#ff0045"/>
      <path id="Path_35175" data-name="Path 35175" d="M1542.909,609.32l1.626,1.626a10.893,10.893,0,0,1,10.729-2.758l.64-2.209a13.193,13.193,0,0,0-13,3.341" transform="translate(-1504.659 -571.07)" fill="#fff"/>
      <path id="Path_35176" data-name="Path 35176" d="M1621.084,604.7l7.328-6.587-1.74,4.357,9.427-2.224-6.717,4.392,3.3,3.03-10.309-1.061Z" transform="translate(-1546.288 -567.159)" fill="#efd521"/>
      <text id="_5" data-name=" " transform="translate(13.856 51.476) rotate(-94.464)" fill="#fff" font-size="6" font-family="SegoeUI, Segoe UI"><tspan x="0" y="0"> </tspan></text>
      <text id="I-2" data-name="I" transform="translate(16.553 48.978) rotate(-89.448)" fill="#fff" font-size="9" font-family="SegoeUI, Segoe UI"><tspan x="0" y="0">I</tspan></text>
      <text id="t-2" data-name="t" transform="translate(15.553 45.877) rotate(-82.355)" fill="#fff" font-size="8" font-family="SegoeUI, Segoe UI"><tspan x="0" y="0">t</tspan></text>
      <text id="_6" data-name=" " transform="translate(14.313 40.597) rotate(-75.975)" fill="#fff" font-size="6" font-family="SegoeUI, Segoe UI"><tspan x="0" y="0"> </tspan></text>
      <text id="l-2" data-name="l" transform="translate(17.76 39.102) rotate(-71.35)" fill="#fff" font-size="9" font-family="SegoeUI, Segoe UI"><tspan x="0" y="0">l</tspan></text>
      <text id="o-5" data-name="o" transform="translate(18.451 36.562) rotate(-63.277)" fill="#fff" font-size="9" font-family="SegoeUI, Segoe UI"><tspan x="0" y="0">o</tspan></text>
      <text id="o-6" data-name="o" transform="translate(21.06 31.234) rotate(-52.134)" fill="#fff" font-size="9" font-family="SegoeUI, Segoe UI"><tspan x="0" y="0">o</tspan></text>
      <text id="k-2" data-name="k" transform="translate(24.663 26.466) rotate(-40.97)" fill="#fff" font-size="9" font-family="SegoeUI, Segoe UI"><tspan x="0" y="0">k</tspan></text>
      <text id="s-3" data-name="s" transform="translate(28.257 20.68) rotate(-30.354)" fill="#fff" font-size="7" font-family="SegoeUI, Segoe UI"><tspan x="0" y="0">s</tspan></text>
      <text id="_7" data-name=" " transform="translate(33.018 16.84) rotate(-23.174)" fill="#fff" font-size="6" font-family="SegoeUI, Segoe UI"><tspan x="0" y="0"> </tspan></text>
      <text id="s-4" data-name="s" transform="translate(35.556 16.714) rotate(-16.038)" fill="#fff" font-size="7" font-family="SegoeUI, Segoe UI"><tspan x="0" y="0">s</tspan></text>
      <text id="o-7" data-name="o" transform="translate(41.336 17.018) rotate(-5.394)" fill="#fff" font-size="9" font-family="SegoeUI, Segoe UI"><tspan x="0" y="0">o</tspan></text>
      <text id="_8" data-name=" " transform="matrix(0.999, 0.041, -0.041, 0.999, 47.611, 13.61)" fill="#fff" font-size="6" font-family="SegoeUI, Segoe UI"><tspan x="0" y="0"> </tspan></text>
      <text id="b-3" data-name="b" transform="translate(49.615 16.508) rotate(10.129)" fill="#fff" font-size="9" font-family="SegoeUI, Segoe UI"><tspan x="0" y="0">b</tspan></text>
      <text id="o-8" data-name="o" transform="translate(55.629 17.528) rotate(21.183)" fill="#fff" font-size="9" font-family="SegoeUI, Segoe UI"><tspan x="0" y="0">o</tspan></text>
      <text id="m-2" data-name="m" transform="translate(62.381 17.758) rotate(34.65)" fill="#fff" font-size="7" font-family="SegoeUI, Segoe UI"><tspan x="0" y="0">m</tspan></text>
      <text id="b-4" data-name="b" transform="translate(68.303 24.375) rotate(48.254)" fill="#fff" font-size="9" font-family="SegoeUI, Segoe UI"><tspan x="0" y="0">b</tspan></text>
    </g>
  </g>
</svg>
