<svg xmlns="http://www.w3.org/2000/svg" width="22.323" height="22.323" viewBox="0 0 22.323 22.323">
  <g id="instagram" transform="translate(-1.5 -1.5)">
    <path id="Path_35034" data-name="Path 35034" d="M15.573,10.5a5.073,5.073,0,1,0,5.073,5.073A5.073,5.073,0,0,0,15.573,10.5Zm-3.044,5.073a3.044,3.044,0,1,0,3.044-3.044A3.044,3.044,0,0,0,12.529,15.573Z" transform="translate(-2.912 -2.912)" fill="#fff" fill-rule="evenodd"/>
    <path id="Path_35035" data-name="Path 35035" d="M26.515,7.5a1.015,1.015,0,1,0,1.015,1.015A1.015,1.015,0,0,0,26.515,7.5Z" transform="translate(-7.765 -1.941)" fill="#fff"/>
    <path id="Path_35036" data-name="Path 35036" d="M5.559,1.5A4.059,4.059,0,0,0,1.5,5.559V19.764a4.059,4.059,0,0,0,4.059,4.059H19.764a4.059,4.059,0,0,0,4.059-4.059V5.559A4.059,4.059,0,0,0,19.764,1.5ZM19.764,3.529H5.559A2.029,2.029,0,0,0,3.529,5.559V19.764a2.029,2.029,0,0,0,2.029,2.029H19.764a2.029,2.029,0,0,0,2.029-2.029V5.559A2.029,2.029,0,0,0,19.764,3.529Z" fill="#fff" fill-rule="evenodd"/>
  </g>
</svg>
