<svg xmlns="http://www.w3.org/2000/svg" xmlns:xlink="http://www.w3.org/1999/xlink" width="166.05" height="145.722" viewBox="0 0 166.05 145.722">
  <defs>
    <clipPath id="clip-path">
      <rect id="Rectangle_3584" data-name="Rectangle 3584" width="166.05" height="145.722" transform="translate(1265.354 353.152)" fill="none"/>
    </clipPath>
  </defs>
  <g id="Group_21728" data-name="Group 21728" transform="translate(-1265.354 -353.152)">
    <g id="Group_21727" data-name="Group 21727" clip-path="url(#clip-path)">
      <path id="Path_35308" data-name="Path 35308" d="M1427.444,395.414l-37.915-37.955v.013a14.336,14.336,0,0,0-10.26-4.321h-34.983a14.4,14.4,0,0,0-13.668,9.929l-5.629-5.614a14.367,14.367,0,0,0-10.267-4.315h-10.47v.008h0l-.109,5.694a11.608,11.608,0,0,1-.123,1.42,11.3,11.3,0,0,1-6.223,8.434,11.034,11.034,0,0,1-4.832,1.118l-5.335-.109v0h-.008l-.765,5.036a23.759,23.759,0,0,1-17.227,19.394l-4.06,1.11-.216.059v51.415a14.233,14.233,0,0,0,3.961,9.885l37.913,37.942a14.373,14.373,0,0,0,10.267,4.312l99.533-.012a14.4,14.4,0,0,0,14.376-14.377V405.3a14.244,14.244,0,0,0-3.959-9.885"/>
      <path id="Path_35309" data-name="Path 35309" d="M1335.708,367.534v27.185a6.205,6.205,0,1,1-12.41,0V367.533a8.576,8.576,0,0,0-8.577-8.577h-4.775a16.728,16.728,0,0,1-.178,2.171,17.016,17.016,0,0,1-17.161,14.5,29.574,29.574,0,0,1-21.448,24.124v46.977a8.575,8.575,0,0,0,8.576,8.575h34.985a8.577,8.577,0,0,0,8.578-8.577V419.54a6.205,6.205,0,1,1,12.41,0v27.185a8.578,8.578,0,0,0,8.578,8.577h34.983a8.577,8.577,0,0,0,8.578-8.577V367.534a8.578,8.578,0,0,0-8.578-8.578h-34.983a8.579,8.579,0,0,0-8.578,8.578" fill="#fff"/>
    </g>
  </g>
</svg>

