<svg xmlns="http://www.w3.org/2000/svg" width="27.274" height="27.277" viewBox="0 0 27.274 27.277">
  <path id="messenger" d="M0,13.228C0,5.625,5.954,0,13.636,0S27.273,5.625,27.273,13.228,21.318,26.455,13.636,26.455a14.883,14.883,0,0,1-3.943-.523,1.091,1.091,0,0,0-.727.057L6.25,27.182a1.091,1.091,0,0,1-1.534-.966l-.08-2.432a1.1,1.1,0,0,0-.364-.773A12.943,12.943,0,0,1,0,13.228Zm9.455-2.489-4,6.364a.64.64,0,0,0,.932.852l4.307-3.261a.8.8,0,0,1,.989,0l3.182,2.386a2.051,2.051,0,0,0,2.955-.545l4-6.364a.641.641,0,0,0-.932-.852L16.579,12.58a.786.786,0,0,1-.977,0L12.42,10.193a2.045,2.045,0,0,0-2.966.545Z" transform="translate(0.002)"/>
</svg>
