<svg xmlns="http://www.w3.org/2000/svg" width="27.646" height="27.646" viewBox="0 0 27.646 27.646">
  <path id="Path_35026" data-name="Path 35026" d="M17.206,26.8a11.066,11.066,0,1,0-2.765,0V18.588H11.676V15.823h2.765V13.537a6.037,6.037,0,0,1,.553-3.195,3.768,3.768,0,0,1,1.57-1.569A5.478,5.478,0,0,1,18.9,8.247a8.926,8.926,0,0,1,1.767.111v2.626H19.97a5.013,5.013,0,0,0-2.1.227,1,1,0,0,0-.434.434c-.166.312-.227.622-.227,1.891v2.288h3.456l-.691,2.765H17.206Zm-1.382,2.85A13.823,13.823,0,1,1,29.646,15.823,13.823,13.823,0,0,1,15.823,29.646Z" transform="translate(-2 -2)" fill="#fff"/>
</svg>
