<svg xmlns="http://www.w3.org/2000/svg" width="27.273" height="22.728" viewBox="0 0 27.273 22.728">
  <path id="twitter" d="M27.273,5.659a7.33,7.33,0,0,1-1.018,1.459,7.518,7.518,0,0,1-1.839,1.551q.031.243.045.456a16.549,16.549,0,0,1-1.17,6.34,16.693,16.693,0,0,1-6.643,8.255,17.467,17.467,0,0,1-10.4,1.9A11.94,11.94,0,0,1,0,23.2a11.643,11.643,0,0,0,8.331-2.4,5.739,5.739,0,0,1-5.29-3.922,3.558,3.558,0,0,0,1.186.061,11.031,11.031,0,0,0,1.338-.183,6.272,6.272,0,0,1-3.8-2.949,6.358,6.358,0,0,1-.639-2.8,5.342,5.342,0,0,0,2.524.76A6.52,6.52,0,0,1,1.17,7.741a7.46,7.46,0,0,1,.684-3.633A19.109,19.109,0,0,0,8.346,8.972a13.448,13.448,0,0,0,5.093,1.064,6.806,6.806,0,0,1,.684-4.318,5.882,5.882,0,0,1,3.511-2.554,5.183,5.183,0,0,1,5.2,1.611,9.255,9.255,0,0,0,3.618-1.338,5.489,5.489,0,0,1-2.493,3.223,15.809,15.809,0,0,0,3.314-1Z" transform="translate(0 -2.999)"/>
</svg>
