<svg xmlns="http://www.w3.org/2000/svg" width="27.274" height="27.273" viewBox="0 0 27.274 27.273">
  <path id="whatsappalt" d="M14.489,25.569a12.672,12.672,0,0,1-6.205-1.6L0,27.273,3.3,18.99a12.672,12.672,0,0,1-1.6-6.205A12.461,12.461,0,0,1,2.717,7.817a12.65,12.65,0,0,1,6.8-6.8,12.7,12.7,0,0,1,9.935,0,12.652,12.652,0,0,1,6.805,6.805,12.7,12.7,0,0,1,0,9.935,12.652,12.652,0,0,1-6.805,6.805A12.442,12.442,0,0,1,14.489,25.569Zm0-22.16a9.328,9.328,0,0,0-9.375,9.375,9.328,9.328,0,0,0,9.375,9.375,9.328,9.328,0,0,0,9.375-9.375,9.328,9.328,0,0,0-9.375-9.375ZM19.1,18.165q-1.039,1.039-3.236.306a11.065,11.065,0,0,1-4.261-2.8,11.046,11.046,0,0,1-2.8-4.261q-.732-2.2.305-3.236L10.36,6.925q.16-.16.546.04a2.025,2.025,0,0,1,.706.652,1.561,1.561,0,0,1,.32.905v1.7l-.852.959a7.455,7.455,0,0,0,2.064,2.943,7.448,7.448,0,0,0,2.942,2.064l.959-.852h1.7a1.561,1.561,0,0,1,.905.32,2.025,2.025,0,0,1,.652.706q.2.386.04.545Z"/>
</svg>
